G04 #@! TF.GenerationSoftware,KiCad,Pcbnew,7.0.2*
G04 #@! TF.CreationDate,2023-07-04T15:02:42+02:00*
G04 #@! TF.ProjectId,espboard,65737062-6f61-4726-942e-6b696361645f,rev?*
G04 #@! TF.SameCoordinates,Original*
G04 #@! TF.FileFunction,Legend,Bot*
G04 #@! TF.FilePolarity,Positive*
%FSLAX46Y46*%
G04 Gerber Fmt 4.6, Leading zero omitted, Abs format (unit mm)*
G04 Created by KiCad (PCBNEW 7.0.2) date 2023-07-04 15:02:42*
%MOMM*%
%LPD*%
G01*
G04 APERTURE LIST*
%ADD10C,0.150000*%
%ADD11O,4.200000X2.100000*%
%ADD12O,1.550000X3.100000*%
%ADD13C,2.800000*%
%ADD14C,0.800000*%
%ADD15O,2.000000X1.000000*%
G04 APERTURE END LIST*
D10*
G36*
X136266841Y-107018000D02*
G01*
X136266841Y-106001949D01*
X136133484Y-106001949D01*
X136133484Y-107018000D01*
X136266841Y-107018000D01*
G37*
G36*
X135916353Y-107018000D02*
G01*
X135916353Y-106283317D01*
X135805222Y-106283317D01*
X135805222Y-106386387D01*
X135794898Y-106372013D01*
X135784015Y-106358567D01*
X135772573Y-106346047D01*
X135760571Y-106334455D01*
X135748011Y-106323791D01*
X135734892Y-106314053D01*
X135721213Y-106305244D01*
X135706975Y-106297361D01*
X135692179Y-106290406D01*
X135676823Y-106284378D01*
X135660908Y-106279277D01*
X135644434Y-106275104D01*
X135627401Y-106271859D01*
X135609809Y-106269540D01*
X135591658Y-106268149D01*
X135572947Y-106267685D01*
X135560677Y-106267896D01*
X135548595Y-106268527D01*
X135536703Y-106269579D01*
X135524999Y-106271051D01*
X135513485Y-106272945D01*
X135502159Y-106275259D01*
X135491022Y-106277994D01*
X135480074Y-106281149D01*
X135469315Y-106284726D01*
X135458745Y-106288723D01*
X135451803Y-106291621D01*
X135441654Y-106296197D01*
X135431999Y-106301038D01*
X135422838Y-106306146D01*
X135414170Y-106311519D01*
X135405996Y-106317159D01*
X135395866Y-106325094D01*
X135386613Y-106333501D01*
X135378239Y-106342381D01*
X135370742Y-106351735D01*
X135369004Y-106354147D01*
X135362364Y-106364024D01*
X135356243Y-106374359D01*
X135350640Y-106385151D01*
X135345557Y-106396401D01*
X135340993Y-106408110D01*
X135336948Y-106420276D01*
X135334254Y-106429701D01*
X135331853Y-106439384D01*
X135330414Y-106445983D01*
X135328444Y-106458015D01*
X135327108Y-106469469D01*
X135325986Y-106482550D01*
X135325285Y-106493427D01*
X135324704Y-106505219D01*
X135324243Y-106517925D01*
X135323902Y-106531545D01*
X135323682Y-106546080D01*
X135323602Y-106556278D01*
X135323575Y-106566883D01*
X135323575Y-107018000D01*
X135447162Y-107018000D01*
X135447162Y-106570058D01*
X135447289Y-106556109D01*
X135447669Y-106542838D01*
X135448302Y-106530246D01*
X135449189Y-106518332D01*
X135450328Y-106507096D01*
X135451722Y-106496539D01*
X135453368Y-106486660D01*
X135455957Y-106474543D01*
X135458997Y-106463633D01*
X135461572Y-106456241D01*
X135465526Y-106447017D01*
X135470182Y-106438274D01*
X135475540Y-106430012D01*
X135481600Y-106422230D01*
X135488363Y-106414930D01*
X135495827Y-106408110D01*
X135503994Y-106401771D01*
X135512863Y-106395913D01*
X135522225Y-106390589D01*
X135531991Y-106385975D01*
X135542161Y-106382071D01*
X135552736Y-106378877D01*
X135563716Y-106376393D01*
X135575100Y-106374618D01*
X135586888Y-106373553D01*
X135599081Y-106373198D01*
X135608858Y-106373396D01*
X135623210Y-106374433D01*
X135637183Y-106376358D01*
X135650779Y-106379173D01*
X135663996Y-106382876D01*
X135676836Y-106387467D01*
X135689298Y-106392948D01*
X135701383Y-106399317D01*
X135713089Y-106406575D01*
X135724418Y-106414721D01*
X135735369Y-106423757D01*
X135745626Y-106434037D01*
X135751904Y-106441780D01*
X135757733Y-106450235D01*
X135763114Y-106459402D01*
X135768047Y-106469281D01*
X135772531Y-106479871D01*
X135776567Y-106491173D01*
X135780154Y-106503186D01*
X135783293Y-106515912D01*
X135785983Y-106529349D01*
X135788226Y-106543498D01*
X135790019Y-106558359D01*
X135791364Y-106573931D01*
X135792261Y-106590215D01*
X135792710Y-106607211D01*
X135792766Y-106615976D01*
X135792766Y-107018000D01*
X135916353Y-107018000D01*
G37*
G36*
X134822429Y-106267795D02*
G01*
X134835370Y-106268371D01*
X134847943Y-106269441D01*
X134860146Y-106271004D01*
X134871980Y-106273062D01*
X134883444Y-106275613D01*
X134894540Y-106278657D01*
X134905266Y-106282196D01*
X134915623Y-106286228D01*
X134925611Y-106290754D01*
X134935229Y-106295773D01*
X134941448Y-106299393D01*
X134950625Y-106305231D01*
X134959623Y-106311558D01*
X134968440Y-106318374D01*
X134977077Y-106325680D01*
X134985533Y-106333475D01*
X134993809Y-106341760D01*
X135001905Y-106350534D01*
X135009820Y-106359797D01*
X135017556Y-106369550D01*
X135025110Y-106379793D01*
X135025110Y-106283317D01*
X135137706Y-106283317D01*
X135137706Y-107299367D01*
X135014120Y-107299367D01*
X135014120Y-106941551D01*
X135012133Y-106944026D01*
X135003844Y-106953659D01*
X134995006Y-106962864D01*
X134985618Y-106971641D01*
X134975680Y-106979991D01*
X134967866Y-106985973D01*
X134959743Y-106991715D01*
X134951311Y-106997216D01*
X134942570Y-107002477D01*
X134933519Y-107007497D01*
X134927304Y-107010662D01*
X134917797Y-107015026D01*
X134908072Y-107018931D01*
X134898128Y-107022376D01*
X134887965Y-107025362D01*
X134877583Y-107027889D01*
X134866982Y-107029956D01*
X134856162Y-107031564D01*
X134845124Y-107032712D01*
X134833866Y-107033401D01*
X134822389Y-107033631D01*
X134811857Y-107033444D01*
X134801388Y-107032883D01*
X134790982Y-107031948D01*
X134780639Y-107030639D01*
X134770358Y-107028956D01*
X134760141Y-107026899D01*
X134749987Y-107024468D01*
X134739896Y-107021663D01*
X134729868Y-107018484D01*
X134719902Y-107014931D01*
X134710000Y-107011004D01*
X134700161Y-107006703D01*
X134690384Y-107002028D01*
X134680671Y-106996979D01*
X134671020Y-106991556D01*
X134661433Y-106985759D01*
X134651989Y-106979582D01*
X134642832Y-106973078D01*
X134633961Y-106966248D01*
X134625377Y-106959091D01*
X134617078Y-106951608D01*
X134609066Y-106943799D01*
X134601340Y-106935664D01*
X134593900Y-106927202D01*
X134586746Y-106918414D01*
X134579879Y-106909300D01*
X134573297Y-106899859D01*
X134567002Y-106890093D01*
X134560994Y-106879999D01*
X134555271Y-106869580D01*
X134549835Y-106858834D01*
X134544685Y-106847762D01*
X134539805Y-106836409D01*
X134535239Y-106824880D01*
X134530989Y-106813175D01*
X134527053Y-106801295D01*
X134523433Y-106789239D01*
X134520127Y-106777008D01*
X134517136Y-106764601D01*
X134514460Y-106752019D01*
X134512098Y-106739261D01*
X134510052Y-106726328D01*
X134508320Y-106713219D01*
X134506903Y-106699934D01*
X134505802Y-106686474D01*
X134505014Y-106672839D01*
X134504542Y-106659027D01*
X134504385Y-106645041D01*
X134504388Y-106644796D01*
X134630903Y-106644796D01*
X134631132Y-106662875D01*
X134631822Y-106680353D01*
X134632972Y-106697229D01*
X134634581Y-106713505D01*
X134636651Y-106729179D01*
X134639180Y-106744253D01*
X134642169Y-106758725D01*
X134645618Y-106772596D01*
X134649527Y-106785867D01*
X134653896Y-106798536D01*
X134658724Y-106810604D01*
X134664013Y-106822071D01*
X134669761Y-106832937D01*
X134675969Y-106843202D01*
X134682637Y-106852866D01*
X134689765Y-106861928D01*
X134693452Y-106866241D01*
X134700964Y-106874456D01*
X134708662Y-106882122D01*
X134716544Y-106889242D01*
X134724612Y-106895813D01*
X134732865Y-106901837D01*
X134741302Y-106907314D01*
X134749925Y-106912243D01*
X134758733Y-106916624D01*
X134767726Y-106920457D01*
X134781563Y-106925181D01*
X134791019Y-106927645D01*
X134800660Y-106929562D01*
X134810486Y-106930931D01*
X134820497Y-106931752D01*
X134830693Y-106932026D01*
X134835738Y-106931960D01*
X134845687Y-106931431D01*
X134855449Y-106930374D01*
X134869741Y-106927798D01*
X134883613Y-106924032D01*
X134897064Y-106919076D01*
X134910094Y-106912932D01*
X134922704Y-106905598D01*
X134930877Y-106900048D01*
X134938862Y-106893970D01*
X134946661Y-106887363D01*
X134954272Y-106880227D01*
X134961697Y-106872563D01*
X134968935Y-106864371D01*
X134975826Y-106855626D01*
X134982273Y-106846304D01*
X134988275Y-106836407D01*
X134993832Y-106825933D01*
X134998945Y-106814883D01*
X135003613Y-106803257D01*
X135007837Y-106791054D01*
X135011616Y-106778275D01*
X135014951Y-106764920D01*
X135017840Y-106750989D01*
X135020286Y-106736481D01*
X135022286Y-106721397D01*
X135023842Y-106705737D01*
X135024954Y-106689501D01*
X135025621Y-106672688D01*
X135025843Y-106655299D01*
X135025606Y-106637884D01*
X135024893Y-106620994D01*
X135023705Y-106604629D01*
X135022042Y-106588788D01*
X135019904Y-106573473D01*
X135017291Y-106558682D01*
X135014203Y-106544415D01*
X135010639Y-106530674D01*
X135006600Y-106517457D01*
X135002087Y-106504765D01*
X134997098Y-106492598D01*
X134991634Y-106480955D01*
X134985695Y-106469837D01*
X134979281Y-106459244D01*
X134972391Y-106449176D01*
X134965027Y-106439632D01*
X134957354Y-106430641D01*
X134949540Y-106422230D01*
X134941585Y-106414399D01*
X134933489Y-106407148D01*
X134925251Y-106400477D01*
X134916873Y-106394386D01*
X134908353Y-106388876D01*
X134899692Y-106383945D01*
X134890889Y-106379594D01*
X134877421Y-106374156D01*
X134863635Y-106370023D01*
X134849532Y-106367195D01*
X134835111Y-106365673D01*
X134825320Y-106365383D01*
X134820350Y-106365451D01*
X134810544Y-106365997D01*
X134796168Y-106367838D01*
X134782191Y-106370908D01*
X134768613Y-106375206D01*
X134755435Y-106380731D01*
X134742656Y-106387485D01*
X134734358Y-106392669D01*
X134726238Y-106398399D01*
X134718296Y-106404675D01*
X134710530Y-106411497D01*
X134702943Y-106418864D01*
X134695532Y-106426777D01*
X134688300Y-106435236D01*
X134681349Y-106444212D01*
X134674847Y-106453737D01*
X134668794Y-106463812D01*
X134663188Y-106474437D01*
X134658032Y-106485611D01*
X134653323Y-106497335D01*
X134649063Y-106509608D01*
X134645252Y-106522431D01*
X134641889Y-106535803D01*
X134638974Y-106549725D01*
X134636508Y-106564196D01*
X134634490Y-106579217D01*
X134632920Y-106594788D01*
X134631799Y-106610908D01*
X134631127Y-106627577D01*
X134630903Y-106644796D01*
X134504388Y-106644796D01*
X134504527Y-106632009D01*
X134504953Y-106619109D01*
X134505664Y-106606341D01*
X134506659Y-106593704D01*
X134507939Y-106581199D01*
X134509502Y-106568825D01*
X134511350Y-106556584D01*
X134513483Y-106544474D01*
X134515899Y-106532495D01*
X134518600Y-106520649D01*
X134521586Y-106508933D01*
X134524855Y-106497350D01*
X134528409Y-106485898D01*
X134532247Y-106474578D01*
X134536370Y-106463390D01*
X134540777Y-106452333D01*
X134545463Y-106441497D01*
X134550424Y-106430969D01*
X134555660Y-106420751D01*
X134561171Y-106410842D01*
X134566957Y-106401242D01*
X134573017Y-106391952D01*
X134579352Y-106382970D01*
X134585962Y-106374297D01*
X134592846Y-106365934D01*
X134600006Y-106357880D01*
X134607440Y-106350135D01*
X134615149Y-106342699D01*
X134623133Y-106335572D01*
X134631391Y-106328754D01*
X134639924Y-106322245D01*
X134648732Y-106316046D01*
X134657734Y-106310189D01*
X134666909Y-106304711D01*
X134676258Y-106299611D01*
X134685781Y-106294888D01*
X134695477Y-106290543D01*
X134705347Y-106286576D01*
X134715390Y-106282987D01*
X134725608Y-106279775D01*
X134735998Y-106276942D01*
X134746563Y-106274486D01*
X134757301Y-106272408D01*
X134768213Y-106270708D01*
X134779298Y-106269386D01*
X134790557Y-106268441D01*
X134801990Y-106267874D01*
X134813596Y-106267685D01*
X134822429Y-106267795D01*
G37*
G36*
X133881077Y-107018000D02*
G01*
X133881077Y-106910777D01*
X133891971Y-106925654D01*
X133903341Y-106939571D01*
X133915189Y-106952528D01*
X133927514Y-106964526D01*
X133940315Y-106975563D01*
X133953594Y-106985641D01*
X133967350Y-106994759D01*
X133981583Y-107002918D01*
X133996293Y-107010116D01*
X134011480Y-107016355D01*
X134027144Y-107021634D01*
X134043285Y-107025953D01*
X134059903Y-107029312D01*
X134076998Y-107031711D01*
X134094570Y-107033151D01*
X134112619Y-107033631D01*
X134124634Y-107033412D01*
X134136499Y-107032755D01*
X134148213Y-107031660D01*
X134159777Y-107030128D01*
X134171191Y-107028157D01*
X134182455Y-107025748D01*
X134193568Y-107022902D01*
X134204531Y-107019618D01*
X134215344Y-107015895D01*
X134226006Y-107011735D01*
X134233031Y-107008718D01*
X134243267Y-107003936D01*
X134253001Y-106998929D01*
X134262232Y-106993700D01*
X134270961Y-106988248D01*
X134279188Y-106982572D01*
X134289375Y-106974657D01*
X134298670Y-106966345D01*
X134307072Y-106957636D01*
X134314580Y-106948531D01*
X134316318Y-106946192D01*
X134322844Y-106936525D01*
X134328866Y-106926332D01*
X134334384Y-106915612D01*
X134339399Y-106904366D01*
X134343910Y-106892592D01*
X134347917Y-106880292D01*
X134350591Y-106870722D01*
X134352983Y-106860855D01*
X134354420Y-106854113D01*
X134356194Y-106844282D01*
X134357732Y-106833108D01*
X134359033Y-106820590D01*
X134359854Y-106810321D01*
X134360542Y-106799295D01*
X134361096Y-106787514D01*
X134361518Y-106774978D01*
X134361806Y-106761686D01*
X134361962Y-106747638D01*
X134361991Y-106737853D01*
X134361991Y-106283317D01*
X134238160Y-106283317D01*
X134238160Y-106691203D01*
X134238130Y-106703166D01*
X134238042Y-106714631D01*
X134237894Y-106725598D01*
X134237687Y-106736067D01*
X134237421Y-106746038D01*
X134236910Y-106760061D01*
X134236267Y-106772963D01*
X134235491Y-106784744D01*
X134234581Y-106795406D01*
X134233162Y-106807877D01*
X134231505Y-106818357D01*
X134230588Y-106822849D01*
X134227306Y-106834794D01*
X134223200Y-106846083D01*
X134218269Y-106856715D01*
X134212515Y-106866691D01*
X134205935Y-106876010D01*
X134198532Y-106884673D01*
X134190304Y-106892680D01*
X134181251Y-106900030D01*
X134171508Y-106906613D01*
X134161208Y-106912319D01*
X134150351Y-106917146D01*
X134138936Y-106921096D01*
X134126965Y-106924168D01*
X134114436Y-106926363D01*
X134104673Y-106927432D01*
X134094598Y-106928008D01*
X134087706Y-106928118D01*
X134077369Y-106927867D01*
X134067147Y-106927113D01*
X134057041Y-106925858D01*
X134047051Y-106924100D01*
X134037177Y-106921839D01*
X134027419Y-106919076D01*
X134017777Y-106915811D01*
X134008251Y-106912044D01*
X133998841Y-106907774D01*
X133989547Y-106903002D01*
X133983415Y-106899542D01*
X133974507Y-106893955D01*
X133966101Y-106888004D01*
X133958198Y-106881688D01*
X133950797Y-106875007D01*
X133943898Y-106867961D01*
X133937502Y-106860550D01*
X133929755Y-106850101D01*
X133924530Y-106841838D01*
X133919809Y-106833211D01*
X133915589Y-106824218D01*
X133914294Y-106821140D01*
X133910671Y-106811450D01*
X133907405Y-106800975D01*
X133904494Y-106789715D01*
X133901941Y-106777668D01*
X133899743Y-106764836D01*
X133897902Y-106751219D01*
X133896417Y-106736815D01*
X133895625Y-106726776D01*
X133894992Y-106716388D01*
X133894517Y-106705651D01*
X133894200Y-106694565D01*
X133894042Y-106683129D01*
X133894022Y-106677281D01*
X133894022Y-106283317D01*
X133770435Y-106283317D01*
X133770435Y-107018000D01*
X133881077Y-107018000D01*
G37*
G36*
X133310526Y-106904671D02*
G01*
X133292696Y-107018000D01*
X133302397Y-107020793D01*
X133311901Y-107023312D01*
X133324266Y-107026243D01*
X133336280Y-107028685D01*
X133347943Y-107030639D01*
X133359254Y-107032105D01*
X133370214Y-107033081D01*
X133380824Y-107033570D01*
X133385997Y-107033631D01*
X133398370Y-107033442D01*
X133410211Y-107032875D01*
X133421520Y-107031931D01*
X133432296Y-107030609D01*
X133442540Y-107028908D01*
X133452251Y-107026830D01*
X133464372Y-107023472D01*
X133475546Y-107019442D01*
X133485774Y-107014740D01*
X133490533Y-107012138D01*
X133499470Y-107006493D01*
X133507721Y-107000429D01*
X133515285Y-106993945D01*
X133523774Y-106985250D01*
X133531190Y-106975899D01*
X133537532Y-106965892D01*
X133542801Y-106955229D01*
X133546293Y-106945219D01*
X133549319Y-106932774D01*
X133551283Y-106921842D01*
X133552985Y-106909541D01*
X133554426Y-106895871D01*
X133555241Y-106885996D01*
X133555939Y-106875513D01*
X133556521Y-106864421D01*
X133556986Y-106852720D01*
X133557336Y-106840410D01*
X133557568Y-106827492D01*
X133557685Y-106813965D01*
X133557699Y-106806974D01*
X133557699Y-106381014D01*
X133648558Y-106381014D01*
X133648558Y-106283317D01*
X133557699Y-106283317D01*
X133557699Y-106105997D01*
X133434845Y-106033212D01*
X133434845Y-106283317D01*
X133310526Y-106283317D01*
X133310526Y-106381014D01*
X133434845Y-106381014D01*
X133434845Y-106816988D01*
X133434789Y-106826813D01*
X133434541Y-106838851D01*
X133434095Y-106849676D01*
X133433258Y-106861501D01*
X133432110Y-106871429D01*
X133429983Y-106882143D01*
X133428495Y-106886597D01*
X133423586Y-106895618D01*
X133417103Y-106903446D01*
X133409046Y-106910081D01*
X133407246Y-106911265D01*
X133397861Y-106915634D01*
X133387831Y-106918317D01*
X133377754Y-106919738D01*
X133366460Y-106920294D01*
X133364748Y-106920302D01*
X133353665Y-106919325D01*
X133342615Y-106916868D01*
X133332140Y-106913570D01*
X133322702Y-106909983D01*
X133312619Y-106905633D01*
X133310526Y-106904671D01*
G37*
G36*
X132187253Y-106900763D02*
G01*
X132187253Y-107018000D01*
X132853059Y-107018000D01*
X132853101Y-107006879D01*
X132852616Y-106995865D01*
X132851605Y-106984958D01*
X132850067Y-106974158D01*
X132848002Y-106963465D01*
X132845411Y-106952878D01*
X132842293Y-106942399D01*
X132838648Y-106932026D01*
X132833574Y-106919268D01*
X132827967Y-106906549D01*
X132821827Y-106893869D01*
X132815155Y-106881227D01*
X132807951Y-106868624D01*
X132802853Y-106860244D01*
X132797517Y-106851880D01*
X132791946Y-106843534D01*
X132786137Y-106835205D01*
X132780092Y-106826893D01*
X132773811Y-106818598D01*
X132767292Y-106810321D01*
X132760538Y-106802060D01*
X132757071Y-106797937D01*
X132749885Y-106789583D01*
X132742310Y-106781069D01*
X132734345Y-106772394D01*
X132725991Y-106763560D01*
X132717248Y-106754565D01*
X132708116Y-106745409D01*
X132698594Y-106736094D01*
X132688683Y-106726618D01*
X132678383Y-106716982D01*
X132667694Y-106707185D01*
X132656615Y-106697228D01*
X132645147Y-106687112D01*
X132633290Y-106676834D01*
X132621043Y-106666397D01*
X132608408Y-106655799D01*
X132595383Y-106645041D01*
X132585228Y-106636608D01*
X132575282Y-106628286D01*
X132565544Y-106620074D01*
X132556014Y-106611972D01*
X132546691Y-106603981D01*
X132537577Y-106596100D01*
X132528671Y-106588328D01*
X132519973Y-106580667D01*
X132511482Y-106573117D01*
X132503200Y-106565676D01*
X132495126Y-106558346D01*
X132487259Y-106551125D01*
X132479601Y-106544015D01*
X132472151Y-106537016D01*
X132464908Y-106530126D01*
X132451047Y-106516677D01*
X132438019Y-106503670D01*
X132425822Y-106491103D01*
X132414457Y-106478976D01*
X132403924Y-106467291D01*
X132394223Y-106456046D01*
X132385354Y-106445242D01*
X132377317Y-106434879D01*
X132373610Y-106429863D01*
X132366601Y-106419974D01*
X132360043Y-106410152D01*
X132353938Y-106400396D01*
X132348285Y-106390708D01*
X132343085Y-106381086D01*
X132338336Y-106371531D01*
X132334040Y-106362042D01*
X132330196Y-106352621D01*
X132326804Y-106343266D01*
X132322565Y-106329359D01*
X132319342Y-106315603D01*
X132317138Y-106301997D01*
X132315951Y-106288541D01*
X132315725Y-106279653D01*
X132316188Y-106265938D01*
X132317579Y-106252634D01*
X132319898Y-106239743D01*
X132323143Y-106227263D01*
X132327317Y-106215196D01*
X132332417Y-106203541D01*
X132338445Y-106192298D01*
X132345400Y-106181468D01*
X132353283Y-106171049D01*
X132362093Y-106161043D01*
X132368481Y-106154601D01*
X132378606Y-106145478D01*
X132389289Y-106137253D01*
X132400531Y-106129925D01*
X132412330Y-106123494D01*
X132424688Y-106117961D01*
X132437604Y-106113325D01*
X132451078Y-106109586D01*
X132465110Y-106106745D01*
X132479700Y-106104801D01*
X132489737Y-106104003D01*
X132500022Y-106103604D01*
X132505257Y-106103554D01*
X132516292Y-106103773D01*
X132527048Y-106104428D01*
X132537526Y-106105521D01*
X132547725Y-106107050D01*
X132557645Y-106109016D01*
X132567287Y-106111420D01*
X132576650Y-106114260D01*
X132590173Y-106119340D01*
X132603069Y-106125403D01*
X132615338Y-106132449D01*
X132626980Y-106140478D01*
X132637995Y-106149490D01*
X132648383Y-106159486D01*
X132657949Y-106170353D01*
X132666587Y-106181980D01*
X132674298Y-106194367D01*
X132678923Y-106203047D01*
X132683136Y-106212065D01*
X132686937Y-106221421D01*
X132690326Y-106231114D01*
X132693303Y-106241145D01*
X132695868Y-106251514D01*
X132698020Y-106262221D01*
X132699760Y-106273265D01*
X132701088Y-106284647D01*
X132702004Y-106296367D01*
X132702508Y-106308425D01*
X132702605Y-106314580D01*
X132829612Y-106301147D01*
X132827711Y-106283162D01*
X132825246Y-106265720D01*
X132822216Y-106248822D01*
X132818621Y-106232469D01*
X132814461Y-106216659D01*
X132809736Y-106201393D01*
X132804447Y-106186670D01*
X132798593Y-106172492D01*
X132792174Y-106158857D01*
X132785190Y-106145766D01*
X132777641Y-106133219D01*
X132769528Y-106121216D01*
X132760850Y-106109757D01*
X132751606Y-106098841D01*
X132741799Y-106088469D01*
X132731426Y-106078642D01*
X132720543Y-106069355D01*
X132709204Y-106060667D01*
X132697408Y-106052578D01*
X132685157Y-106045089D01*
X132672450Y-106038198D01*
X132659286Y-106031907D01*
X132645667Y-106026215D01*
X132631592Y-106021122D01*
X132617060Y-106016629D01*
X132602073Y-106012734D01*
X132586629Y-106009439D01*
X132570729Y-106006743D01*
X132554374Y-106004645D01*
X132537562Y-106003148D01*
X132520294Y-106002249D01*
X132502570Y-106001949D01*
X132484701Y-106002265D01*
X132467304Y-106003212D01*
X132450378Y-106004791D01*
X132433923Y-106007002D01*
X132417939Y-106009844D01*
X132402427Y-106013318D01*
X132387386Y-106017423D01*
X132372816Y-106022160D01*
X132358718Y-106027529D01*
X132345091Y-106033529D01*
X132331935Y-106040161D01*
X132319251Y-106047424D01*
X132307038Y-106055319D01*
X132295296Y-106063846D01*
X132284025Y-106073004D01*
X132273226Y-106082794D01*
X132262993Y-106093050D01*
X132253420Y-106103608D01*
X132244507Y-106114467D01*
X132236254Y-106125628D01*
X132228662Y-106137090D01*
X132221729Y-106148854D01*
X132215457Y-106160919D01*
X132209845Y-106173286D01*
X132204894Y-106185954D01*
X132200602Y-106198923D01*
X132196971Y-106212195D01*
X132194000Y-106225767D01*
X132191689Y-106239641D01*
X132190039Y-106253817D01*
X132189048Y-106268294D01*
X132188718Y-106283073D01*
X132188935Y-106294459D01*
X132189586Y-106305810D01*
X132190670Y-106317127D01*
X132192187Y-106328410D01*
X132194139Y-106339659D01*
X132196524Y-106350873D01*
X132199342Y-106362053D01*
X132202594Y-106373198D01*
X132206280Y-106384310D01*
X132210400Y-106395386D01*
X132213387Y-106402752D01*
X132218300Y-106413799D01*
X132223788Y-106424957D01*
X132229852Y-106436227D01*
X132236491Y-106447608D01*
X132243705Y-106459102D01*
X132251494Y-106470707D01*
X132259859Y-106482423D01*
X132265755Y-106490296D01*
X132271907Y-106498219D01*
X132278315Y-106506191D01*
X132284978Y-106514213D01*
X132291897Y-106522284D01*
X132295452Y-106526339D01*
X132302924Y-106534649D01*
X132310989Y-106543336D01*
X132319647Y-106552402D01*
X132328898Y-106561845D01*
X132338743Y-106571667D01*
X132349182Y-106581866D01*
X132360214Y-106592443D01*
X132371839Y-106603397D01*
X132384058Y-106614730D01*
X132396870Y-106626440D01*
X132410276Y-106638528D01*
X132424275Y-106650994D01*
X132438868Y-106663838D01*
X132446387Y-106670401D01*
X132454054Y-106677059D01*
X132461869Y-106683812D01*
X132469833Y-106690659D01*
X132477945Y-106697600D01*
X132486206Y-106704636D01*
X132499787Y-106716214D01*
X132512748Y-106727316D01*
X132525089Y-106737944D01*
X132536810Y-106748096D01*
X132547911Y-106757773D01*
X132558391Y-106766975D01*
X132568252Y-106775702D01*
X132577492Y-106783954D01*
X132586112Y-106791730D01*
X132594112Y-106799032D01*
X132601492Y-106805858D01*
X132611398Y-106815207D01*
X132619910Y-106823487D01*
X132627026Y-106830697D01*
X132629088Y-106832863D01*
X132636793Y-106841297D01*
X132644155Y-106849747D01*
X132651173Y-106858211D01*
X132657848Y-106866691D01*
X132664179Y-106875186D01*
X132670167Y-106883696D01*
X132675811Y-106892222D01*
X132681112Y-106900763D01*
X132187253Y-106900763D01*
G37*
G36*
X152116955Y-60774457D02*
G01*
X152130038Y-60774875D01*
X152142967Y-60775571D01*
X152155744Y-60776546D01*
X152168368Y-60777800D01*
X152180840Y-60779332D01*
X152193159Y-60781143D01*
X152205325Y-60783233D01*
X152217339Y-60785601D01*
X152229200Y-60788247D01*
X152240909Y-60791172D01*
X152252464Y-60794376D01*
X152263867Y-60797859D01*
X152275118Y-60801619D01*
X152286216Y-60805659D01*
X152297161Y-60809977D01*
X152307953Y-60814574D01*
X152318593Y-60819449D01*
X152329080Y-60824603D01*
X152339415Y-60830036D01*
X152349597Y-60835747D01*
X152359626Y-60841736D01*
X152369502Y-60848005D01*
X152379226Y-60854551D01*
X152388798Y-60861377D01*
X152398216Y-60868481D01*
X152407482Y-60875864D01*
X152416595Y-60883525D01*
X152425556Y-60891465D01*
X152434364Y-60899683D01*
X152443019Y-60908180D01*
X152451522Y-60916956D01*
X152459802Y-60925962D01*
X152467819Y-60935183D01*
X152475573Y-60944618D01*
X152483064Y-60954267D01*
X152490292Y-60964131D01*
X152497258Y-60974209D01*
X152503960Y-60984500D01*
X152510400Y-60995006D01*
X152516577Y-61005727D01*
X152522491Y-61016661D01*
X152528142Y-61027810D01*
X152533531Y-61039172D01*
X152538656Y-61050749D01*
X152543519Y-61062540D01*
X152548119Y-61074546D01*
X152552456Y-61086765D01*
X152556530Y-61099199D01*
X152560341Y-61111847D01*
X152563889Y-61124709D01*
X152567175Y-61137785D01*
X152570198Y-61151076D01*
X152572958Y-61164581D01*
X152575455Y-61178299D01*
X152577689Y-61192232D01*
X152579660Y-61206380D01*
X152581369Y-61220741D01*
X152582814Y-61235317D01*
X152583997Y-61250107D01*
X152584917Y-61265111D01*
X152585574Y-61280329D01*
X152585969Y-61295761D01*
X152586100Y-61311408D01*
X152585875Y-61328023D01*
X152585199Y-61344529D01*
X152584074Y-61360927D01*
X152582497Y-61377216D01*
X152580471Y-61393396D01*
X152577994Y-61409467D01*
X152575067Y-61425430D01*
X152571690Y-61441284D01*
X152567862Y-61457029D01*
X152563584Y-61472665D01*
X152558855Y-61488193D01*
X152553677Y-61503612D01*
X152548048Y-61518922D01*
X152541968Y-61534123D01*
X152535439Y-61549215D01*
X152528459Y-61564199D01*
X152521012Y-61578932D01*
X152513144Y-61593272D01*
X152504854Y-61607218D01*
X152496142Y-61620772D01*
X152487009Y-61633932D01*
X152477454Y-61646700D01*
X152467477Y-61659074D01*
X152457079Y-61671055D01*
X152446259Y-61682644D01*
X152435017Y-61693839D01*
X152423353Y-61704641D01*
X152411268Y-61715050D01*
X152398761Y-61725065D01*
X152385832Y-61734688D01*
X152372482Y-61743918D01*
X152358710Y-61752755D01*
X152344579Y-61761095D01*
X152330214Y-61768897D01*
X152315613Y-61776162D01*
X152300779Y-61782888D01*
X152285709Y-61789076D01*
X152270405Y-61794726D01*
X152254866Y-61799838D01*
X152239092Y-61804412D01*
X152223084Y-61808448D01*
X152206840Y-61811945D01*
X152190363Y-61814905D01*
X152173650Y-61817326D01*
X152156703Y-61819210D01*
X152139521Y-61820555D01*
X152122104Y-61821362D01*
X152104453Y-61821631D01*
X152088128Y-61821387D01*
X152071942Y-61820654D01*
X152055896Y-61819433D01*
X152039988Y-61817723D01*
X152024220Y-61815525D01*
X152008592Y-61812838D01*
X151993102Y-61809663D01*
X151977752Y-61806000D01*
X151962541Y-61801847D01*
X151947470Y-61797207D01*
X151932538Y-61792078D01*
X151917745Y-61786460D01*
X151903091Y-61780354D01*
X151888577Y-61773759D01*
X151874202Y-61766676D01*
X151859966Y-61759105D01*
X151846001Y-61751059D01*
X151832439Y-61742554D01*
X151819280Y-61733588D01*
X151806523Y-61724163D01*
X151794168Y-61714278D01*
X151782217Y-61703933D01*
X151770668Y-61693128D01*
X151759521Y-61681863D01*
X151748777Y-61670138D01*
X151738436Y-61657954D01*
X151728498Y-61645310D01*
X151718962Y-61632205D01*
X151709828Y-61618641D01*
X151701097Y-61604617D01*
X151692769Y-61590134D01*
X151684844Y-61575190D01*
X151677332Y-61559860D01*
X151670304Y-61544278D01*
X151663761Y-61528444D01*
X151657702Y-61512359D01*
X151652129Y-61496021D01*
X151647040Y-61479432D01*
X151642435Y-61462590D01*
X151638316Y-61445497D01*
X151634681Y-61428152D01*
X151631530Y-61410555D01*
X151628865Y-61392706D01*
X151626684Y-61374606D01*
X151624987Y-61356253D01*
X151623776Y-61337649D01*
X151623049Y-61318792D01*
X151622806Y-61299684D01*
X151622818Y-61298707D01*
X151760315Y-61298707D01*
X151760410Y-61310878D01*
X151760695Y-61322874D01*
X151761169Y-61334695D01*
X151761834Y-61346342D01*
X151762688Y-61357814D01*
X151763732Y-61369112D01*
X151764967Y-61380235D01*
X151766390Y-61391184D01*
X151768004Y-61401957D01*
X151769808Y-61412557D01*
X151771801Y-61422981D01*
X151773985Y-61433231D01*
X151776358Y-61443307D01*
X151778921Y-61453208D01*
X151781674Y-61462934D01*
X151784617Y-61472486D01*
X151787750Y-61481863D01*
X151791072Y-61491066D01*
X151798287Y-61508947D01*
X151806261Y-61526130D01*
X151814995Y-61542614D01*
X151824488Y-61558400D01*
X151834740Y-61573488D01*
X151845752Y-61587877D01*
X151857524Y-61601568D01*
X151869883Y-61614493D01*
X151882658Y-61626584D01*
X151895849Y-61637841D01*
X151909456Y-61648264D01*
X151923479Y-61657854D01*
X151937918Y-61666609D01*
X151952773Y-61674531D01*
X151968043Y-61681619D01*
X151983730Y-61687873D01*
X151999833Y-61693293D01*
X152016352Y-61697879D01*
X152033287Y-61701631D01*
X152050638Y-61704550D01*
X152068404Y-61706635D01*
X152086587Y-61707885D01*
X152105186Y-61708302D01*
X152123432Y-61707889D01*
X152141292Y-61706650D01*
X152158764Y-61704584D01*
X152175848Y-61701693D01*
X152192546Y-61697975D01*
X152208855Y-61693430D01*
X152224778Y-61688060D01*
X152240313Y-61681863D01*
X152255461Y-61674840D01*
X152270221Y-61666991D01*
X152284595Y-61658316D01*
X152298580Y-61648814D01*
X152312179Y-61638486D01*
X152325390Y-61627332D01*
X152338214Y-61615352D01*
X152350650Y-61602545D01*
X152362510Y-61589021D01*
X152373605Y-61574889D01*
X152383935Y-61560147D01*
X152393499Y-61544797D01*
X152402299Y-61528838D01*
X152410333Y-61512271D01*
X152417602Y-61495095D01*
X152424106Y-61477310D01*
X152429845Y-61458916D01*
X152432427Y-61449491D01*
X152434818Y-61439914D01*
X152437018Y-61430184D01*
X152439027Y-61420303D01*
X152440844Y-61410269D01*
X152442470Y-61400083D01*
X152443905Y-61389745D01*
X152445148Y-61379255D01*
X152446200Y-61368612D01*
X152447061Y-61357818D01*
X152447730Y-61346871D01*
X152448209Y-61335772D01*
X152448496Y-61324521D01*
X152448591Y-61313117D01*
X152448492Y-61298912D01*
X152448193Y-61284963D01*
X152447696Y-61271270D01*
X152447000Y-61257835D01*
X152446105Y-61244655D01*
X152445011Y-61231733D01*
X152443718Y-61219067D01*
X152442226Y-61206658D01*
X152440535Y-61194506D01*
X152438645Y-61182610D01*
X152436556Y-61170970D01*
X152434269Y-61159588D01*
X152431782Y-61148462D01*
X152429097Y-61137593D01*
X152426212Y-61126980D01*
X152423129Y-61116624D01*
X152419847Y-61106525D01*
X152416366Y-61096682D01*
X152412685Y-61087096D01*
X152408806Y-61077767D01*
X152404728Y-61068694D01*
X152400452Y-61059878D01*
X152391301Y-61043015D01*
X152381355Y-61027180D01*
X152370613Y-61012371D01*
X152359075Y-60998588D01*
X152346742Y-60985832D01*
X152333826Y-60973942D01*
X152320600Y-60962820D01*
X152307066Y-60952464D01*
X152293222Y-60942876D01*
X152279070Y-60934054D01*
X152264608Y-60926000D01*
X152249837Y-60918713D01*
X152234757Y-60912193D01*
X152219367Y-60906440D01*
X152203669Y-60901454D01*
X152187662Y-60897235D01*
X152171345Y-60893783D01*
X152154719Y-60891098D01*
X152137785Y-60889181D01*
X152120541Y-60888030D01*
X152102988Y-60887646D01*
X152090637Y-60887846D01*
X152078437Y-60888444D01*
X152066388Y-60889441D01*
X152054490Y-60890837D01*
X152042743Y-60892631D01*
X152031146Y-60894825D01*
X152019700Y-60897417D01*
X152008405Y-60900408D01*
X151997260Y-60903798D01*
X151986266Y-60907587D01*
X151975423Y-60911774D01*
X151964731Y-60916360D01*
X151954189Y-60921345D01*
X151943799Y-60926729D01*
X151933558Y-60932512D01*
X151923469Y-60938693D01*
X151913606Y-60945207D01*
X151904044Y-60952046D01*
X151894784Y-60959212D01*
X151885825Y-60966705D01*
X151877168Y-60974523D01*
X151868812Y-60982668D01*
X151860758Y-60991140D01*
X151853005Y-60999937D01*
X151845554Y-61009061D01*
X151838404Y-61018511D01*
X151831556Y-61028287D01*
X151825009Y-61038390D01*
X151818763Y-61048819D01*
X151812820Y-61059574D01*
X151807177Y-61070656D01*
X151801836Y-61082064D01*
X151796808Y-61093758D01*
X151792105Y-61105698D01*
X151787725Y-61117884D01*
X151783671Y-61130317D01*
X151779940Y-61142996D01*
X151776534Y-61155920D01*
X151773453Y-61169091D01*
X151770695Y-61182509D01*
X151768262Y-61196172D01*
X151766154Y-61210081D01*
X151764370Y-61224237D01*
X151762910Y-61238639D01*
X151761775Y-61253287D01*
X151760964Y-61268181D01*
X151760477Y-61283321D01*
X151760315Y-61298707D01*
X151622818Y-61298707D01*
X151623036Y-61280820D01*
X151623726Y-61262208D01*
X151624876Y-61243848D01*
X151626485Y-61225740D01*
X151628554Y-61207883D01*
X151631084Y-61190279D01*
X151634073Y-61172926D01*
X151637522Y-61155825D01*
X151641431Y-61138976D01*
X151645799Y-61122379D01*
X151650628Y-61106034D01*
X151655916Y-61089941D01*
X151661665Y-61074099D01*
X151667873Y-61058510D01*
X151674541Y-61043172D01*
X151681669Y-61028086D01*
X151689205Y-61013303D01*
X151697159Y-60998933D01*
X151705531Y-60984978D01*
X151714321Y-60971437D01*
X151723529Y-60958310D01*
X151733154Y-60945597D01*
X151743198Y-60933298D01*
X151753659Y-60921413D01*
X151764539Y-60909942D01*
X151775836Y-60898885D01*
X151787551Y-60888243D01*
X151799684Y-60878014D01*
X151812235Y-60868200D01*
X151825203Y-60858799D01*
X151838590Y-60849813D01*
X151852394Y-60841240D01*
X151866485Y-60833136D01*
X151880792Y-60825555D01*
X151895313Y-60818497D01*
X151910051Y-60811962D01*
X151925004Y-60805949D01*
X151940173Y-60800459D01*
X151955558Y-60795492D01*
X151971158Y-60791048D01*
X151986973Y-60787127D01*
X152003005Y-60783729D01*
X152019251Y-60780853D01*
X152035714Y-60778500D01*
X152052392Y-60776670D01*
X152069286Y-60775363D01*
X152086395Y-60774579D01*
X152103720Y-60774318D01*
X152116955Y-60774457D01*
G37*
G36*
X150994858Y-61806000D02*
G01*
X150994858Y-61698777D01*
X151005751Y-61713654D01*
X151017122Y-61727571D01*
X151028970Y-61740528D01*
X151041295Y-61752526D01*
X151054096Y-61763563D01*
X151067375Y-61773641D01*
X151081131Y-61782759D01*
X151095364Y-61790918D01*
X151110074Y-61798116D01*
X151125261Y-61804355D01*
X151140925Y-61809634D01*
X151157066Y-61813953D01*
X151173684Y-61817312D01*
X151190779Y-61819711D01*
X151208351Y-61821151D01*
X151226400Y-61821631D01*
X151238415Y-61821412D01*
X151250280Y-61820755D01*
X151261994Y-61819660D01*
X151273558Y-61818128D01*
X151284972Y-61816157D01*
X151296235Y-61813748D01*
X151307349Y-61810902D01*
X151318312Y-61807618D01*
X151329124Y-61803895D01*
X151339787Y-61799735D01*
X151346812Y-61796718D01*
X151357048Y-61791936D01*
X151366781Y-61786929D01*
X151376013Y-61781700D01*
X151384742Y-61776248D01*
X151392969Y-61770572D01*
X151403156Y-61762657D01*
X151412451Y-61754345D01*
X151420852Y-61745636D01*
X151428361Y-61736531D01*
X151430099Y-61734192D01*
X151436624Y-61724525D01*
X151442647Y-61714332D01*
X151448165Y-61703612D01*
X151453180Y-61692366D01*
X151457690Y-61680592D01*
X151461698Y-61668292D01*
X151464372Y-61658722D01*
X151466764Y-61648855D01*
X151468200Y-61642113D01*
X151469975Y-61632282D01*
X151471513Y-61621108D01*
X151472814Y-61608590D01*
X151473635Y-61598321D01*
X151474323Y-61587295D01*
X151474877Y-61575514D01*
X151475299Y-61562978D01*
X151475587Y-61549686D01*
X151475742Y-61535638D01*
X151475772Y-61525853D01*
X151475772Y-61071317D01*
X151351941Y-61071317D01*
X151351941Y-61479203D01*
X151351911Y-61491166D01*
X151351823Y-61502631D01*
X151351675Y-61513598D01*
X151351468Y-61524067D01*
X151351201Y-61534038D01*
X151350691Y-61548061D01*
X151350048Y-61560963D01*
X151349272Y-61572744D01*
X151348362Y-61583406D01*
X151346942Y-61595877D01*
X151345286Y-61606357D01*
X151344369Y-61610849D01*
X151341087Y-61622794D01*
X151336981Y-61634083D01*
X151332050Y-61644715D01*
X151326295Y-61654691D01*
X151319716Y-61664010D01*
X151312312Y-61672673D01*
X151304085Y-61680680D01*
X151295032Y-61688030D01*
X151285289Y-61694613D01*
X151274989Y-61700319D01*
X151264132Y-61705146D01*
X151252717Y-61709096D01*
X151240746Y-61712168D01*
X151228217Y-61714363D01*
X151218454Y-61715432D01*
X151208379Y-61716008D01*
X151201487Y-61716118D01*
X151191150Y-61715867D01*
X151180928Y-61715113D01*
X151170822Y-61713858D01*
X151160832Y-61712100D01*
X151150958Y-61709839D01*
X151141200Y-61707076D01*
X151131558Y-61703811D01*
X151122032Y-61700044D01*
X151112622Y-61695774D01*
X151103327Y-61691002D01*
X151097196Y-61687542D01*
X151088288Y-61681955D01*
X151079882Y-61676004D01*
X151071979Y-61669688D01*
X151064578Y-61663007D01*
X151057679Y-61655961D01*
X151051283Y-61648550D01*
X151043536Y-61638101D01*
X151038311Y-61629838D01*
X151033589Y-61621211D01*
X151029370Y-61612218D01*
X151028075Y-61609140D01*
X151024452Y-61599450D01*
X151021186Y-61588975D01*
X151018275Y-61577715D01*
X151015722Y-61565668D01*
X151013524Y-61552836D01*
X151011683Y-61539219D01*
X151010198Y-61524815D01*
X151009406Y-61514776D01*
X151008773Y-61504388D01*
X151008298Y-61493651D01*
X151007981Y-61482565D01*
X151007823Y-61471129D01*
X151007803Y-61465281D01*
X151007803Y-61071317D01*
X150884216Y-61071317D01*
X150884216Y-61806000D01*
X150994858Y-61806000D01*
G37*
G36*
X150424307Y-61692671D02*
G01*
X150406477Y-61806000D01*
X150416178Y-61808793D01*
X150425682Y-61811312D01*
X150438047Y-61814243D01*
X150450061Y-61816685D01*
X150461723Y-61818639D01*
X150473035Y-61820105D01*
X150483995Y-61821081D01*
X150494605Y-61821570D01*
X150499778Y-61821631D01*
X150512151Y-61821442D01*
X150523992Y-61820875D01*
X150535301Y-61819931D01*
X150546077Y-61818609D01*
X150556321Y-61816908D01*
X150566032Y-61814830D01*
X150578153Y-61811472D01*
X150589327Y-61807442D01*
X150599555Y-61802740D01*
X150604314Y-61800138D01*
X150613251Y-61794493D01*
X150621502Y-61788429D01*
X150629066Y-61781945D01*
X150637555Y-61773250D01*
X150644970Y-61763899D01*
X150651313Y-61753892D01*
X150656581Y-61743229D01*
X150660073Y-61733219D01*
X150663100Y-61720774D01*
X150665064Y-61709842D01*
X150666766Y-61697541D01*
X150668207Y-61683871D01*
X150669021Y-61673996D01*
X150669720Y-61663513D01*
X150670302Y-61652421D01*
X150670767Y-61640720D01*
X150671117Y-61628410D01*
X150671349Y-61615492D01*
X150671466Y-61601965D01*
X150671480Y-61594974D01*
X150671480Y-61169014D01*
X150762339Y-61169014D01*
X150762339Y-61071317D01*
X150671480Y-61071317D01*
X150671480Y-60893997D01*
X150548626Y-60821212D01*
X150548626Y-61071317D01*
X150424307Y-61071317D01*
X150424307Y-61169014D01*
X150548626Y-61169014D01*
X150548626Y-61604988D01*
X150548570Y-61614813D01*
X150548322Y-61626851D01*
X150547876Y-61637676D01*
X150547039Y-61649501D01*
X150545891Y-61659429D01*
X150543764Y-61670143D01*
X150542276Y-61674597D01*
X150537367Y-61683618D01*
X150530884Y-61691446D01*
X150522827Y-61698081D01*
X150521027Y-61699265D01*
X150511641Y-61703634D01*
X150501612Y-61706317D01*
X150491534Y-61707738D01*
X150480241Y-61708294D01*
X150478528Y-61708302D01*
X150467446Y-61707325D01*
X150456396Y-61704868D01*
X150445921Y-61701570D01*
X150436482Y-61697983D01*
X150426400Y-61693633D01*
X150424307Y-61692671D01*
G37*
G36*
X149990083Y-61055795D02*
G01*
X150003024Y-61056371D01*
X150015597Y-61057441D01*
X150027800Y-61059004D01*
X150039634Y-61061062D01*
X150051098Y-61063613D01*
X150062194Y-61066657D01*
X150072920Y-61070196D01*
X150083277Y-61074228D01*
X150093264Y-61078754D01*
X150102883Y-61083773D01*
X150109102Y-61087393D01*
X150118279Y-61093231D01*
X150127277Y-61099558D01*
X150136094Y-61106374D01*
X150144731Y-61113680D01*
X150153187Y-61121475D01*
X150161463Y-61129760D01*
X150169559Y-61138534D01*
X150177474Y-61147797D01*
X150185209Y-61157550D01*
X150192764Y-61167793D01*
X150192764Y-61071317D01*
X150305360Y-61071317D01*
X150305360Y-62087367D01*
X150181773Y-62087367D01*
X150181773Y-61729551D01*
X150179787Y-61732026D01*
X150171498Y-61741659D01*
X150162659Y-61750864D01*
X150153271Y-61759641D01*
X150143334Y-61767991D01*
X150135520Y-61773973D01*
X150127397Y-61779715D01*
X150118965Y-61785216D01*
X150110224Y-61790477D01*
X150101173Y-61795497D01*
X150094957Y-61798662D01*
X150085451Y-61803026D01*
X150075726Y-61806931D01*
X150065782Y-61810376D01*
X150055619Y-61813362D01*
X150045237Y-61815889D01*
X150034636Y-61817956D01*
X150023816Y-61819564D01*
X150012777Y-61820712D01*
X150001520Y-61821401D01*
X149990043Y-61821631D01*
X149979511Y-61821444D01*
X149969042Y-61820883D01*
X149958636Y-61819948D01*
X149948293Y-61818639D01*
X149938012Y-61816956D01*
X149927795Y-61814899D01*
X149917641Y-61812468D01*
X149907550Y-61809663D01*
X149897521Y-61806484D01*
X149887556Y-61802931D01*
X149877654Y-61799004D01*
X149867814Y-61794703D01*
X149858038Y-61790028D01*
X149848325Y-61784979D01*
X149838674Y-61779556D01*
X149829087Y-61773759D01*
X149819643Y-61767582D01*
X149810486Y-61761078D01*
X149801615Y-61754248D01*
X149793030Y-61747091D01*
X149784732Y-61739608D01*
X149776720Y-61731799D01*
X149768993Y-61723664D01*
X149761554Y-61715202D01*
X149754400Y-61706414D01*
X149747533Y-61697300D01*
X149740951Y-61687859D01*
X149734656Y-61678093D01*
X149728648Y-61667999D01*
X149722925Y-61657580D01*
X149717489Y-61646834D01*
X149712339Y-61635762D01*
X149707459Y-61624409D01*
X149702893Y-61612880D01*
X149698643Y-61601175D01*
X149694707Y-61589295D01*
X149691087Y-61577239D01*
X149687781Y-61565008D01*
X149684790Y-61552601D01*
X149682114Y-61540019D01*
X149679752Y-61527261D01*
X149677706Y-61514328D01*
X149675974Y-61501219D01*
X149674557Y-61487934D01*
X149673455Y-61474474D01*
X149672668Y-61460839D01*
X149672196Y-61447027D01*
X149672039Y-61433041D01*
X149672042Y-61432796D01*
X149798556Y-61432796D01*
X149798786Y-61450875D01*
X149799476Y-61468353D01*
X149800626Y-61485229D01*
X149802235Y-61501505D01*
X149804305Y-61517179D01*
X149806834Y-61532253D01*
X149809823Y-61546725D01*
X149813272Y-61560596D01*
X149817181Y-61573867D01*
X149821550Y-61586536D01*
X149826378Y-61598604D01*
X149831667Y-61610071D01*
X149837415Y-61620937D01*
X149843623Y-61631202D01*
X149850291Y-61640866D01*
X149857419Y-61649928D01*
X149861106Y-61654241D01*
X149868618Y-61662456D01*
X149876316Y-61670122D01*
X149884198Y-61677242D01*
X149892266Y-61683813D01*
X149900518Y-61689837D01*
X149908956Y-61695314D01*
X149917579Y-61700243D01*
X149926387Y-61704624D01*
X149935380Y-61708457D01*
X149949217Y-61713181D01*
X149958673Y-61715645D01*
X149968314Y-61717562D01*
X149978140Y-61718931D01*
X149988151Y-61719752D01*
X149998347Y-61720026D01*
X150003392Y-61719960D01*
X150013341Y-61719431D01*
X150023103Y-61718374D01*
X150037395Y-61715798D01*
X150051267Y-61712032D01*
X150064718Y-61707076D01*
X150077748Y-61700932D01*
X150090358Y-61693598D01*
X150098530Y-61688048D01*
X150106516Y-61681970D01*
X150114315Y-61675363D01*
X150121926Y-61668227D01*
X150129351Y-61660563D01*
X150136588Y-61652371D01*
X150143480Y-61643626D01*
X150149926Y-61634304D01*
X150155929Y-61624407D01*
X150161486Y-61613933D01*
X150166599Y-61602883D01*
X150171267Y-61591257D01*
X150175491Y-61579054D01*
X150179270Y-61566275D01*
X150182604Y-61552920D01*
X150185494Y-61538989D01*
X150187940Y-61524481D01*
X150189940Y-61509397D01*
X150191496Y-61493737D01*
X150192608Y-61477501D01*
X150193275Y-61460688D01*
X150193497Y-61443299D01*
X150193259Y-61425884D01*
X150192547Y-61408994D01*
X150191359Y-61392629D01*
X150189696Y-61376788D01*
X150187558Y-61361473D01*
X150184945Y-61346682D01*
X150181856Y-61332415D01*
X150178293Y-61318674D01*
X150174254Y-61305457D01*
X150169741Y-61292765D01*
X150164752Y-61280598D01*
X150159288Y-61268955D01*
X150153349Y-61257837D01*
X150146934Y-61247244D01*
X150140045Y-61237176D01*
X150132681Y-61227632D01*
X150125008Y-61218641D01*
X150117194Y-61210230D01*
X150109239Y-61202399D01*
X150101143Y-61195148D01*
X150092905Y-61188477D01*
X150084527Y-61182386D01*
X150076007Y-61176876D01*
X150067346Y-61171945D01*
X150058543Y-61167594D01*
X150045075Y-61162156D01*
X150031289Y-61158023D01*
X150017186Y-61155195D01*
X150002764Y-61153673D01*
X149992974Y-61153383D01*
X149988004Y-61153451D01*
X149978198Y-61153997D01*
X149963822Y-61155838D01*
X149949845Y-61158908D01*
X149936267Y-61163206D01*
X149923089Y-61168731D01*
X149910310Y-61175485D01*
X149902012Y-61180669D01*
X149893892Y-61186399D01*
X149885950Y-61192675D01*
X149878184Y-61199497D01*
X149870597Y-61206864D01*
X149863186Y-61214777D01*
X149855953Y-61223236D01*
X149849003Y-61232212D01*
X149842501Y-61241737D01*
X149836447Y-61251812D01*
X149830842Y-61262437D01*
X149825685Y-61273611D01*
X149820977Y-61285335D01*
X149816717Y-61297608D01*
X149812906Y-61310431D01*
X149809543Y-61323803D01*
X149806628Y-61337725D01*
X149804162Y-61352196D01*
X149802144Y-61367217D01*
X149800574Y-61382788D01*
X149799453Y-61398908D01*
X149798781Y-61415577D01*
X149798556Y-61432796D01*
X149672042Y-61432796D01*
X149672181Y-61420009D01*
X149672607Y-61407109D01*
X149673318Y-61394341D01*
X149674313Y-61381704D01*
X149675593Y-61369199D01*
X149677156Y-61356825D01*
X149679004Y-61344584D01*
X149681137Y-61332474D01*
X149683553Y-61320495D01*
X149686254Y-61308649D01*
X149689240Y-61296933D01*
X149692509Y-61285350D01*
X149696063Y-61273898D01*
X149699901Y-61262578D01*
X149704024Y-61251390D01*
X149708431Y-61240333D01*
X149713117Y-61229497D01*
X149718078Y-61218969D01*
X149723314Y-61208751D01*
X149728825Y-61198842D01*
X149734611Y-61189242D01*
X149740671Y-61179952D01*
X149747006Y-61170970D01*
X149753616Y-61162297D01*
X149760500Y-61153934D01*
X149767660Y-61145880D01*
X149775094Y-61138135D01*
X149782803Y-61130699D01*
X149790786Y-61123572D01*
X149799045Y-61116754D01*
X149807578Y-61110245D01*
X149816386Y-61104046D01*
X149825388Y-61098189D01*
X149834563Y-61092711D01*
X149843912Y-61087611D01*
X149853435Y-61082888D01*
X149863131Y-61078543D01*
X149873001Y-61074576D01*
X149883044Y-61070987D01*
X149893262Y-61067775D01*
X149903652Y-61064942D01*
X149914217Y-61062486D01*
X149924955Y-61060408D01*
X149935867Y-61058708D01*
X149946952Y-61057386D01*
X149958211Y-61056441D01*
X149969644Y-61055874D01*
X149981250Y-61055685D01*
X149990083Y-61055795D01*
G37*
G36*
X149048731Y-61806000D02*
G01*
X149048731Y-61698777D01*
X149059624Y-61713654D01*
X149070995Y-61727571D01*
X149082843Y-61740528D01*
X149095168Y-61752526D01*
X149107969Y-61763563D01*
X149121248Y-61773641D01*
X149135004Y-61782759D01*
X149149237Y-61790918D01*
X149163947Y-61798116D01*
X149179134Y-61804355D01*
X149194798Y-61809634D01*
X149210939Y-61813953D01*
X149227557Y-61817312D01*
X149244652Y-61819711D01*
X149262224Y-61821151D01*
X149280273Y-61821631D01*
X149292288Y-61821412D01*
X149304153Y-61820755D01*
X149315867Y-61819660D01*
X149327431Y-61818128D01*
X149338845Y-61816157D01*
X149350108Y-61813748D01*
X149361222Y-61810902D01*
X149372185Y-61807618D01*
X149382997Y-61803895D01*
X149393660Y-61799735D01*
X149400685Y-61796718D01*
X149410921Y-61791936D01*
X149420654Y-61786929D01*
X149429886Y-61781700D01*
X149438615Y-61776248D01*
X149446842Y-61770572D01*
X149457029Y-61762657D01*
X149466324Y-61754345D01*
X149474725Y-61745636D01*
X149482234Y-61736531D01*
X149483972Y-61734192D01*
X149490497Y-61724525D01*
X149496520Y-61714332D01*
X149502038Y-61703612D01*
X149507053Y-61692366D01*
X149511563Y-61680592D01*
X149515571Y-61668292D01*
X149518245Y-61658722D01*
X149520637Y-61648855D01*
X149522073Y-61642113D01*
X149523848Y-61632282D01*
X149525386Y-61621108D01*
X149526687Y-61608590D01*
X149527508Y-61598321D01*
X149528196Y-61587295D01*
X149528750Y-61575514D01*
X149529172Y-61562978D01*
X149529460Y-61549686D01*
X149529615Y-61535638D01*
X149529645Y-61525853D01*
X149529645Y-61071317D01*
X149405814Y-61071317D01*
X149405814Y-61479203D01*
X149405784Y-61491166D01*
X149405696Y-61502631D01*
X149405548Y-61513598D01*
X149405341Y-61524067D01*
X149405074Y-61534038D01*
X149404564Y-61548061D01*
X149403921Y-61560963D01*
X149403145Y-61572744D01*
X149402235Y-61583406D01*
X149400815Y-61595877D01*
X149399159Y-61606357D01*
X149398242Y-61610849D01*
X149394960Y-61622794D01*
X149390854Y-61634083D01*
X149385923Y-61644715D01*
X149380168Y-61654691D01*
X149373589Y-61664010D01*
X149366185Y-61672673D01*
X149357958Y-61680680D01*
X149348905Y-61688030D01*
X149339162Y-61694613D01*
X149328862Y-61700319D01*
X149318005Y-61705146D01*
X149306590Y-61709096D01*
X149294619Y-61712168D01*
X149282090Y-61714363D01*
X149272327Y-61715432D01*
X149262252Y-61716008D01*
X149255360Y-61716118D01*
X149245023Y-61715867D01*
X149234801Y-61715113D01*
X149224695Y-61713858D01*
X149214705Y-61712100D01*
X149204831Y-61709839D01*
X149195073Y-61707076D01*
X149185431Y-61703811D01*
X149175905Y-61700044D01*
X149166495Y-61695774D01*
X149157200Y-61691002D01*
X149151069Y-61687542D01*
X149142161Y-61681955D01*
X149133755Y-61676004D01*
X149125852Y-61669688D01*
X149118451Y-61663007D01*
X149111552Y-61655961D01*
X149105156Y-61648550D01*
X149097409Y-61638101D01*
X149092184Y-61629838D01*
X149087462Y-61621211D01*
X149083243Y-61612218D01*
X149081948Y-61609140D01*
X149078325Y-61599450D01*
X149075058Y-61588975D01*
X149072148Y-61577715D01*
X149069595Y-61565668D01*
X149067397Y-61552836D01*
X149065556Y-61539219D01*
X149064071Y-61524815D01*
X149063279Y-61514776D01*
X149062646Y-61504388D01*
X149062171Y-61493651D01*
X149061854Y-61482565D01*
X149061696Y-61471129D01*
X149061676Y-61465281D01*
X149061676Y-61071317D01*
X148938089Y-61071317D01*
X148938089Y-61806000D01*
X149048731Y-61806000D01*
G37*
G36*
X148478180Y-61692671D02*
G01*
X148460350Y-61806000D01*
X148470051Y-61808793D01*
X148479555Y-61811312D01*
X148491920Y-61814243D01*
X148503934Y-61816685D01*
X148515596Y-61818639D01*
X148526908Y-61820105D01*
X148537868Y-61821081D01*
X148548478Y-61821570D01*
X148553651Y-61821631D01*
X148566024Y-61821442D01*
X148577865Y-61820875D01*
X148589174Y-61819931D01*
X148599950Y-61818609D01*
X148610194Y-61816908D01*
X148619905Y-61814830D01*
X148632026Y-61811472D01*
X148643200Y-61807442D01*
X148653428Y-61802740D01*
X148658187Y-61800138D01*
X148667124Y-61794493D01*
X148675375Y-61788429D01*
X148682939Y-61781945D01*
X148691428Y-61773250D01*
X148698843Y-61763899D01*
X148705186Y-61753892D01*
X148710454Y-61743229D01*
X148713946Y-61733219D01*
X148716973Y-61720774D01*
X148718937Y-61709842D01*
X148720639Y-61697541D01*
X148722080Y-61683871D01*
X148722894Y-61673996D01*
X148723593Y-61663513D01*
X148724175Y-61652421D01*
X148724640Y-61640720D01*
X148724990Y-61628410D01*
X148725222Y-61615492D01*
X148725339Y-61601965D01*
X148725353Y-61594974D01*
X148725353Y-61169014D01*
X148816212Y-61169014D01*
X148816212Y-61071317D01*
X148725353Y-61071317D01*
X148725353Y-60893997D01*
X148602499Y-60821212D01*
X148602499Y-61071317D01*
X148478180Y-61071317D01*
X148478180Y-61169014D01*
X148602499Y-61169014D01*
X148602499Y-61604988D01*
X148602443Y-61614813D01*
X148602195Y-61626851D01*
X148601749Y-61637676D01*
X148600912Y-61649501D01*
X148599764Y-61659429D01*
X148597637Y-61670143D01*
X148596149Y-61674597D01*
X148591240Y-61683618D01*
X148584757Y-61691446D01*
X148576700Y-61698081D01*
X148574900Y-61699265D01*
X148565514Y-61703634D01*
X148555485Y-61706317D01*
X148545407Y-61707738D01*
X148534114Y-61708294D01*
X148532401Y-61708302D01*
X148521319Y-61707325D01*
X148510269Y-61704868D01*
X148499794Y-61701570D01*
X148490355Y-61697983D01*
X148480273Y-61693633D01*
X148478180Y-61692671D01*
G37*
G36*
X148004104Y-61541240D02*
G01*
X147880517Y-61524632D01*
X147877745Y-61537381D01*
X147874739Y-61549678D01*
X147871501Y-61561523D01*
X147868030Y-61572915D01*
X147864327Y-61583856D01*
X147860390Y-61594344D01*
X147856221Y-61604380D01*
X147851819Y-61613964D01*
X147847184Y-61623095D01*
X147842316Y-61631774D01*
X147834578Y-61643945D01*
X147826316Y-61655098D01*
X147817531Y-61665234D01*
X147808221Y-61674353D01*
X147798409Y-61682515D01*
X147788206Y-61689874D01*
X147777612Y-61696431D01*
X147766628Y-61702185D01*
X147755252Y-61707136D01*
X147743487Y-61711284D01*
X147731330Y-61714629D01*
X147718783Y-61717171D01*
X147705845Y-61718911D01*
X147692516Y-61719848D01*
X147683413Y-61720026D01*
X147672590Y-61719789D01*
X147661981Y-61719080D01*
X147651585Y-61717897D01*
X147641404Y-61716240D01*
X147631435Y-61714111D01*
X147621681Y-61711508D01*
X147612140Y-61708432D01*
X147602813Y-61704883D01*
X147593700Y-61700861D01*
X147584800Y-61696365D01*
X147576114Y-61691396D01*
X147567642Y-61685954D01*
X147559384Y-61680039D01*
X147551339Y-61673650D01*
X147543508Y-61666789D01*
X147535891Y-61659454D01*
X147528615Y-61651770D01*
X147521809Y-61643860D01*
X147515472Y-61635726D01*
X147509604Y-61627366D01*
X147504206Y-61618782D01*
X147499277Y-61609972D01*
X147494818Y-61600937D01*
X147490828Y-61591676D01*
X147487307Y-61582191D01*
X147484256Y-61572480D01*
X147481674Y-61562545D01*
X147479562Y-61552384D01*
X147477919Y-61541998D01*
X147476746Y-61531387D01*
X147476042Y-61520550D01*
X147475807Y-61509489D01*
X147476024Y-61498951D01*
X147476677Y-61488648D01*
X147477765Y-61478580D01*
X147479287Y-61468746D01*
X147481245Y-61459147D01*
X147484997Y-61445189D01*
X147489729Y-61431758D01*
X147495439Y-61418856D01*
X147502128Y-61406482D01*
X147509796Y-61394636D01*
X147518443Y-61383318D01*
X147528068Y-61372528D01*
X147531494Y-61369049D01*
X147542200Y-61359141D01*
X147553433Y-61350207D01*
X147565195Y-61342248D01*
X147577484Y-61335263D01*
X147590302Y-61329253D01*
X147603648Y-61324218D01*
X147617522Y-61320157D01*
X147627065Y-61317992D01*
X147636842Y-61316259D01*
X147646854Y-61314960D01*
X147657101Y-61314093D01*
X147667582Y-61313660D01*
X147672911Y-61313606D01*
X147684319Y-61313940D01*
X147696562Y-61314942D01*
X147706958Y-61316224D01*
X147717888Y-61317934D01*
X147729352Y-61320071D01*
X147741350Y-61322635D01*
X147753883Y-61325627D01*
X147760350Y-61327284D01*
X147746428Y-61210780D01*
X147736631Y-61211614D01*
X147726644Y-61212001D01*
X147716815Y-61211843D01*
X147702308Y-61211011D01*
X147688084Y-61209467D01*
X147674144Y-61207210D01*
X147660487Y-61204240D01*
X147647113Y-61200558D01*
X147634023Y-61196163D01*
X147621216Y-61191056D01*
X147608692Y-61185235D01*
X147596452Y-61178702D01*
X147584495Y-61171457D01*
X147573190Y-61163468D01*
X147562997Y-61154707D01*
X147553916Y-61145173D01*
X147545947Y-61134866D01*
X147539089Y-61123786D01*
X147533344Y-61111934D01*
X147528711Y-61099309D01*
X147525190Y-61085911D01*
X147522780Y-61071740D01*
X147521792Y-61061863D01*
X147521298Y-61051643D01*
X147521236Y-61046404D01*
X147521642Y-61034058D01*
X147522859Y-61022115D01*
X147524888Y-61010576D01*
X147527728Y-60999441D01*
X147531379Y-60988709D01*
X147535842Y-60978381D01*
X147541116Y-60968456D01*
X147547202Y-60958935D01*
X147554099Y-60949817D01*
X147561808Y-60941103D01*
X147567398Y-60935518D01*
X147576244Y-60927661D01*
X147585562Y-60920577D01*
X147595352Y-60914266D01*
X147605614Y-60908728D01*
X147616349Y-60903962D01*
X147627556Y-60899969D01*
X147639235Y-60896749D01*
X147651387Y-60894302D01*
X147664011Y-60892628D01*
X147677107Y-60891726D01*
X147686100Y-60891554D01*
X147699399Y-60891949D01*
X147712278Y-60893134D01*
X147724736Y-60895109D01*
X147736773Y-60897874D01*
X147748389Y-60901429D01*
X147759585Y-60905774D01*
X147770359Y-60910909D01*
X147780714Y-60916833D01*
X147790647Y-60923548D01*
X147800159Y-60931053D01*
X147806267Y-60936495D01*
X147814987Y-60945316D01*
X147823100Y-60954928D01*
X147830609Y-60965329D01*
X147837511Y-60976520D01*
X147843809Y-60988502D01*
X147849501Y-61001273D01*
X147854588Y-61014834D01*
X147857643Y-61024314D01*
X147860429Y-61034144D01*
X147862946Y-61044326D01*
X147865194Y-61054859D01*
X147867172Y-61065743D01*
X147868061Y-61071317D01*
X147991648Y-61049335D01*
X147988613Y-61034104D01*
X147985126Y-61019309D01*
X147981186Y-61004948D01*
X147976795Y-60991022D01*
X147971951Y-60977532D01*
X147966655Y-60964476D01*
X147960907Y-60951856D01*
X147954706Y-60939670D01*
X147948053Y-60927920D01*
X147940948Y-60916604D01*
X147933391Y-60905724D01*
X147925382Y-60895279D01*
X147916920Y-60885269D01*
X147908006Y-60875694D01*
X147898640Y-60866554D01*
X147888822Y-60857849D01*
X147878623Y-60849627D01*
X147868118Y-60841935D01*
X147857306Y-60834774D01*
X147846186Y-60828143D01*
X147834759Y-60822042D01*
X147823025Y-60816473D01*
X147810983Y-60811433D01*
X147798635Y-60806924D01*
X147785979Y-60802946D01*
X147773016Y-60799498D01*
X147759746Y-60796580D01*
X147746168Y-60794193D01*
X147732284Y-60792336D01*
X147718092Y-60791010D01*
X147703593Y-60790214D01*
X147688787Y-60789949D01*
X147678548Y-60790087D01*
X147668411Y-60790499D01*
X147658376Y-60791186D01*
X147648441Y-60792147D01*
X147638607Y-60793384D01*
X147628875Y-60794895D01*
X147619243Y-60796681D01*
X147604986Y-60799875D01*
X147590956Y-60803688D01*
X147577154Y-60808119D01*
X147563579Y-60813168D01*
X147550232Y-60818835D01*
X147537112Y-60825120D01*
X147524394Y-60831942D01*
X147512251Y-60839220D01*
X147500683Y-60846952D01*
X147489691Y-60855139D01*
X147479274Y-60863782D01*
X147469432Y-60872879D01*
X147460165Y-60882432D01*
X147451474Y-60892440D01*
X147443358Y-60902903D01*
X147435818Y-60913820D01*
X147431110Y-60921352D01*
X147424519Y-60932822D01*
X147418577Y-60944424D01*
X147413282Y-60956160D01*
X147408636Y-60968029D01*
X147404638Y-60980031D01*
X147401289Y-60992166D01*
X147398588Y-61004434D01*
X147396535Y-61016836D01*
X147395130Y-61029370D01*
X147394374Y-61042037D01*
X147394230Y-61050556D01*
X147394537Y-61062637D01*
X147395458Y-61074516D01*
X147396993Y-61086193D01*
X147399141Y-61097669D01*
X147401904Y-61108942D01*
X147405281Y-61120014D01*
X147409271Y-61130884D01*
X147413876Y-61141552D01*
X147419095Y-61152019D01*
X147424927Y-61162283D01*
X147429157Y-61169014D01*
X147436004Y-61178807D01*
X147443448Y-61188217D01*
X147451488Y-61197245D01*
X147460126Y-61205891D01*
X147469360Y-61214155D01*
X147479191Y-61222037D01*
X147489619Y-61229537D01*
X147500643Y-61236654D01*
X147512265Y-61243390D01*
X147524483Y-61249743D01*
X147532960Y-61253766D01*
X147521942Y-61256536D01*
X147511237Y-61259655D01*
X147500846Y-61263123D01*
X147490767Y-61266940D01*
X147481001Y-61271107D01*
X147471548Y-61275622D01*
X147462408Y-61280487D01*
X147453581Y-61285701D01*
X147445067Y-61291264D01*
X147436865Y-61297177D01*
X147428977Y-61303438D01*
X147421402Y-61310049D01*
X147414139Y-61317009D01*
X147407190Y-61324318D01*
X147400553Y-61331977D01*
X147394230Y-61339984D01*
X147388226Y-61348295D01*
X147382609Y-61356864D01*
X147377380Y-61365690D01*
X147372538Y-61374773D01*
X147368083Y-61384115D01*
X147364016Y-61393714D01*
X147360336Y-61403570D01*
X147357044Y-61413684D01*
X147354139Y-61424056D01*
X147351621Y-61434685D01*
X147349490Y-61445572D01*
X147347747Y-61456717D01*
X147346392Y-61468119D01*
X147345423Y-61479779D01*
X147344842Y-61491696D01*
X147344648Y-61503871D01*
X147345024Y-61520322D01*
X147346152Y-61536458D01*
X147348032Y-61552280D01*
X147350663Y-61567786D01*
X147354046Y-61582978D01*
X147358181Y-61597855D01*
X147363068Y-61612417D01*
X147368706Y-61626664D01*
X147375097Y-61640597D01*
X147382239Y-61654214D01*
X147390133Y-61667517D01*
X147398779Y-61680504D01*
X147408176Y-61693177D01*
X147418326Y-61705536D01*
X147429227Y-61717579D01*
X147440880Y-61729307D01*
X147453107Y-61740487D01*
X147465728Y-61750946D01*
X147478744Y-61760683D01*
X147492156Y-61769699D01*
X147505962Y-61777994D01*
X147520164Y-61785567D01*
X147534760Y-61792419D01*
X147549751Y-61798550D01*
X147565138Y-61803960D01*
X147580919Y-61808648D01*
X147597095Y-61812615D01*
X147613667Y-61815861D01*
X147630633Y-61818385D01*
X147647994Y-61820188D01*
X147665751Y-61821270D01*
X147683902Y-61821631D01*
X147700304Y-61821327D01*
X147716356Y-61820414D01*
X147732056Y-61818892D01*
X147747405Y-61816761D01*
X147762403Y-61814022D01*
X147777050Y-61810674D01*
X147791346Y-61806718D01*
X147805290Y-61802153D01*
X147818884Y-61796979D01*
X147832127Y-61791196D01*
X147845018Y-61784805D01*
X147857558Y-61777805D01*
X147869748Y-61770196D01*
X147881586Y-61761979D01*
X147893073Y-61753152D01*
X147904209Y-61743718D01*
X147914846Y-61733768D01*
X147924897Y-61723457D01*
X147934362Y-61712786D01*
X147943242Y-61701754D01*
X147951536Y-61690361D01*
X147959244Y-61678608D01*
X147966366Y-61666494D01*
X147972902Y-61654019D01*
X147978853Y-61641184D01*
X147984217Y-61627988D01*
X147988996Y-61614432D01*
X147993190Y-61600515D01*
X147996797Y-61586237D01*
X147999818Y-61571599D01*
X148002254Y-61556600D01*
X148004104Y-61541240D01*
G37*
G36*
X167864955Y-60774457D02*
G01*
X167878038Y-60774875D01*
X167890967Y-60775571D01*
X167903744Y-60776546D01*
X167916368Y-60777800D01*
X167928840Y-60779332D01*
X167941159Y-60781143D01*
X167953325Y-60783233D01*
X167965339Y-60785601D01*
X167977200Y-60788247D01*
X167988909Y-60791172D01*
X168000464Y-60794376D01*
X168011867Y-60797859D01*
X168023118Y-60801619D01*
X168034216Y-60805659D01*
X168045161Y-60809977D01*
X168055953Y-60814574D01*
X168066593Y-60819449D01*
X168077080Y-60824603D01*
X168087415Y-60830036D01*
X168097597Y-60835747D01*
X168107626Y-60841736D01*
X168117502Y-60848005D01*
X168127226Y-60854551D01*
X168136798Y-60861377D01*
X168146216Y-60868481D01*
X168155482Y-60875864D01*
X168164595Y-60883525D01*
X168173556Y-60891465D01*
X168182364Y-60899683D01*
X168191019Y-60908180D01*
X168199522Y-60916956D01*
X168207802Y-60925962D01*
X168215819Y-60935183D01*
X168223573Y-60944618D01*
X168231064Y-60954267D01*
X168238292Y-60964131D01*
X168245258Y-60974209D01*
X168251960Y-60984500D01*
X168258400Y-60995006D01*
X168264577Y-61005727D01*
X168270491Y-61016661D01*
X168276142Y-61027810D01*
X168281531Y-61039172D01*
X168286656Y-61050749D01*
X168291519Y-61062540D01*
X168296119Y-61074546D01*
X168300456Y-61086765D01*
X168304530Y-61099199D01*
X168308341Y-61111847D01*
X168311889Y-61124709D01*
X168315175Y-61137785D01*
X168318198Y-61151076D01*
X168320958Y-61164581D01*
X168323455Y-61178299D01*
X168325689Y-61192232D01*
X168327660Y-61206380D01*
X168329369Y-61220741D01*
X168330814Y-61235317D01*
X168331997Y-61250107D01*
X168332917Y-61265111D01*
X168333574Y-61280329D01*
X168333969Y-61295761D01*
X168334100Y-61311408D01*
X168333875Y-61328023D01*
X168333199Y-61344529D01*
X168332074Y-61360927D01*
X168330497Y-61377216D01*
X168328471Y-61393396D01*
X168325994Y-61409467D01*
X168323067Y-61425430D01*
X168319690Y-61441284D01*
X168315862Y-61457029D01*
X168311584Y-61472665D01*
X168306855Y-61488193D01*
X168301677Y-61503612D01*
X168296048Y-61518922D01*
X168289968Y-61534123D01*
X168283439Y-61549215D01*
X168276459Y-61564199D01*
X168269012Y-61578932D01*
X168261144Y-61593272D01*
X168252854Y-61607218D01*
X168244142Y-61620772D01*
X168235009Y-61633932D01*
X168225454Y-61646700D01*
X168215477Y-61659074D01*
X168205079Y-61671055D01*
X168194259Y-61682644D01*
X168183017Y-61693839D01*
X168171353Y-61704641D01*
X168159268Y-61715050D01*
X168146761Y-61725065D01*
X168133832Y-61734688D01*
X168120482Y-61743918D01*
X168106710Y-61752755D01*
X168092579Y-61761095D01*
X168078214Y-61768897D01*
X168063613Y-61776162D01*
X168048779Y-61782888D01*
X168033709Y-61789076D01*
X168018405Y-61794726D01*
X168002866Y-61799838D01*
X167987092Y-61804412D01*
X167971084Y-61808448D01*
X167954840Y-61811945D01*
X167938363Y-61814905D01*
X167921650Y-61817326D01*
X167904703Y-61819210D01*
X167887521Y-61820555D01*
X167870104Y-61821362D01*
X167852453Y-61821631D01*
X167836128Y-61821387D01*
X167819942Y-61820654D01*
X167803896Y-61819433D01*
X167787988Y-61817723D01*
X167772220Y-61815525D01*
X167756592Y-61812838D01*
X167741102Y-61809663D01*
X167725752Y-61806000D01*
X167710541Y-61801847D01*
X167695470Y-61797207D01*
X167680538Y-61792078D01*
X167665745Y-61786460D01*
X167651091Y-61780354D01*
X167636577Y-61773759D01*
X167622202Y-61766676D01*
X167607966Y-61759105D01*
X167594001Y-61751059D01*
X167580439Y-61742554D01*
X167567280Y-61733588D01*
X167554523Y-61724163D01*
X167542168Y-61714278D01*
X167530217Y-61703933D01*
X167518668Y-61693128D01*
X167507521Y-61681863D01*
X167496777Y-61670138D01*
X167486436Y-61657954D01*
X167476498Y-61645310D01*
X167466962Y-61632205D01*
X167457828Y-61618641D01*
X167449097Y-61604617D01*
X167440769Y-61590134D01*
X167432844Y-61575190D01*
X167425332Y-61559860D01*
X167418304Y-61544278D01*
X167411761Y-61528444D01*
X167405702Y-61512359D01*
X167400129Y-61496021D01*
X167395040Y-61479432D01*
X167390435Y-61462590D01*
X167386316Y-61445497D01*
X167382681Y-61428152D01*
X167379530Y-61410555D01*
X167376865Y-61392706D01*
X167374684Y-61374606D01*
X167372987Y-61356253D01*
X167371776Y-61337649D01*
X167371049Y-61318792D01*
X167370806Y-61299684D01*
X167370818Y-61298707D01*
X167508315Y-61298707D01*
X167508410Y-61310878D01*
X167508695Y-61322874D01*
X167509169Y-61334695D01*
X167509834Y-61346342D01*
X167510688Y-61357814D01*
X167511732Y-61369112D01*
X167512967Y-61380235D01*
X167514390Y-61391184D01*
X167516004Y-61401957D01*
X167517808Y-61412557D01*
X167519801Y-61422981D01*
X167521985Y-61433231D01*
X167524358Y-61443307D01*
X167526921Y-61453208D01*
X167529674Y-61462934D01*
X167532617Y-61472486D01*
X167535750Y-61481863D01*
X167539072Y-61491066D01*
X167546287Y-61508947D01*
X167554261Y-61526130D01*
X167562995Y-61542614D01*
X167572488Y-61558400D01*
X167582740Y-61573488D01*
X167593752Y-61587877D01*
X167605524Y-61601568D01*
X167617883Y-61614493D01*
X167630658Y-61626584D01*
X167643849Y-61637841D01*
X167657456Y-61648264D01*
X167671479Y-61657854D01*
X167685918Y-61666609D01*
X167700773Y-61674531D01*
X167716043Y-61681619D01*
X167731730Y-61687873D01*
X167747833Y-61693293D01*
X167764352Y-61697879D01*
X167781287Y-61701631D01*
X167798638Y-61704550D01*
X167816404Y-61706635D01*
X167834587Y-61707885D01*
X167853186Y-61708302D01*
X167871432Y-61707889D01*
X167889292Y-61706650D01*
X167906764Y-61704584D01*
X167923848Y-61701693D01*
X167940546Y-61697975D01*
X167956855Y-61693430D01*
X167972778Y-61688060D01*
X167988313Y-61681863D01*
X168003461Y-61674840D01*
X168018221Y-61666991D01*
X168032595Y-61658316D01*
X168046580Y-61648814D01*
X168060179Y-61638486D01*
X168073390Y-61627332D01*
X168086214Y-61615352D01*
X168098650Y-61602545D01*
X168110510Y-61589021D01*
X168121605Y-61574889D01*
X168131935Y-61560147D01*
X168141499Y-61544797D01*
X168150299Y-61528838D01*
X168158333Y-61512271D01*
X168165602Y-61495095D01*
X168172106Y-61477310D01*
X168177845Y-61458916D01*
X168180427Y-61449491D01*
X168182818Y-61439914D01*
X168185018Y-61430184D01*
X168187027Y-61420303D01*
X168188844Y-61410269D01*
X168190470Y-61400083D01*
X168191905Y-61389745D01*
X168193148Y-61379255D01*
X168194200Y-61368612D01*
X168195061Y-61357818D01*
X168195730Y-61346871D01*
X168196209Y-61335772D01*
X168196496Y-61324521D01*
X168196591Y-61313117D01*
X168196492Y-61298912D01*
X168196193Y-61284963D01*
X168195696Y-61271270D01*
X168195000Y-61257835D01*
X168194105Y-61244655D01*
X168193011Y-61231733D01*
X168191718Y-61219067D01*
X168190226Y-61206658D01*
X168188535Y-61194506D01*
X168186645Y-61182610D01*
X168184556Y-61170970D01*
X168182269Y-61159588D01*
X168179782Y-61148462D01*
X168177097Y-61137593D01*
X168174212Y-61126980D01*
X168171129Y-61116624D01*
X168167847Y-61106525D01*
X168164366Y-61096682D01*
X168160685Y-61087096D01*
X168156806Y-61077767D01*
X168152728Y-61068694D01*
X168148452Y-61059878D01*
X168139301Y-61043015D01*
X168129355Y-61027180D01*
X168118613Y-61012371D01*
X168107075Y-60998588D01*
X168094742Y-60985832D01*
X168081826Y-60973942D01*
X168068600Y-60962820D01*
X168055066Y-60952464D01*
X168041222Y-60942876D01*
X168027070Y-60934054D01*
X168012608Y-60926000D01*
X167997837Y-60918713D01*
X167982757Y-60912193D01*
X167967367Y-60906440D01*
X167951669Y-60901454D01*
X167935662Y-60897235D01*
X167919345Y-60893783D01*
X167902719Y-60891098D01*
X167885785Y-60889181D01*
X167868541Y-60888030D01*
X167850988Y-60887646D01*
X167838637Y-60887846D01*
X167826437Y-60888444D01*
X167814388Y-60889441D01*
X167802490Y-60890837D01*
X167790743Y-60892631D01*
X167779146Y-60894825D01*
X167767700Y-60897417D01*
X167756405Y-60900408D01*
X167745260Y-60903798D01*
X167734266Y-60907587D01*
X167723423Y-60911774D01*
X167712731Y-60916360D01*
X167702189Y-60921345D01*
X167691799Y-60926729D01*
X167681558Y-60932512D01*
X167671469Y-60938693D01*
X167661606Y-60945207D01*
X167652044Y-60952046D01*
X167642784Y-60959212D01*
X167633825Y-60966705D01*
X167625168Y-60974523D01*
X167616812Y-60982668D01*
X167608758Y-60991140D01*
X167601005Y-60999937D01*
X167593554Y-61009061D01*
X167586404Y-61018511D01*
X167579556Y-61028287D01*
X167573009Y-61038390D01*
X167566763Y-61048819D01*
X167560820Y-61059574D01*
X167555177Y-61070656D01*
X167549836Y-61082064D01*
X167544808Y-61093758D01*
X167540105Y-61105698D01*
X167535725Y-61117884D01*
X167531671Y-61130317D01*
X167527940Y-61142996D01*
X167524534Y-61155920D01*
X167521453Y-61169091D01*
X167518695Y-61182509D01*
X167516262Y-61196172D01*
X167514154Y-61210081D01*
X167512370Y-61224237D01*
X167510910Y-61238639D01*
X167509775Y-61253287D01*
X167508964Y-61268181D01*
X167508477Y-61283321D01*
X167508315Y-61298707D01*
X167370818Y-61298707D01*
X167371036Y-61280820D01*
X167371726Y-61262208D01*
X167372876Y-61243848D01*
X167374485Y-61225740D01*
X167376554Y-61207883D01*
X167379084Y-61190279D01*
X167382073Y-61172926D01*
X167385522Y-61155825D01*
X167389431Y-61138976D01*
X167393799Y-61122379D01*
X167398628Y-61106034D01*
X167403916Y-61089941D01*
X167409665Y-61074099D01*
X167415873Y-61058510D01*
X167422541Y-61043172D01*
X167429669Y-61028086D01*
X167437205Y-61013303D01*
X167445159Y-60998933D01*
X167453531Y-60984978D01*
X167462321Y-60971437D01*
X167471529Y-60958310D01*
X167481154Y-60945597D01*
X167491198Y-60933298D01*
X167501659Y-60921413D01*
X167512539Y-60909942D01*
X167523836Y-60898885D01*
X167535551Y-60888243D01*
X167547684Y-60878014D01*
X167560235Y-60868200D01*
X167573203Y-60858799D01*
X167586590Y-60849813D01*
X167600394Y-60841240D01*
X167614485Y-60833136D01*
X167628792Y-60825555D01*
X167643313Y-60818497D01*
X167658051Y-60811962D01*
X167673004Y-60805949D01*
X167688173Y-60800459D01*
X167703558Y-60795492D01*
X167719158Y-60791048D01*
X167734973Y-60787127D01*
X167751005Y-60783729D01*
X167767251Y-60780853D01*
X167783714Y-60778500D01*
X167800392Y-60776670D01*
X167817286Y-60775363D01*
X167834395Y-60774579D01*
X167851720Y-60774318D01*
X167864955Y-60774457D01*
G37*
G36*
X166742858Y-61806000D02*
G01*
X166742858Y-61698777D01*
X166753751Y-61713654D01*
X166765122Y-61727571D01*
X166776970Y-61740528D01*
X166789295Y-61752526D01*
X166802096Y-61763563D01*
X166815375Y-61773641D01*
X166829131Y-61782759D01*
X166843364Y-61790918D01*
X166858074Y-61798116D01*
X166873261Y-61804355D01*
X166888925Y-61809634D01*
X166905066Y-61813953D01*
X166921684Y-61817312D01*
X166938779Y-61819711D01*
X166956351Y-61821151D01*
X166974400Y-61821631D01*
X166986415Y-61821412D01*
X166998280Y-61820755D01*
X167009994Y-61819660D01*
X167021558Y-61818128D01*
X167032972Y-61816157D01*
X167044235Y-61813748D01*
X167055349Y-61810902D01*
X167066312Y-61807618D01*
X167077124Y-61803895D01*
X167087787Y-61799735D01*
X167094812Y-61796718D01*
X167105048Y-61791936D01*
X167114781Y-61786929D01*
X167124013Y-61781700D01*
X167132742Y-61776248D01*
X167140969Y-61770572D01*
X167151156Y-61762657D01*
X167160451Y-61754345D01*
X167168852Y-61745636D01*
X167176361Y-61736531D01*
X167178099Y-61734192D01*
X167184624Y-61724525D01*
X167190647Y-61714332D01*
X167196165Y-61703612D01*
X167201180Y-61692366D01*
X167205690Y-61680592D01*
X167209698Y-61668292D01*
X167212372Y-61658722D01*
X167214764Y-61648855D01*
X167216200Y-61642113D01*
X167217975Y-61632282D01*
X167219513Y-61621108D01*
X167220814Y-61608590D01*
X167221635Y-61598321D01*
X167222323Y-61587295D01*
X167222877Y-61575514D01*
X167223299Y-61562978D01*
X167223587Y-61549686D01*
X167223742Y-61535638D01*
X167223772Y-61525853D01*
X167223772Y-61071317D01*
X167099941Y-61071317D01*
X167099941Y-61479203D01*
X167099911Y-61491166D01*
X167099823Y-61502631D01*
X167099675Y-61513598D01*
X167099468Y-61524067D01*
X167099201Y-61534038D01*
X167098691Y-61548061D01*
X167098048Y-61560963D01*
X167097272Y-61572744D01*
X167096362Y-61583406D01*
X167094942Y-61595877D01*
X167093286Y-61606357D01*
X167092369Y-61610849D01*
X167089087Y-61622794D01*
X167084981Y-61634083D01*
X167080050Y-61644715D01*
X167074295Y-61654691D01*
X167067716Y-61664010D01*
X167060312Y-61672673D01*
X167052085Y-61680680D01*
X167043032Y-61688030D01*
X167033289Y-61694613D01*
X167022989Y-61700319D01*
X167012132Y-61705146D01*
X167000717Y-61709096D01*
X166988746Y-61712168D01*
X166976217Y-61714363D01*
X166966454Y-61715432D01*
X166956379Y-61716008D01*
X166949487Y-61716118D01*
X166939150Y-61715867D01*
X166928928Y-61715113D01*
X166918822Y-61713858D01*
X166908832Y-61712100D01*
X166898958Y-61709839D01*
X166889200Y-61707076D01*
X166879558Y-61703811D01*
X166870032Y-61700044D01*
X166860622Y-61695774D01*
X166851327Y-61691002D01*
X166845196Y-61687542D01*
X166836288Y-61681955D01*
X166827882Y-61676004D01*
X166819979Y-61669688D01*
X166812578Y-61663007D01*
X166805679Y-61655961D01*
X166799283Y-61648550D01*
X166791536Y-61638101D01*
X166786311Y-61629838D01*
X166781589Y-61621211D01*
X166777370Y-61612218D01*
X166776075Y-61609140D01*
X166772452Y-61599450D01*
X166769186Y-61588975D01*
X166766275Y-61577715D01*
X166763722Y-61565668D01*
X166761524Y-61552836D01*
X166759683Y-61539219D01*
X166758198Y-61524815D01*
X166757406Y-61514776D01*
X166756773Y-61504388D01*
X166756298Y-61493651D01*
X166755981Y-61482565D01*
X166755823Y-61471129D01*
X166755803Y-61465281D01*
X166755803Y-61071317D01*
X166632216Y-61071317D01*
X166632216Y-61806000D01*
X166742858Y-61806000D01*
G37*
G36*
X166172307Y-61692671D02*
G01*
X166154477Y-61806000D01*
X166164178Y-61808793D01*
X166173682Y-61811312D01*
X166186047Y-61814243D01*
X166198061Y-61816685D01*
X166209723Y-61818639D01*
X166221035Y-61820105D01*
X166231995Y-61821081D01*
X166242605Y-61821570D01*
X166247778Y-61821631D01*
X166260151Y-61821442D01*
X166271992Y-61820875D01*
X166283301Y-61819931D01*
X166294077Y-61818609D01*
X166304321Y-61816908D01*
X166314032Y-61814830D01*
X166326153Y-61811472D01*
X166337327Y-61807442D01*
X166347555Y-61802740D01*
X166352314Y-61800138D01*
X166361251Y-61794493D01*
X166369502Y-61788429D01*
X166377066Y-61781945D01*
X166385555Y-61773250D01*
X166392970Y-61763899D01*
X166399313Y-61753892D01*
X166404581Y-61743229D01*
X166408073Y-61733219D01*
X166411100Y-61720774D01*
X166413064Y-61709842D01*
X166414766Y-61697541D01*
X166416207Y-61683871D01*
X166417021Y-61673996D01*
X166417720Y-61663513D01*
X166418302Y-61652421D01*
X166418767Y-61640720D01*
X166419117Y-61628410D01*
X166419349Y-61615492D01*
X166419466Y-61601965D01*
X166419480Y-61594974D01*
X166419480Y-61169014D01*
X166510339Y-61169014D01*
X166510339Y-61071317D01*
X166419480Y-61071317D01*
X166419480Y-60893997D01*
X166296626Y-60821212D01*
X166296626Y-61071317D01*
X166172307Y-61071317D01*
X166172307Y-61169014D01*
X166296626Y-61169014D01*
X166296626Y-61604988D01*
X166296570Y-61614813D01*
X166296322Y-61626851D01*
X166295876Y-61637676D01*
X166295039Y-61649501D01*
X166293891Y-61659429D01*
X166291764Y-61670143D01*
X166290276Y-61674597D01*
X166285367Y-61683618D01*
X166278884Y-61691446D01*
X166270827Y-61698081D01*
X166269027Y-61699265D01*
X166259641Y-61703634D01*
X166249612Y-61706317D01*
X166239534Y-61707738D01*
X166228241Y-61708294D01*
X166226528Y-61708302D01*
X166215446Y-61707325D01*
X166204396Y-61704868D01*
X166193921Y-61701570D01*
X166184482Y-61697983D01*
X166174400Y-61693633D01*
X166172307Y-61692671D01*
G37*
G36*
X165738083Y-61055795D02*
G01*
X165751024Y-61056371D01*
X165763597Y-61057441D01*
X165775800Y-61059004D01*
X165787634Y-61061062D01*
X165799098Y-61063613D01*
X165810194Y-61066657D01*
X165820920Y-61070196D01*
X165831277Y-61074228D01*
X165841264Y-61078754D01*
X165850883Y-61083773D01*
X165857102Y-61087393D01*
X165866279Y-61093231D01*
X165875277Y-61099558D01*
X165884094Y-61106374D01*
X165892731Y-61113680D01*
X165901187Y-61121475D01*
X165909463Y-61129760D01*
X165917559Y-61138534D01*
X165925474Y-61147797D01*
X165933209Y-61157550D01*
X165940764Y-61167793D01*
X165940764Y-61071317D01*
X166053360Y-61071317D01*
X166053360Y-62087367D01*
X165929773Y-62087367D01*
X165929773Y-61729551D01*
X165927787Y-61732026D01*
X165919498Y-61741659D01*
X165910659Y-61750864D01*
X165901271Y-61759641D01*
X165891334Y-61767991D01*
X165883520Y-61773973D01*
X165875397Y-61779715D01*
X165866965Y-61785216D01*
X165858224Y-61790477D01*
X165849173Y-61795497D01*
X165842957Y-61798662D01*
X165833451Y-61803026D01*
X165823726Y-61806931D01*
X165813782Y-61810376D01*
X165803619Y-61813362D01*
X165793237Y-61815889D01*
X165782636Y-61817956D01*
X165771816Y-61819564D01*
X165760777Y-61820712D01*
X165749520Y-61821401D01*
X165738043Y-61821631D01*
X165727511Y-61821444D01*
X165717042Y-61820883D01*
X165706636Y-61819948D01*
X165696293Y-61818639D01*
X165686012Y-61816956D01*
X165675795Y-61814899D01*
X165665641Y-61812468D01*
X165655550Y-61809663D01*
X165645521Y-61806484D01*
X165635556Y-61802931D01*
X165625654Y-61799004D01*
X165615814Y-61794703D01*
X165606038Y-61790028D01*
X165596325Y-61784979D01*
X165586674Y-61779556D01*
X165577087Y-61773759D01*
X165567643Y-61767582D01*
X165558486Y-61761078D01*
X165549615Y-61754248D01*
X165541030Y-61747091D01*
X165532732Y-61739608D01*
X165524720Y-61731799D01*
X165516993Y-61723664D01*
X165509554Y-61715202D01*
X165502400Y-61706414D01*
X165495533Y-61697300D01*
X165488951Y-61687859D01*
X165482656Y-61678093D01*
X165476648Y-61667999D01*
X165470925Y-61657580D01*
X165465489Y-61646834D01*
X165460339Y-61635762D01*
X165455459Y-61624409D01*
X165450893Y-61612880D01*
X165446643Y-61601175D01*
X165442707Y-61589295D01*
X165439087Y-61577239D01*
X165435781Y-61565008D01*
X165432790Y-61552601D01*
X165430114Y-61540019D01*
X165427752Y-61527261D01*
X165425706Y-61514328D01*
X165423974Y-61501219D01*
X165422557Y-61487934D01*
X165421455Y-61474474D01*
X165420668Y-61460839D01*
X165420196Y-61447027D01*
X165420039Y-61433041D01*
X165420042Y-61432796D01*
X165546556Y-61432796D01*
X165546786Y-61450875D01*
X165547476Y-61468353D01*
X165548626Y-61485229D01*
X165550235Y-61501505D01*
X165552305Y-61517179D01*
X165554834Y-61532253D01*
X165557823Y-61546725D01*
X165561272Y-61560596D01*
X165565181Y-61573867D01*
X165569550Y-61586536D01*
X165574378Y-61598604D01*
X165579667Y-61610071D01*
X165585415Y-61620937D01*
X165591623Y-61631202D01*
X165598291Y-61640866D01*
X165605419Y-61649928D01*
X165609106Y-61654241D01*
X165616618Y-61662456D01*
X165624316Y-61670122D01*
X165632198Y-61677242D01*
X165640266Y-61683813D01*
X165648518Y-61689837D01*
X165656956Y-61695314D01*
X165665579Y-61700243D01*
X165674387Y-61704624D01*
X165683380Y-61708457D01*
X165697217Y-61713181D01*
X165706673Y-61715645D01*
X165716314Y-61717562D01*
X165726140Y-61718931D01*
X165736151Y-61719752D01*
X165746347Y-61720026D01*
X165751392Y-61719960D01*
X165761341Y-61719431D01*
X165771103Y-61718374D01*
X165785395Y-61715798D01*
X165799267Y-61712032D01*
X165812718Y-61707076D01*
X165825748Y-61700932D01*
X165838358Y-61693598D01*
X165846530Y-61688048D01*
X165854516Y-61681970D01*
X165862315Y-61675363D01*
X165869926Y-61668227D01*
X165877351Y-61660563D01*
X165884588Y-61652371D01*
X165891480Y-61643626D01*
X165897926Y-61634304D01*
X165903929Y-61624407D01*
X165909486Y-61613933D01*
X165914599Y-61602883D01*
X165919267Y-61591257D01*
X165923491Y-61579054D01*
X165927270Y-61566275D01*
X165930604Y-61552920D01*
X165933494Y-61538989D01*
X165935940Y-61524481D01*
X165937940Y-61509397D01*
X165939496Y-61493737D01*
X165940608Y-61477501D01*
X165941275Y-61460688D01*
X165941497Y-61443299D01*
X165941259Y-61425884D01*
X165940547Y-61408994D01*
X165939359Y-61392629D01*
X165937696Y-61376788D01*
X165935558Y-61361473D01*
X165932945Y-61346682D01*
X165929856Y-61332415D01*
X165926293Y-61318674D01*
X165922254Y-61305457D01*
X165917741Y-61292765D01*
X165912752Y-61280598D01*
X165907288Y-61268955D01*
X165901349Y-61257837D01*
X165894934Y-61247244D01*
X165888045Y-61237176D01*
X165880681Y-61227632D01*
X165873008Y-61218641D01*
X165865194Y-61210230D01*
X165857239Y-61202399D01*
X165849143Y-61195148D01*
X165840905Y-61188477D01*
X165832527Y-61182386D01*
X165824007Y-61176876D01*
X165815346Y-61171945D01*
X165806543Y-61167594D01*
X165793075Y-61162156D01*
X165779289Y-61158023D01*
X165765186Y-61155195D01*
X165750764Y-61153673D01*
X165740974Y-61153383D01*
X165736004Y-61153451D01*
X165726198Y-61153997D01*
X165711822Y-61155838D01*
X165697845Y-61158908D01*
X165684267Y-61163206D01*
X165671089Y-61168731D01*
X165658310Y-61175485D01*
X165650012Y-61180669D01*
X165641892Y-61186399D01*
X165633950Y-61192675D01*
X165626184Y-61199497D01*
X165618597Y-61206864D01*
X165611186Y-61214777D01*
X165603953Y-61223236D01*
X165597003Y-61232212D01*
X165590501Y-61241737D01*
X165584447Y-61251812D01*
X165578842Y-61262437D01*
X165573685Y-61273611D01*
X165568977Y-61285335D01*
X165564717Y-61297608D01*
X165560906Y-61310431D01*
X165557543Y-61323803D01*
X165554628Y-61337725D01*
X165552162Y-61352196D01*
X165550144Y-61367217D01*
X165548574Y-61382788D01*
X165547453Y-61398908D01*
X165546781Y-61415577D01*
X165546556Y-61432796D01*
X165420042Y-61432796D01*
X165420181Y-61420009D01*
X165420607Y-61407109D01*
X165421318Y-61394341D01*
X165422313Y-61381704D01*
X165423593Y-61369199D01*
X165425156Y-61356825D01*
X165427004Y-61344584D01*
X165429137Y-61332474D01*
X165431553Y-61320495D01*
X165434254Y-61308649D01*
X165437240Y-61296933D01*
X165440509Y-61285350D01*
X165444063Y-61273898D01*
X165447901Y-61262578D01*
X165452024Y-61251390D01*
X165456431Y-61240333D01*
X165461117Y-61229497D01*
X165466078Y-61218969D01*
X165471314Y-61208751D01*
X165476825Y-61198842D01*
X165482611Y-61189242D01*
X165488671Y-61179952D01*
X165495006Y-61170970D01*
X165501616Y-61162297D01*
X165508500Y-61153934D01*
X165515660Y-61145880D01*
X165523094Y-61138135D01*
X165530803Y-61130699D01*
X165538786Y-61123572D01*
X165547045Y-61116754D01*
X165555578Y-61110245D01*
X165564386Y-61104046D01*
X165573388Y-61098189D01*
X165582563Y-61092711D01*
X165591912Y-61087611D01*
X165601435Y-61082888D01*
X165611131Y-61078543D01*
X165621001Y-61074576D01*
X165631044Y-61070987D01*
X165641262Y-61067775D01*
X165651652Y-61064942D01*
X165662217Y-61062486D01*
X165672955Y-61060408D01*
X165683867Y-61058708D01*
X165694952Y-61057386D01*
X165706211Y-61056441D01*
X165717644Y-61055874D01*
X165729250Y-61055685D01*
X165738083Y-61055795D01*
G37*
G36*
X164796731Y-61806000D02*
G01*
X164796731Y-61698777D01*
X164807624Y-61713654D01*
X164818995Y-61727571D01*
X164830843Y-61740528D01*
X164843168Y-61752526D01*
X164855969Y-61763563D01*
X164869248Y-61773641D01*
X164883004Y-61782759D01*
X164897237Y-61790918D01*
X164911947Y-61798116D01*
X164927134Y-61804355D01*
X164942798Y-61809634D01*
X164958939Y-61813953D01*
X164975557Y-61817312D01*
X164992652Y-61819711D01*
X165010224Y-61821151D01*
X165028273Y-61821631D01*
X165040288Y-61821412D01*
X165052153Y-61820755D01*
X165063867Y-61819660D01*
X165075431Y-61818128D01*
X165086845Y-61816157D01*
X165098108Y-61813748D01*
X165109222Y-61810902D01*
X165120185Y-61807618D01*
X165130997Y-61803895D01*
X165141660Y-61799735D01*
X165148685Y-61796718D01*
X165158921Y-61791936D01*
X165168654Y-61786929D01*
X165177886Y-61781700D01*
X165186615Y-61776248D01*
X165194842Y-61770572D01*
X165205029Y-61762657D01*
X165214324Y-61754345D01*
X165222725Y-61745636D01*
X165230234Y-61736531D01*
X165231972Y-61734192D01*
X165238497Y-61724525D01*
X165244520Y-61714332D01*
X165250038Y-61703612D01*
X165255053Y-61692366D01*
X165259563Y-61680592D01*
X165263571Y-61668292D01*
X165266245Y-61658722D01*
X165268637Y-61648855D01*
X165270073Y-61642113D01*
X165271848Y-61632282D01*
X165273386Y-61621108D01*
X165274687Y-61608590D01*
X165275508Y-61598321D01*
X165276196Y-61587295D01*
X165276750Y-61575514D01*
X165277172Y-61562978D01*
X165277460Y-61549686D01*
X165277615Y-61535638D01*
X165277645Y-61525853D01*
X165277645Y-61071317D01*
X165153814Y-61071317D01*
X165153814Y-61479203D01*
X165153784Y-61491166D01*
X165153696Y-61502631D01*
X165153548Y-61513598D01*
X165153341Y-61524067D01*
X165153074Y-61534038D01*
X165152564Y-61548061D01*
X165151921Y-61560963D01*
X165151145Y-61572744D01*
X165150235Y-61583406D01*
X165148815Y-61595877D01*
X165147159Y-61606357D01*
X165146242Y-61610849D01*
X165142960Y-61622794D01*
X165138854Y-61634083D01*
X165133923Y-61644715D01*
X165128168Y-61654691D01*
X165121589Y-61664010D01*
X165114185Y-61672673D01*
X165105958Y-61680680D01*
X165096905Y-61688030D01*
X165087162Y-61694613D01*
X165076862Y-61700319D01*
X165066005Y-61705146D01*
X165054590Y-61709096D01*
X165042619Y-61712168D01*
X165030090Y-61714363D01*
X165020327Y-61715432D01*
X165010252Y-61716008D01*
X165003360Y-61716118D01*
X164993023Y-61715867D01*
X164982801Y-61715113D01*
X164972695Y-61713858D01*
X164962705Y-61712100D01*
X164952831Y-61709839D01*
X164943073Y-61707076D01*
X164933431Y-61703811D01*
X164923905Y-61700044D01*
X164914495Y-61695774D01*
X164905200Y-61691002D01*
X164899069Y-61687542D01*
X164890161Y-61681955D01*
X164881755Y-61676004D01*
X164873852Y-61669688D01*
X164866451Y-61663007D01*
X164859552Y-61655961D01*
X164853156Y-61648550D01*
X164845409Y-61638101D01*
X164840184Y-61629838D01*
X164835462Y-61621211D01*
X164831243Y-61612218D01*
X164829948Y-61609140D01*
X164826325Y-61599450D01*
X164823058Y-61588975D01*
X164820148Y-61577715D01*
X164817595Y-61565668D01*
X164815397Y-61552836D01*
X164813556Y-61539219D01*
X164812071Y-61524815D01*
X164811279Y-61514776D01*
X164810646Y-61504388D01*
X164810171Y-61493651D01*
X164809854Y-61482565D01*
X164809696Y-61471129D01*
X164809676Y-61465281D01*
X164809676Y-61071317D01*
X164686089Y-61071317D01*
X164686089Y-61806000D01*
X164796731Y-61806000D01*
G37*
G36*
X164226180Y-61692671D02*
G01*
X164208350Y-61806000D01*
X164218051Y-61808793D01*
X164227555Y-61811312D01*
X164239920Y-61814243D01*
X164251934Y-61816685D01*
X164263596Y-61818639D01*
X164274908Y-61820105D01*
X164285868Y-61821081D01*
X164296478Y-61821570D01*
X164301651Y-61821631D01*
X164314024Y-61821442D01*
X164325865Y-61820875D01*
X164337174Y-61819931D01*
X164347950Y-61818609D01*
X164358194Y-61816908D01*
X164367905Y-61814830D01*
X164380026Y-61811472D01*
X164391200Y-61807442D01*
X164401428Y-61802740D01*
X164406187Y-61800138D01*
X164415124Y-61794493D01*
X164423375Y-61788429D01*
X164430939Y-61781945D01*
X164439428Y-61773250D01*
X164446843Y-61763899D01*
X164453186Y-61753892D01*
X164458454Y-61743229D01*
X164461946Y-61733219D01*
X164464973Y-61720774D01*
X164466937Y-61709842D01*
X164468639Y-61697541D01*
X164470080Y-61683871D01*
X164470894Y-61673996D01*
X164471593Y-61663513D01*
X164472175Y-61652421D01*
X164472640Y-61640720D01*
X164472990Y-61628410D01*
X164473222Y-61615492D01*
X164473339Y-61601965D01*
X164473353Y-61594974D01*
X164473353Y-61169014D01*
X164564212Y-61169014D01*
X164564212Y-61071317D01*
X164473353Y-61071317D01*
X164473353Y-60893997D01*
X164350499Y-60821212D01*
X164350499Y-61071317D01*
X164226180Y-61071317D01*
X164226180Y-61169014D01*
X164350499Y-61169014D01*
X164350499Y-61604988D01*
X164350443Y-61614813D01*
X164350195Y-61626851D01*
X164349749Y-61637676D01*
X164348912Y-61649501D01*
X164347764Y-61659429D01*
X164345637Y-61670143D01*
X164344149Y-61674597D01*
X164339240Y-61683618D01*
X164332757Y-61691446D01*
X164324700Y-61698081D01*
X164322900Y-61699265D01*
X164313514Y-61703634D01*
X164303485Y-61706317D01*
X164293407Y-61707738D01*
X164282114Y-61708294D01*
X164280401Y-61708302D01*
X164269319Y-61707325D01*
X164258269Y-61704868D01*
X164247794Y-61701570D01*
X164238355Y-61697983D01*
X164228273Y-61693633D01*
X164226180Y-61692671D01*
G37*
G36*
X163793381Y-61446474D02*
G01*
X163793381Y-61559803D01*
X163356431Y-61559803D01*
X163356431Y-61806000D01*
X163232844Y-61806000D01*
X163232844Y-61559803D01*
X163096801Y-61559803D01*
X163096801Y-61446474D01*
X163232844Y-61446474D01*
X163232844Y-60989740D01*
X163356431Y-60989740D01*
X163356431Y-61446474D01*
X163671748Y-61446474D01*
X163356431Y-60989740D01*
X163232844Y-60989740D01*
X163232844Y-60789949D01*
X163333716Y-60789949D01*
X163793381Y-61446474D01*
G37*
G36*
X136368955Y-60774457D02*
G01*
X136382038Y-60774875D01*
X136394967Y-60775571D01*
X136407744Y-60776546D01*
X136420368Y-60777800D01*
X136432840Y-60779332D01*
X136445159Y-60781143D01*
X136457325Y-60783233D01*
X136469339Y-60785601D01*
X136481200Y-60788247D01*
X136492909Y-60791172D01*
X136504464Y-60794376D01*
X136515867Y-60797859D01*
X136527118Y-60801619D01*
X136538216Y-60805659D01*
X136549161Y-60809977D01*
X136559953Y-60814574D01*
X136570593Y-60819449D01*
X136581080Y-60824603D01*
X136591415Y-60830036D01*
X136601597Y-60835747D01*
X136611626Y-60841736D01*
X136621502Y-60848005D01*
X136631226Y-60854551D01*
X136640798Y-60861377D01*
X136650216Y-60868481D01*
X136659482Y-60875864D01*
X136668595Y-60883525D01*
X136677556Y-60891465D01*
X136686364Y-60899683D01*
X136695019Y-60908180D01*
X136703522Y-60916956D01*
X136711802Y-60925962D01*
X136719819Y-60935183D01*
X136727573Y-60944618D01*
X136735064Y-60954267D01*
X136742292Y-60964131D01*
X136749258Y-60974209D01*
X136755960Y-60984500D01*
X136762400Y-60995006D01*
X136768577Y-61005727D01*
X136774491Y-61016661D01*
X136780142Y-61027810D01*
X136785531Y-61039172D01*
X136790656Y-61050749D01*
X136795519Y-61062540D01*
X136800119Y-61074546D01*
X136804456Y-61086765D01*
X136808530Y-61099199D01*
X136812341Y-61111847D01*
X136815889Y-61124709D01*
X136819175Y-61137785D01*
X136822198Y-61151076D01*
X136824958Y-61164581D01*
X136827455Y-61178299D01*
X136829689Y-61192232D01*
X136831660Y-61206380D01*
X136833369Y-61220741D01*
X136834814Y-61235317D01*
X136835997Y-61250107D01*
X136836917Y-61265111D01*
X136837574Y-61280329D01*
X136837969Y-61295761D01*
X136838100Y-61311408D01*
X136837875Y-61328023D01*
X136837199Y-61344529D01*
X136836074Y-61360927D01*
X136834497Y-61377216D01*
X136832471Y-61393396D01*
X136829994Y-61409467D01*
X136827067Y-61425430D01*
X136823690Y-61441284D01*
X136819862Y-61457029D01*
X136815584Y-61472665D01*
X136810855Y-61488193D01*
X136805677Y-61503612D01*
X136800048Y-61518922D01*
X136793968Y-61534123D01*
X136787439Y-61549215D01*
X136780459Y-61564199D01*
X136773012Y-61578932D01*
X136765144Y-61593272D01*
X136756854Y-61607218D01*
X136748142Y-61620772D01*
X136739009Y-61633932D01*
X136729454Y-61646700D01*
X136719477Y-61659074D01*
X136709079Y-61671055D01*
X136698259Y-61682644D01*
X136687017Y-61693839D01*
X136675353Y-61704641D01*
X136663268Y-61715050D01*
X136650761Y-61725065D01*
X136637832Y-61734688D01*
X136624482Y-61743918D01*
X136610710Y-61752755D01*
X136596579Y-61761095D01*
X136582214Y-61768897D01*
X136567613Y-61776162D01*
X136552779Y-61782888D01*
X136537709Y-61789076D01*
X136522405Y-61794726D01*
X136506866Y-61799838D01*
X136491092Y-61804412D01*
X136475084Y-61808448D01*
X136458840Y-61811945D01*
X136442363Y-61814905D01*
X136425650Y-61817326D01*
X136408703Y-61819210D01*
X136391521Y-61820555D01*
X136374104Y-61821362D01*
X136356453Y-61821631D01*
X136340128Y-61821387D01*
X136323942Y-61820654D01*
X136307896Y-61819433D01*
X136291988Y-61817723D01*
X136276220Y-61815525D01*
X136260592Y-61812838D01*
X136245102Y-61809663D01*
X136229752Y-61806000D01*
X136214541Y-61801847D01*
X136199470Y-61797207D01*
X136184538Y-61792078D01*
X136169745Y-61786460D01*
X136155091Y-61780354D01*
X136140577Y-61773759D01*
X136126202Y-61766676D01*
X136111966Y-61759105D01*
X136098001Y-61751059D01*
X136084439Y-61742554D01*
X136071280Y-61733588D01*
X136058523Y-61724163D01*
X136046168Y-61714278D01*
X136034217Y-61703933D01*
X136022668Y-61693128D01*
X136011521Y-61681863D01*
X136000777Y-61670138D01*
X135990436Y-61657954D01*
X135980498Y-61645310D01*
X135970962Y-61632205D01*
X135961828Y-61618641D01*
X135953097Y-61604617D01*
X135944769Y-61590134D01*
X135936844Y-61575190D01*
X135929332Y-61559860D01*
X135922304Y-61544278D01*
X135915761Y-61528444D01*
X135909702Y-61512359D01*
X135904129Y-61496021D01*
X135899040Y-61479432D01*
X135894435Y-61462590D01*
X135890316Y-61445497D01*
X135886681Y-61428152D01*
X135883530Y-61410555D01*
X135880865Y-61392706D01*
X135878684Y-61374606D01*
X135876987Y-61356253D01*
X135875776Y-61337649D01*
X135875049Y-61318792D01*
X135874806Y-61299684D01*
X135874818Y-61298707D01*
X136012315Y-61298707D01*
X136012410Y-61310878D01*
X136012695Y-61322874D01*
X136013169Y-61334695D01*
X136013834Y-61346342D01*
X136014688Y-61357814D01*
X136015732Y-61369112D01*
X136016967Y-61380235D01*
X136018390Y-61391184D01*
X136020004Y-61401957D01*
X136021808Y-61412557D01*
X136023801Y-61422981D01*
X136025985Y-61433231D01*
X136028358Y-61443307D01*
X136030921Y-61453208D01*
X136033674Y-61462934D01*
X136036617Y-61472486D01*
X136039750Y-61481863D01*
X136043072Y-61491066D01*
X136050287Y-61508947D01*
X136058261Y-61526130D01*
X136066995Y-61542614D01*
X136076488Y-61558400D01*
X136086740Y-61573488D01*
X136097752Y-61587877D01*
X136109524Y-61601568D01*
X136121883Y-61614493D01*
X136134658Y-61626584D01*
X136147849Y-61637841D01*
X136161456Y-61648264D01*
X136175479Y-61657854D01*
X136189918Y-61666609D01*
X136204773Y-61674531D01*
X136220043Y-61681619D01*
X136235730Y-61687873D01*
X136251833Y-61693293D01*
X136268352Y-61697879D01*
X136285287Y-61701631D01*
X136302638Y-61704550D01*
X136320404Y-61706635D01*
X136338587Y-61707885D01*
X136357186Y-61708302D01*
X136375432Y-61707889D01*
X136393292Y-61706650D01*
X136410764Y-61704584D01*
X136427848Y-61701693D01*
X136444546Y-61697975D01*
X136460855Y-61693430D01*
X136476778Y-61688060D01*
X136492313Y-61681863D01*
X136507461Y-61674840D01*
X136522221Y-61666991D01*
X136536595Y-61658316D01*
X136550580Y-61648814D01*
X136564179Y-61638486D01*
X136577390Y-61627332D01*
X136590214Y-61615352D01*
X136602650Y-61602545D01*
X136614510Y-61589021D01*
X136625605Y-61574889D01*
X136635935Y-61560147D01*
X136645499Y-61544797D01*
X136654299Y-61528838D01*
X136662333Y-61512271D01*
X136669602Y-61495095D01*
X136676106Y-61477310D01*
X136681845Y-61458916D01*
X136684427Y-61449491D01*
X136686818Y-61439914D01*
X136689018Y-61430184D01*
X136691027Y-61420303D01*
X136692844Y-61410269D01*
X136694470Y-61400083D01*
X136695905Y-61389745D01*
X136697148Y-61379255D01*
X136698200Y-61368612D01*
X136699061Y-61357818D01*
X136699730Y-61346871D01*
X136700209Y-61335772D01*
X136700496Y-61324521D01*
X136700591Y-61313117D01*
X136700492Y-61298912D01*
X136700193Y-61284963D01*
X136699696Y-61271270D01*
X136699000Y-61257835D01*
X136698105Y-61244655D01*
X136697011Y-61231733D01*
X136695718Y-61219067D01*
X136694226Y-61206658D01*
X136692535Y-61194506D01*
X136690645Y-61182610D01*
X136688556Y-61170970D01*
X136686269Y-61159588D01*
X136683782Y-61148462D01*
X136681097Y-61137593D01*
X136678212Y-61126980D01*
X136675129Y-61116624D01*
X136671847Y-61106525D01*
X136668366Y-61096682D01*
X136664685Y-61087096D01*
X136660806Y-61077767D01*
X136656728Y-61068694D01*
X136652452Y-61059878D01*
X136643301Y-61043015D01*
X136633355Y-61027180D01*
X136622613Y-61012371D01*
X136611075Y-60998588D01*
X136598742Y-60985832D01*
X136585826Y-60973942D01*
X136572600Y-60962820D01*
X136559066Y-60952464D01*
X136545222Y-60942876D01*
X136531070Y-60934054D01*
X136516608Y-60926000D01*
X136501837Y-60918713D01*
X136486757Y-60912193D01*
X136471367Y-60906440D01*
X136455669Y-60901454D01*
X136439662Y-60897235D01*
X136423345Y-60893783D01*
X136406719Y-60891098D01*
X136389785Y-60889181D01*
X136372541Y-60888030D01*
X136354988Y-60887646D01*
X136342637Y-60887846D01*
X136330437Y-60888444D01*
X136318388Y-60889441D01*
X136306490Y-60890837D01*
X136294743Y-60892631D01*
X136283146Y-60894825D01*
X136271700Y-60897417D01*
X136260405Y-60900408D01*
X136249260Y-60903798D01*
X136238266Y-60907587D01*
X136227423Y-60911774D01*
X136216731Y-60916360D01*
X136206189Y-60921345D01*
X136195799Y-60926729D01*
X136185558Y-60932512D01*
X136175469Y-60938693D01*
X136165606Y-60945207D01*
X136156044Y-60952046D01*
X136146784Y-60959212D01*
X136137825Y-60966705D01*
X136129168Y-60974523D01*
X136120812Y-60982668D01*
X136112758Y-60991140D01*
X136105005Y-60999937D01*
X136097554Y-61009061D01*
X136090404Y-61018511D01*
X136083556Y-61028287D01*
X136077009Y-61038390D01*
X136070763Y-61048819D01*
X136064820Y-61059574D01*
X136059177Y-61070656D01*
X136053836Y-61082064D01*
X136048808Y-61093758D01*
X136044105Y-61105698D01*
X136039725Y-61117884D01*
X136035671Y-61130317D01*
X136031940Y-61142996D01*
X136028534Y-61155920D01*
X136025453Y-61169091D01*
X136022695Y-61182509D01*
X136020262Y-61196172D01*
X136018154Y-61210081D01*
X136016370Y-61224237D01*
X136014910Y-61238639D01*
X136013775Y-61253287D01*
X136012964Y-61268181D01*
X136012477Y-61283321D01*
X136012315Y-61298707D01*
X135874818Y-61298707D01*
X135875036Y-61280820D01*
X135875726Y-61262208D01*
X135876876Y-61243848D01*
X135878485Y-61225740D01*
X135880554Y-61207883D01*
X135883084Y-61190279D01*
X135886073Y-61172926D01*
X135889522Y-61155825D01*
X135893431Y-61138976D01*
X135897799Y-61122379D01*
X135902628Y-61106034D01*
X135907916Y-61089941D01*
X135913665Y-61074099D01*
X135919873Y-61058510D01*
X135926541Y-61043172D01*
X135933669Y-61028086D01*
X135941205Y-61013303D01*
X135949159Y-60998933D01*
X135957531Y-60984978D01*
X135966321Y-60971437D01*
X135975529Y-60958310D01*
X135985154Y-60945597D01*
X135995198Y-60933298D01*
X136005659Y-60921413D01*
X136016539Y-60909942D01*
X136027836Y-60898885D01*
X136039551Y-60888243D01*
X136051684Y-60878014D01*
X136064235Y-60868200D01*
X136077203Y-60858799D01*
X136090590Y-60849813D01*
X136104394Y-60841240D01*
X136118485Y-60833136D01*
X136132792Y-60825555D01*
X136147313Y-60818497D01*
X136162051Y-60811962D01*
X136177004Y-60805949D01*
X136192173Y-60800459D01*
X136207558Y-60795492D01*
X136223158Y-60791048D01*
X136238973Y-60787127D01*
X136255005Y-60783729D01*
X136271251Y-60780853D01*
X136287714Y-60778500D01*
X136304392Y-60776670D01*
X136321286Y-60775363D01*
X136338395Y-60774579D01*
X136355720Y-60774318D01*
X136368955Y-60774457D01*
G37*
G36*
X135246858Y-61806000D02*
G01*
X135246858Y-61698777D01*
X135257751Y-61713654D01*
X135269122Y-61727571D01*
X135280970Y-61740528D01*
X135293295Y-61752526D01*
X135306096Y-61763563D01*
X135319375Y-61773641D01*
X135333131Y-61782759D01*
X135347364Y-61790918D01*
X135362074Y-61798116D01*
X135377261Y-61804355D01*
X135392925Y-61809634D01*
X135409066Y-61813953D01*
X135425684Y-61817312D01*
X135442779Y-61819711D01*
X135460351Y-61821151D01*
X135478400Y-61821631D01*
X135490415Y-61821412D01*
X135502280Y-61820755D01*
X135513994Y-61819660D01*
X135525558Y-61818128D01*
X135536972Y-61816157D01*
X135548235Y-61813748D01*
X135559349Y-61810902D01*
X135570312Y-61807618D01*
X135581124Y-61803895D01*
X135591787Y-61799735D01*
X135598812Y-61796718D01*
X135609048Y-61791936D01*
X135618781Y-61786929D01*
X135628013Y-61781700D01*
X135636742Y-61776248D01*
X135644969Y-61770572D01*
X135655156Y-61762657D01*
X135664451Y-61754345D01*
X135672852Y-61745636D01*
X135680361Y-61736531D01*
X135682099Y-61734192D01*
X135688624Y-61724525D01*
X135694647Y-61714332D01*
X135700165Y-61703612D01*
X135705180Y-61692366D01*
X135709690Y-61680592D01*
X135713698Y-61668292D01*
X135716372Y-61658722D01*
X135718764Y-61648855D01*
X135720200Y-61642113D01*
X135721975Y-61632282D01*
X135723513Y-61621108D01*
X135724814Y-61608590D01*
X135725635Y-61598321D01*
X135726323Y-61587295D01*
X135726877Y-61575514D01*
X135727299Y-61562978D01*
X135727587Y-61549686D01*
X135727742Y-61535638D01*
X135727772Y-61525853D01*
X135727772Y-61071317D01*
X135603941Y-61071317D01*
X135603941Y-61479203D01*
X135603911Y-61491166D01*
X135603823Y-61502631D01*
X135603675Y-61513598D01*
X135603468Y-61524067D01*
X135603201Y-61534038D01*
X135602691Y-61548061D01*
X135602048Y-61560963D01*
X135601272Y-61572744D01*
X135600362Y-61583406D01*
X135598942Y-61595877D01*
X135597286Y-61606357D01*
X135596369Y-61610849D01*
X135593087Y-61622794D01*
X135588981Y-61634083D01*
X135584050Y-61644715D01*
X135578295Y-61654691D01*
X135571716Y-61664010D01*
X135564312Y-61672673D01*
X135556085Y-61680680D01*
X135547032Y-61688030D01*
X135537289Y-61694613D01*
X135526989Y-61700319D01*
X135516132Y-61705146D01*
X135504717Y-61709096D01*
X135492746Y-61712168D01*
X135480217Y-61714363D01*
X135470454Y-61715432D01*
X135460379Y-61716008D01*
X135453487Y-61716118D01*
X135443150Y-61715867D01*
X135432928Y-61715113D01*
X135422822Y-61713858D01*
X135412832Y-61712100D01*
X135402958Y-61709839D01*
X135393200Y-61707076D01*
X135383558Y-61703811D01*
X135374032Y-61700044D01*
X135364622Y-61695774D01*
X135355327Y-61691002D01*
X135349196Y-61687542D01*
X135340288Y-61681955D01*
X135331882Y-61676004D01*
X135323979Y-61669688D01*
X135316578Y-61663007D01*
X135309679Y-61655961D01*
X135303283Y-61648550D01*
X135295536Y-61638101D01*
X135290311Y-61629838D01*
X135285589Y-61621211D01*
X135281370Y-61612218D01*
X135280075Y-61609140D01*
X135276452Y-61599450D01*
X135273186Y-61588975D01*
X135270275Y-61577715D01*
X135267722Y-61565668D01*
X135265524Y-61552836D01*
X135263683Y-61539219D01*
X135262198Y-61524815D01*
X135261406Y-61514776D01*
X135260773Y-61504388D01*
X135260298Y-61493651D01*
X135259981Y-61482565D01*
X135259823Y-61471129D01*
X135259803Y-61465281D01*
X135259803Y-61071317D01*
X135136216Y-61071317D01*
X135136216Y-61806000D01*
X135246858Y-61806000D01*
G37*
G36*
X134676307Y-61692671D02*
G01*
X134658477Y-61806000D01*
X134668178Y-61808793D01*
X134677682Y-61811312D01*
X134690047Y-61814243D01*
X134702061Y-61816685D01*
X134713723Y-61818639D01*
X134725035Y-61820105D01*
X134735995Y-61821081D01*
X134746605Y-61821570D01*
X134751778Y-61821631D01*
X134764151Y-61821442D01*
X134775992Y-61820875D01*
X134787301Y-61819931D01*
X134798077Y-61818609D01*
X134808321Y-61816908D01*
X134818032Y-61814830D01*
X134830153Y-61811472D01*
X134841327Y-61807442D01*
X134851555Y-61802740D01*
X134856314Y-61800138D01*
X134865251Y-61794493D01*
X134873502Y-61788429D01*
X134881066Y-61781945D01*
X134889555Y-61773250D01*
X134896970Y-61763899D01*
X134903313Y-61753892D01*
X134908581Y-61743229D01*
X134912073Y-61733219D01*
X134915100Y-61720774D01*
X134917064Y-61709842D01*
X134918766Y-61697541D01*
X134920207Y-61683871D01*
X134921021Y-61673996D01*
X134921720Y-61663513D01*
X134922302Y-61652421D01*
X134922767Y-61640720D01*
X134923117Y-61628410D01*
X134923349Y-61615492D01*
X134923466Y-61601965D01*
X134923480Y-61594974D01*
X134923480Y-61169014D01*
X135014339Y-61169014D01*
X135014339Y-61071317D01*
X134923480Y-61071317D01*
X134923480Y-60893997D01*
X134800626Y-60821212D01*
X134800626Y-61071317D01*
X134676307Y-61071317D01*
X134676307Y-61169014D01*
X134800626Y-61169014D01*
X134800626Y-61604988D01*
X134800570Y-61614813D01*
X134800322Y-61626851D01*
X134799876Y-61637676D01*
X134799039Y-61649501D01*
X134797891Y-61659429D01*
X134795764Y-61670143D01*
X134794276Y-61674597D01*
X134789367Y-61683618D01*
X134782884Y-61691446D01*
X134774827Y-61698081D01*
X134773027Y-61699265D01*
X134763641Y-61703634D01*
X134753612Y-61706317D01*
X134743534Y-61707738D01*
X134732241Y-61708294D01*
X134730528Y-61708302D01*
X134719446Y-61707325D01*
X134708396Y-61704868D01*
X134697921Y-61701570D01*
X134688482Y-61697983D01*
X134678400Y-61693633D01*
X134676307Y-61692671D01*
G37*
G36*
X134242083Y-61055795D02*
G01*
X134255024Y-61056371D01*
X134267597Y-61057441D01*
X134279800Y-61059004D01*
X134291634Y-61061062D01*
X134303098Y-61063613D01*
X134314194Y-61066657D01*
X134324920Y-61070196D01*
X134335277Y-61074228D01*
X134345264Y-61078754D01*
X134354883Y-61083773D01*
X134361102Y-61087393D01*
X134370279Y-61093231D01*
X134379277Y-61099558D01*
X134388094Y-61106374D01*
X134396731Y-61113680D01*
X134405187Y-61121475D01*
X134413463Y-61129760D01*
X134421559Y-61138534D01*
X134429474Y-61147797D01*
X134437209Y-61157550D01*
X134444764Y-61167793D01*
X134444764Y-61071317D01*
X134557360Y-61071317D01*
X134557360Y-62087367D01*
X134433773Y-62087367D01*
X134433773Y-61729551D01*
X134431787Y-61732026D01*
X134423498Y-61741659D01*
X134414659Y-61750864D01*
X134405271Y-61759641D01*
X134395334Y-61767991D01*
X134387520Y-61773973D01*
X134379397Y-61779715D01*
X134370965Y-61785216D01*
X134362224Y-61790477D01*
X134353173Y-61795497D01*
X134346957Y-61798662D01*
X134337451Y-61803026D01*
X134327726Y-61806931D01*
X134317782Y-61810376D01*
X134307619Y-61813362D01*
X134297237Y-61815889D01*
X134286636Y-61817956D01*
X134275816Y-61819564D01*
X134264777Y-61820712D01*
X134253520Y-61821401D01*
X134242043Y-61821631D01*
X134231511Y-61821444D01*
X134221042Y-61820883D01*
X134210636Y-61819948D01*
X134200293Y-61818639D01*
X134190012Y-61816956D01*
X134179795Y-61814899D01*
X134169641Y-61812468D01*
X134159550Y-61809663D01*
X134149521Y-61806484D01*
X134139556Y-61802931D01*
X134129654Y-61799004D01*
X134119814Y-61794703D01*
X134110038Y-61790028D01*
X134100325Y-61784979D01*
X134090674Y-61779556D01*
X134081087Y-61773759D01*
X134071643Y-61767582D01*
X134062486Y-61761078D01*
X134053615Y-61754248D01*
X134045030Y-61747091D01*
X134036732Y-61739608D01*
X134028720Y-61731799D01*
X134020993Y-61723664D01*
X134013554Y-61715202D01*
X134006400Y-61706414D01*
X133999533Y-61697300D01*
X133992951Y-61687859D01*
X133986656Y-61678093D01*
X133980648Y-61667999D01*
X133974925Y-61657580D01*
X133969489Y-61646834D01*
X133964339Y-61635762D01*
X133959459Y-61624409D01*
X133954893Y-61612880D01*
X133950643Y-61601175D01*
X133946707Y-61589295D01*
X133943087Y-61577239D01*
X133939781Y-61565008D01*
X133936790Y-61552601D01*
X133934114Y-61540019D01*
X133931752Y-61527261D01*
X133929706Y-61514328D01*
X133927974Y-61501219D01*
X133926557Y-61487934D01*
X133925455Y-61474474D01*
X133924668Y-61460839D01*
X133924196Y-61447027D01*
X133924039Y-61433041D01*
X133924042Y-61432796D01*
X134050556Y-61432796D01*
X134050786Y-61450875D01*
X134051476Y-61468353D01*
X134052626Y-61485229D01*
X134054235Y-61501505D01*
X134056305Y-61517179D01*
X134058834Y-61532253D01*
X134061823Y-61546725D01*
X134065272Y-61560596D01*
X134069181Y-61573867D01*
X134073550Y-61586536D01*
X134078378Y-61598604D01*
X134083667Y-61610071D01*
X134089415Y-61620937D01*
X134095623Y-61631202D01*
X134102291Y-61640866D01*
X134109419Y-61649928D01*
X134113106Y-61654241D01*
X134120618Y-61662456D01*
X134128316Y-61670122D01*
X134136198Y-61677242D01*
X134144266Y-61683813D01*
X134152518Y-61689837D01*
X134160956Y-61695314D01*
X134169579Y-61700243D01*
X134178387Y-61704624D01*
X134187380Y-61708457D01*
X134201217Y-61713181D01*
X134210673Y-61715645D01*
X134220314Y-61717562D01*
X134230140Y-61718931D01*
X134240151Y-61719752D01*
X134250347Y-61720026D01*
X134255392Y-61719960D01*
X134265341Y-61719431D01*
X134275103Y-61718374D01*
X134289395Y-61715798D01*
X134303267Y-61712032D01*
X134316718Y-61707076D01*
X134329748Y-61700932D01*
X134342358Y-61693598D01*
X134350530Y-61688048D01*
X134358516Y-61681970D01*
X134366315Y-61675363D01*
X134373926Y-61668227D01*
X134381351Y-61660563D01*
X134388588Y-61652371D01*
X134395480Y-61643626D01*
X134401926Y-61634304D01*
X134407929Y-61624407D01*
X134413486Y-61613933D01*
X134418599Y-61602883D01*
X134423267Y-61591257D01*
X134427491Y-61579054D01*
X134431270Y-61566275D01*
X134434604Y-61552920D01*
X134437494Y-61538989D01*
X134439940Y-61524481D01*
X134441940Y-61509397D01*
X134443496Y-61493737D01*
X134444608Y-61477501D01*
X134445275Y-61460688D01*
X134445497Y-61443299D01*
X134445259Y-61425884D01*
X134444547Y-61408994D01*
X134443359Y-61392629D01*
X134441696Y-61376788D01*
X134439558Y-61361473D01*
X134436945Y-61346682D01*
X134433856Y-61332415D01*
X134430293Y-61318674D01*
X134426254Y-61305457D01*
X134421741Y-61292765D01*
X134416752Y-61280598D01*
X134411288Y-61268955D01*
X134405349Y-61257837D01*
X134398934Y-61247244D01*
X134392045Y-61237176D01*
X134384681Y-61227632D01*
X134377008Y-61218641D01*
X134369194Y-61210230D01*
X134361239Y-61202399D01*
X134353143Y-61195148D01*
X134344905Y-61188477D01*
X134336527Y-61182386D01*
X134328007Y-61176876D01*
X134319346Y-61171945D01*
X134310543Y-61167594D01*
X134297075Y-61162156D01*
X134283289Y-61158023D01*
X134269186Y-61155195D01*
X134254764Y-61153673D01*
X134244974Y-61153383D01*
X134240004Y-61153451D01*
X134230198Y-61153997D01*
X134215822Y-61155838D01*
X134201845Y-61158908D01*
X134188267Y-61163206D01*
X134175089Y-61168731D01*
X134162310Y-61175485D01*
X134154012Y-61180669D01*
X134145892Y-61186399D01*
X134137950Y-61192675D01*
X134130184Y-61199497D01*
X134122597Y-61206864D01*
X134115186Y-61214777D01*
X134107953Y-61223236D01*
X134101003Y-61232212D01*
X134094501Y-61241737D01*
X134088447Y-61251812D01*
X134082842Y-61262437D01*
X134077685Y-61273611D01*
X134072977Y-61285335D01*
X134068717Y-61297608D01*
X134064906Y-61310431D01*
X134061543Y-61323803D01*
X134058628Y-61337725D01*
X134056162Y-61352196D01*
X134054144Y-61367217D01*
X134052574Y-61382788D01*
X134051453Y-61398908D01*
X134050781Y-61415577D01*
X134050556Y-61432796D01*
X133924042Y-61432796D01*
X133924181Y-61420009D01*
X133924607Y-61407109D01*
X133925318Y-61394341D01*
X133926313Y-61381704D01*
X133927593Y-61369199D01*
X133929156Y-61356825D01*
X133931004Y-61344584D01*
X133933137Y-61332474D01*
X133935553Y-61320495D01*
X133938254Y-61308649D01*
X133941240Y-61296933D01*
X133944509Y-61285350D01*
X133948063Y-61273898D01*
X133951901Y-61262578D01*
X133956024Y-61251390D01*
X133960431Y-61240333D01*
X133965117Y-61229497D01*
X133970078Y-61218969D01*
X133975314Y-61208751D01*
X133980825Y-61198842D01*
X133986611Y-61189242D01*
X133992671Y-61179952D01*
X133999006Y-61170970D01*
X134005616Y-61162297D01*
X134012500Y-61153934D01*
X134019660Y-61145880D01*
X134027094Y-61138135D01*
X134034803Y-61130699D01*
X134042786Y-61123572D01*
X134051045Y-61116754D01*
X134059578Y-61110245D01*
X134068386Y-61104046D01*
X134077388Y-61098189D01*
X134086563Y-61092711D01*
X134095912Y-61087611D01*
X134105435Y-61082888D01*
X134115131Y-61078543D01*
X134125001Y-61074576D01*
X134135044Y-61070987D01*
X134145262Y-61067775D01*
X134155652Y-61064942D01*
X134166217Y-61062486D01*
X134176955Y-61060408D01*
X134187867Y-61058708D01*
X134198952Y-61057386D01*
X134210211Y-61056441D01*
X134221644Y-61055874D01*
X134233250Y-61055685D01*
X134242083Y-61055795D01*
G37*
G36*
X133300731Y-61806000D02*
G01*
X133300731Y-61698777D01*
X133311624Y-61713654D01*
X133322995Y-61727571D01*
X133334843Y-61740528D01*
X133347168Y-61752526D01*
X133359969Y-61763563D01*
X133373248Y-61773641D01*
X133387004Y-61782759D01*
X133401237Y-61790918D01*
X133415947Y-61798116D01*
X133431134Y-61804355D01*
X133446798Y-61809634D01*
X133462939Y-61813953D01*
X133479557Y-61817312D01*
X133496652Y-61819711D01*
X133514224Y-61821151D01*
X133532273Y-61821631D01*
X133544288Y-61821412D01*
X133556153Y-61820755D01*
X133567867Y-61819660D01*
X133579431Y-61818128D01*
X133590845Y-61816157D01*
X133602108Y-61813748D01*
X133613222Y-61810902D01*
X133624185Y-61807618D01*
X133634997Y-61803895D01*
X133645660Y-61799735D01*
X133652685Y-61796718D01*
X133662921Y-61791936D01*
X133672654Y-61786929D01*
X133681886Y-61781700D01*
X133690615Y-61776248D01*
X133698842Y-61770572D01*
X133709029Y-61762657D01*
X133718324Y-61754345D01*
X133726725Y-61745636D01*
X133734234Y-61736531D01*
X133735972Y-61734192D01*
X133742497Y-61724525D01*
X133748520Y-61714332D01*
X133754038Y-61703612D01*
X133759053Y-61692366D01*
X133763563Y-61680592D01*
X133767571Y-61668292D01*
X133770245Y-61658722D01*
X133772637Y-61648855D01*
X133774073Y-61642113D01*
X133775848Y-61632282D01*
X133777386Y-61621108D01*
X133778687Y-61608590D01*
X133779508Y-61598321D01*
X133780196Y-61587295D01*
X133780750Y-61575514D01*
X133781172Y-61562978D01*
X133781460Y-61549686D01*
X133781615Y-61535638D01*
X133781645Y-61525853D01*
X133781645Y-61071317D01*
X133657814Y-61071317D01*
X133657814Y-61479203D01*
X133657784Y-61491166D01*
X133657696Y-61502631D01*
X133657548Y-61513598D01*
X133657341Y-61524067D01*
X133657074Y-61534038D01*
X133656564Y-61548061D01*
X133655921Y-61560963D01*
X133655145Y-61572744D01*
X133654235Y-61583406D01*
X133652815Y-61595877D01*
X133651159Y-61606357D01*
X133650242Y-61610849D01*
X133646960Y-61622794D01*
X133642854Y-61634083D01*
X133637923Y-61644715D01*
X133632168Y-61654691D01*
X133625589Y-61664010D01*
X133618185Y-61672673D01*
X133609958Y-61680680D01*
X133600905Y-61688030D01*
X133591162Y-61694613D01*
X133580862Y-61700319D01*
X133570005Y-61705146D01*
X133558590Y-61709096D01*
X133546619Y-61712168D01*
X133534090Y-61714363D01*
X133524327Y-61715432D01*
X133514252Y-61716008D01*
X133507360Y-61716118D01*
X133497023Y-61715867D01*
X133486801Y-61715113D01*
X133476695Y-61713858D01*
X133466705Y-61712100D01*
X133456831Y-61709839D01*
X133447073Y-61707076D01*
X133437431Y-61703811D01*
X133427905Y-61700044D01*
X133418495Y-61695774D01*
X133409200Y-61691002D01*
X133403069Y-61687542D01*
X133394161Y-61681955D01*
X133385755Y-61676004D01*
X133377852Y-61669688D01*
X133370451Y-61663007D01*
X133363552Y-61655961D01*
X133357156Y-61648550D01*
X133349409Y-61638101D01*
X133344184Y-61629838D01*
X133339462Y-61621211D01*
X133335243Y-61612218D01*
X133333948Y-61609140D01*
X133330325Y-61599450D01*
X133327058Y-61588975D01*
X133324148Y-61577715D01*
X133321595Y-61565668D01*
X133319397Y-61552836D01*
X133317556Y-61539219D01*
X133316071Y-61524815D01*
X133315279Y-61514776D01*
X133314646Y-61504388D01*
X133314171Y-61493651D01*
X133313854Y-61482565D01*
X133313696Y-61471129D01*
X133313676Y-61465281D01*
X133313676Y-61071317D01*
X133190089Y-61071317D01*
X133190089Y-61806000D01*
X133300731Y-61806000D01*
G37*
G36*
X132730180Y-61692671D02*
G01*
X132712350Y-61806000D01*
X132722051Y-61808793D01*
X132731555Y-61811312D01*
X132743920Y-61814243D01*
X132755934Y-61816685D01*
X132767596Y-61818639D01*
X132778908Y-61820105D01*
X132789868Y-61821081D01*
X132800478Y-61821570D01*
X132805651Y-61821631D01*
X132818024Y-61821442D01*
X132829865Y-61820875D01*
X132841174Y-61819931D01*
X132851950Y-61818609D01*
X132862194Y-61816908D01*
X132871905Y-61814830D01*
X132884026Y-61811472D01*
X132895200Y-61807442D01*
X132905428Y-61802740D01*
X132910187Y-61800138D01*
X132919124Y-61794493D01*
X132927375Y-61788429D01*
X132934939Y-61781945D01*
X132943428Y-61773250D01*
X132950843Y-61763899D01*
X132957186Y-61753892D01*
X132962454Y-61743229D01*
X132965946Y-61733219D01*
X132968973Y-61720774D01*
X132970937Y-61709842D01*
X132972639Y-61697541D01*
X132974080Y-61683871D01*
X132974894Y-61673996D01*
X132975593Y-61663513D01*
X132976175Y-61652421D01*
X132976640Y-61640720D01*
X132976990Y-61628410D01*
X132977222Y-61615492D01*
X132977339Y-61601965D01*
X132977353Y-61594974D01*
X132977353Y-61169014D01*
X133068212Y-61169014D01*
X133068212Y-61071317D01*
X132977353Y-61071317D01*
X132977353Y-60893997D01*
X132854499Y-60821212D01*
X132854499Y-61071317D01*
X132730180Y-61071317D01*
X132730180Y-61169014D01*
X132854499Y-61169014D01*
X132854499Y-61604988D01*
X132854443Y-61614813D01*
X132854195Y-61626851D01*
X132853749Y-61637676D01*
X132852912Y-61649501D01*
X132851764Y-61659429D01*
X132849637Y-61670143D01*
X132848149Y-61674597D01*
X132843240Y-61683618D01*
X132836757Y-61691446D01*
X132828700Y-61698081D01*
X132826900Y-61699265D01*
X132817514Y-61703634D01*
X132807485Y-61706317D01*
X132797407Y-61707738D01*
X132786114Y-61708294D01*
X132784401Y-61708302D01*
X132773319Y-61707325D01*
X132762269Y-61704868D01*
X132751794Y-61701570D01*
X132742355Y-61697983D01*
X132732273Y-61693633D01*
X132730180Y-61692671D01*
G37*
G36*
X131606907Y-61688763D02*
G01*
X131606907Y-61806000D01*
X132272713Y-61806000D01*
X132272755Y-61794879D01*
X132272270Y-61783865D01*
X132271259Y-61772958D01*
X132269721Y-61762158D01*
X132267656Y-61751465D01*
X132265065Y-61740878D01*
X132261947Y-61730399D01*
X132258302Y-61720026D01*
X132253228Y-61707268D01*
X132247621Y-61694549D01*
X132241481Y-61681869D01*
X132234809Y-61669227D01*
X132227605Y-61656624D01*
X132222506Y-61648244D01*
X132217171Y-61639880D01*
X132211600Y-61631534D01*
X132205791Y-61623205D01*
X132199746Y-61614893D01*
X132193464Y-61606598D01*
X132186946Y-61598321D01*
X132180191Y-61590060D01*
X132176725Y-61585937D01*
X132169539Y-61577583D01*
X132161964Y-61569069D01*
X132153999Y-61560394D01*
X132145645Y-61551560D01*
X132136902Y-61542565D01*
X132127770Y-61533409D01*
X132118248Y-61524094D01*
X132108337Y-61514618D01*
X132098037Y-61504982D01*
X132087348Y-61495185D01*
X132076269Y-61485228D01*
X132064801Y-61475112D01*
X132052944Y-61464834D01*
X132040697Y-61454397D01*
X132028061Y-61443799D01*
X132015036Y-61433041D01*
X132004882Y-61424608D01*
X131994936Y-61416286D01*
X131985198Y-61408074D01*
X131975668Y-61399972D01*
X131966345Y-61391981D01*
X131957231Y-61384100D01*
X131948325Y-61376328D01*
X131939627Y-61368667D01*
X131931136Y-61361117D01*
X131922854Y-61353676D01*
X131914780Y-61346346D01*
X131906913Y-61339125D01*
X131899255Y-61332015D01*
X131891805Y-61325016D01*
X131884562Y-61318126D01*
X131870701Y-61304677D01*
X131857673Y-61291670D01*
X131845476Y-61279103D01*
X131834111Y-61266976D01*
X131823578Y-61255291D01*
X131813877Y-61244046D01*
X131805008Y-61233242D01*
X131796971Y-61222879D01*
X131793264Y-61217863D01*
X131786254Y-61207974D01*
X131779697Y-61198152D01*
X131773592Y-61188396D01*
X131767939Y-61178708D01*
X131762738Y-61169086D01*
X131757990Y-61159531D01*
X131753694Y-61150042D01*
X131749850Y-61140621D01*
X131746458Y-61131266D01*
X131742218Y-61117359D01*
X131738996Y-61103603D01*
X131736792Y-61089997D01*
X131735605Y-61076541D01*
X131735378Y-61067653D01*
X131735842Y-61053938D01*
X131737233Y-61040634D01*
X131739552Y-61027743D01*
X131742797Y-61015263D01*
X131746970Y-61003196D01*
X131752071Y-60991541D01*
X131758099Y-60980298D01*
X131765054Y-60969468D01*
X131772936Y-60959049D01*
X131781746Y-60949043D01*
X131788135Y-60942601D01*
X131798260Y-60933478D01*
X131808943Y-60925253D01*
X131820185Y-60917925D01*
X131831984Y-60911494D01*
X131844342Y-60905961D01*
X131857258Y-60901325D01*
X131870731Y-60897586D01*
X131884763Y-60894745D01*
X131899354Y-60892801D01*
X131909390Y-60892003D01*
X131919675Y-60891604D01*
X131924911Y-60891554D01*
X131935946Y-60891773D01*
X131946702Y-60892428D01*
X131957180Y-60893521D01*
X131967379Y-60895050D01*
X131977299Y-60897016D01*
X131986941Y-60899420D01*
X131996304Y-60902260D01*
X132009827Y-60907340D01*
X132022723Y-60913403D01*
X132034991Y-60920449D01*
X132046633Y-60928478D01*
X132057649Y-60937490D01*
X132068037Y-60947486D01*
X132077603Y-60958353D01*
X132086241Y-60969980D01*
X132093952Y-60982367D01*
X132098577Y-60991047D01*
X132102790Y-61000065D01*
X132106591Y-61009421D01*
X132109980Y-61019114D01*
X132112957Y-61029145D01*
X132115521Y-61039514D01*
X132117674Y-61050221D01*
X132119414Y-61061265D01*
X132120742Y-61072647D01*
X132121658Y-61084367D01*
X132122162Y-61096425D01*
X132122259Y-61102580D01*
X132249265Y-61089147D01*
X132247365Y-61071162D01*
X132244900Y-61053720D01*
X132241869Y-61036822D01*
X132238274Y-61020469D01*
X132234115Y-61004659D01*
X132229390Y-60989393D01*
X132224101Y-60974670D01*
X132218247Y-60960492D01*
X132211828Y-60946857D01*
X132204844Y-60933766D01*
X132197295Y-60921219D01*
X132189182Y-60909216D01*
X132180503Y-60897757D01*
X132171260Y-60886841D01*
X132161452Y-60876469D01*
X132151080Y-60866642D01*
X132140197Y-60857355D01*
X132128857Y-60848667D01*
X132117062Y-60840578D01*
X132104811Y-60833089D01*
X132092104Y-60826198D01*
X132078940Y-60819907D01*
X132065321Y-60814215D01*
X132051245Y-60809122D01*
X132036714Y-60804629D01*
X132021726Y-60800734D01*
X132006283Y-60797439D01*
X131990383Y-60794743D01*
X131974028Y-60792645D01*
X131957216Y-60791148D01*
X131939948Y-60790249D01*
X131922224Y-60789949D01*
X131904355Y-60790265D01*
X131886958Y-60791212D01*
X131870032Y-60792791D01*
X131853577Y-60795002D01*
X131837593Y-60797844D01*
X131822081Y-60801318D01*
X131807040Y-60805423D01*
X131792470Y-60810160D01*
X131778372Y-60815529D01*
X131764745Y-60821529D01*
X131751589Y-60828161D01*
X131738905Y-60835424D01*
X131726692Y-60843319D01*
X131714950Y-60851846D01*
X131703679Y-60861004D01*
X131692880Y-60870794D01*
X131682647Y-60881050D01*
X131673074Y-60891608D01*
X131664161Y-60902467D01*
X131655908Y-60913628D01*
X131648315Y-60925090D01*
X131641383Y-60936854D01*
X131635111Y-60948919D01*
X131629499Y-60961286D01*
X131624548Y-60973954D01*
X131620256Y-60986923D01*
X131616625Y-61000195D01*
X131613654Y-61013767D01*
X131611343Y-61027641D01*
X131609693Y-61041817D01*
X131608702Y-61056294D01*
X131608372Y-61071073D01*
X131608589Y-61082459D01*
X131609239Y-61093810D01*
X131610323Y-61105127D01*
X131611841Y-61116410D01*
X131613792Y-61127659D01*
X131616177Y-61138873D01*
X131618996Y-61150053D01*
X131622248Y-61161198D01*
X131625934Y-61172310D01*
X131630053Y-61183386D01*
X131633041Y-61190752D01*
X131637954Y-61201799D01*
X131643442Y-61212957D01*
X131649506Y-61224227D01*
X131656145Y-61235608D01*
X131663359Y-61247102D01*
X131671148Y-61258707D01*
X131679513Y-61270423D01*
X131685409Y-61278296D01*
X131691561Y-61286219D01*
X131697969Y-61294191D01*
X131704632Y-61302213D01*
X131711551Y-61310284D01*
X131715106Y-61314339D01*
X131722578Y-61322649D01*
X131730642Y-61331336D01*
X131739301Y-61340402D01*
X131748552Y-61349845D01*
X131758397Y-61359667D01*
X131768836Y-61369866D01*
X131779868Y-61380443D01*
X131791493Y-61391397D01*
X131803712Y-61402730D01*
X131816524Y-61414440D01*
X131829930Y-61426528D01*
X131843929Y-61438994D01*
X131858522Y-61451838D01*
X131866040Y-61458401D01*
X131873708Y-61465059D01*
X131881523Y-61471812D01*
X131889487Y-61478659D01*
X131897599Y-61485600D01*
X131905860Y-61492636D01*
X131919441Y-61504214D01*
X131932402Y-61515316D01*
X131944743Y-61525944D01*
X131956464Y-61536096D01*
X131967565Y-61545773D01*
X131978045Y-61554975D01*
X131987905Y-61563702D01*
X131997146Y-61571954D01*
X132005766Y-61579730D01*
X132013766Y-61587032D01*
X132021145Y-61593858D01*
X132031052Y-61603207D01*
X132039564Y-61611487D01*
X132046680Y-61618697D01*
X132048742Y-61620863D01*
X132056447Y-61629297D01*
X132063809Y-61637747D01*
X132070827Y-61646211D01*
X132077502Y-61654691D01*
X132083833Y-61663186D01*
X132089821Y-61671696D01*
X132095465Y-61680222D01*
X132100766Y-61688763D01*
X131606907Y-61688763D01*
G37*
G36*
X120620955Y-60774457D02*
G01*
X120634038Y-60774875D01*
X120646967Y-60775571D01*
X120659744Y-60776546D01*
X120672368Y-60777800D01*
X120684840Y-60779332D01*
X120697159Y-60781143D01*
X120709325Y-60783233D01*
X120721339Y-60785601D01*
X120733200Y-60788247D01*
X120744909Y-60791172D01*
X120756464Y-60794376D01*
X120767867Y-60797859D01*
X120779118Y-60801619D01*
X120790216Y-60805659D01*
X120801161Y-60809977D01*
X120811953Y-60814574D01*
X120822593Y-60819449D01*
X120833080Y-60824603D01*
X120843415Y-60830036D01*
X120853597Y-60835747D01*
X120863626Y-60841736D01*
X120873502Y-60848005D01*
X120883226Y-60854551D01*
X120892798Y-60861377D01*
X120902216Y-60868481D01*
X120911482Y-60875864D01*
X120920595Y-60883525D01*
X120929556Y-60891465D01*
X120938364Y-60899683D01*
X120947019Y-60908180D01*
X120955522Y-60916956D01*
X120963802Y-60925962D01*
X120971819Y-60935183D01*
X120979573Y-60944618D01*
X120987064Y-60954267D01*
X120994292Y-60964131D01*
X121001258Y-60974209D01*
X121007960Y-60984500D01*
X121014400Y-60995006D01*
X121020577Y-61005727D01*
X121026491Y-61016661D01*
X121032142Y-61027810D01*
X121037531Y-61039172D01*
X121042656Y-61050749D01*
X121047519Y-61062540D01*
X121052119Y-61074546D01*
X121056456Y-61086765D01*
X121060530Y-61099199D01*
X121064341Y-61111847D01*
X121067889Y-61124709D01*
X121071175Y-61137785D01*
X121074198Y-61151076D01*
X121076958Y-61164581D01*
X121079455Y-61178299D01*
X121081689Y-61192232D01*
X121083660Y-61206380D01*
X121085369Y-61220741D01*
X121086814Y-61235317D01*
X121087997Y-61250107D01*
X121088917Y-61265111D01*
X121089574Y-61280329D01*
X121089969Y-61295761D01*
X121090100Y-61311408D01*
X121089875Y-61328023D01*
X121089199Y-61344529D01*
X121088074Y-61360927D01*
X121086497Y-61377216D01*
X121084471Y-61393396D01*
X121081994Y-61409467D01*
X121079067Y-61425430D01*
X121075690Y-61441284D01*
X121071862Y-61457029D01*
X121067584Y-61472665D01*
X121062855Y-61488193D01*
X121057677Y-61503612D01*
X121052048Y-61518922D01*
X121045968Y-61534123D01*
X121039439Y-61549215D01*
X121032459Y-61564199D01*
X121025012Y-61578932D01*
X121017144Y-61593272D01*
X121008854Y-61607218D01*
X121000142Y-61620772D01*
X120991009Y-61633932D01*
X120981454Y-61646700D01*
X120971477Y-61659074D01*
X120961079Y-61671055D01*
X120950259Y-61682644D01*
X120939017Y-61693839D01*
X120927353Y-61704641D01*
X120915268Y-61715050D01*
X120902761Y-61725065D01*
X120889832Y-61734688D01*
X120876482Y-61743918D01*
X120862710Y-61752755D01*
X120848579Y-61761095D01*
X120834214Y-61768897D01*
X120819613Y-61776162D01*
X120804779Y-61782888D01*
X120789709Y-61789076D01*
X120774405Y-61794726D01*
X120758866Y-61799838D01*
X120743092Y-61804412D01*
X120727084Y-61808448D01*
X120710840Y-61811945D01*
X120694363Y-61814905D01*
X120677650Y-61817326D01*
X120660703Y-61819210D01*
X120643521Y-61820555D01*
X120626104Y-61821362D01*
X120608453Y-61821631D01*
X120592128Y-61821387D01*
X120575942Y-61820654D01*
X120559896Y-61819433D01*
X120543988Y-61817723D01*
X120528220Y-61815525D01*
X120512592Y-61812838D01*
X120497102Y-61809663D01*
X120481752Y-61806000D01*
X120466541Y-61801847D01*
X120451470Y-61797207D01*
X120436538Y-61792078D01*
X120421745Y-61786460D01*
X120407091Y-61780354D01*
X120392577Y-61773759D01*
X120378202Y-61766676D01*
X120363966Y-61759105D01*
X120350001Y-61751059D01*
X120336439Y-61742554D01*
X120323280Y-61733588D01*
X120310523Y-61724163D01*
X120298168Y-61714278D01*
X120286217Y-61703933D01*
X120274668Y-61693128D01*
X120263521Y-61681863D01*
X120252777Y-61670138D01*
X120242436Y-61657954D01*
X120232498Y-61645310D01*
X120222962Y-61632205D01*
X120213828Y-61618641D01*
X120205097Y-61604617D01*
X120196769Y-61590134D01*
X120188844Y-61575190D01*
X120181332Y-61559860D01*
X120174304Y-61544278D01*
X120167761Y-61528444D01*
X120161702Y-61512359D01*
X120156129Y-61496021D01*
X120151040Y-61479432D01*
X120146435Y-61462590D01*
X120142316Y-61445497D01*
X120138681Y-61428152D01*
X120135530Y-61410555D01*
X120132865Y-61392706D01*
X120130684Y-61374606D01*
X120128987Y-61356253D01*
X120127776Y-61337649D01*
X120127049Y-61318792D01*
X120126806Y-61299684D01*
X120126818Y-61298707D01*
X120264315Y-61298707D01*
X120264410Y-61310878D01*
X120264695Y-61322874D01*
X120265169Y-61334695D01*
X120265834Y-61346342D01*
X120266688Y-61357814D01*
X120267732Y-61369112D01*
X120268967Y-61380235D01*
X120270390Y-61391184D01*
X120272004Y-61401957D01*
X120273808Y-61412557D01*
X120275801Y-61422981D01*
X120277985Y-61433231D01*
X120280358Y-61443307D01*
X120282921Y-61453208D01*
X120285674Y-61462934D01*
X120288617Y-61472486D01*
X120291750Y-61481863D01*
X120295072Y-61491066D01*
X120302287Y-61508947D01*
X120310261Y-61526130D01*
X120318995Y-61542614D01*
X120328488Y-61558400D01*
X120338740Y-61573488D01*
X120349752Y-61587877D01*
X120361524Y-61601568D01*
X120373883Y-61614493D01*
X120386658Y-61626584D01*
X120399849Y-61637841D01*
X120413456Y-61648264D01*
X120427479Y-61657854D01*
X120441918Y-61666609D01*
X120456773Y-61674531D01*
X120472043Y-61681619D01*
X120487730Y-61687873D01*
X120503833Y-61693293D01*
X120520352Y-61697879D01*
X120537287Y-61701631D01*
X120554638Y-61704550D01*
X120572404Y-61706635D01*
X120590587Y-61707885D01*
X120609186Y-61708302D01*
X120627432Y-61707889D01*
X120645292Y-61706650D01*
X120662764Y-61704584D01*
X120679848Y-61701693D01*
X120696546Y-61697975D01*
X120712855Y-61693430D01*
X120728778Y-61688060D01*
X120744313Y-61681863D01*
X120759461Y-61674840D01*
X120774221Y-61666991D01*
X120788595Y-61658316D01*
X120802580Y-61648814D01*
X120816179Y-61638486D01*
X120829390Y-61627332D01*
X120842214Y-61615352D01*
X120854650Y-61602545D01*
X120866510Y-61589021D01*
X120877605Y-61574889D01*
X120887935Y-61560147D01*
X120897499Y-61544797D01*
X120906299Y-61528838D01*
X120914333Y-61512271D01*
X120921602Y-61495095D01*
X120928106Y-61477310D01*
X120933845Y-61458916D01*
X120936427Y-61449491D01*
X120938818Y-61439914D01*
X120941018Y-61430184D01*
X120943027Y-61420303D01*
X120944844Y-61410269D01*
X120946470Y-61400083D01*
X120947905Y-61389745D01*
X120949148Y-61379255D01*
X120950200Y-61368612D01*
X120951061Y-61357818D01*
X120951730Y-61346871D01*
X120952209Y-61335772D01*
X120952496Y-61324521D01*
X120952591Y-61313117D01*
X120952492Y-61298912D01*
X120952193Y-61284963D01*
X120951696Y-61271270D01*
X120951000Y-61257835D01*
X120950105Y-61244655D01*
X120949011Y-61231733D01*
X120947718Y-61219067D01*
X120946226Y-61206658D01*
X120944535Y-61194506D01*
X120942645Y-61182610D01*
X120940556Y-61170970D01*
X120938269Y-61159588D01*
X120935782Y-61148462D01*
X120933097Y-61137593D01*
X120930212Y-61126980D01*
X120927129Y-61116624D01*
X120923847Y-61106525D01*
X120920366Y-61096682D01*
X120916685Y-61087096D01*
X120912806Y-61077767D01*
X120908728Y-61068694D01*
X120904452Y-61059878D01*
X120895301Y-61043015D01*
X120885355Y-61027180D01*
X120874613Y-61012371D01*
X120863075Y-60998588D01*
X120850742Y-60985832D01*
X120837826Y-60973942D01*
X120824600Y-60962820D01*
X120811066Y-60952464D01*
X120797222Y-60942876D01*
X120783070Y-60934054D01*
X120768608Y-60926000D01*
X120753837Y-60918713D01*
X120738757Y-60912193D01*
X120723367Y-60906440D01*
X120707669Y-60901454D01*
X120691662Y-60897235D01*
X120675345Y-60893783D01*
X120658719Y-60891098D01*
X120641785Y-60889181D01*
X120624541Y-60888030D01*
X120606988Y-60887646D01*
X120594637Y-60887846D01*
X120582437Y-60888444D01*
X120570388Y-60889441D01*
X120558490Y-60890837D01*
X120546743Y-60892631D01*
X120535146Y-60894825D01*
X120523700Y-60897417D01*
X120512405Y-60900408D01*
X120501260Y-60903798D01*
X120490266Y-60907587D01*
X120479423Y-60911774D01*
X120468731Y-60916360D01*
X120458189Y-60921345D01*
X120447799Y-60926729D01*
X120437558Y-60932512D01*
X120427469Y-60938693D01*
X120417606Y-60945207D01*
X120408044Y-60952046D01*
X120398784Y-60959212D01*
X120389825Y-60966705D01*
X120381168Y-60974523D01*
X120372812Y-60982668D01*
X120364758Y-60991140D01*
X120357005Y-60999937D01*
X120349554Y-61009061D01*
X120342404Y-61018511D01*
X120335556Y-61028287D01*
X120329009Y-61038390D01*
X120322763Y-61048819D01*
X120316820Y-61059574D01*
X120311177Y-61070656D01*
X120305836Y-61082064D01*
X120300808Y-61093758D01*
X120296105Y-61105698D01*
X120291725Y-61117884D01*
X120287671Y-61130317D01*
X120283940Y-61142996D01*
X120280534Y-61155920D01*
X120277453Y-61169091D01*
X120274695Y-61182509D01*
X120272262Y-61196172D01*
X120270154Y-61210081D01*
X120268370Y-61224237D01*
X120266910Y-61238639D01*
X120265775Y-61253287D01*
X120264964Y-61268181D01*
X120264477Y-61283321D01*
X120264315Y-61298707D01*
X120126818Y-61298707D01*
X120127036Y-61280820D01*
X120127726Y-61262208D01*
X120128876Y-61243848D01*
X120130485Y-61225740D01*
X120132554Y-61207883D01*
X120135084Y-61190279D01*
X120138073Y-61172926D01*
X120141522Y-61155825D01*
X120145431Y-61138976D01*
X120149799Y-61122379D01*
X120154628Y-61106034D01*
X120159916Y-61089941D01*
X120165665Y-61074099D01*
X120171873Y-61058510D01*
X120178541Y-61043172D01*
X120185669Y-61028086D01*
X120193205Y-61013303D01*
X120201159Y-60998933D01*
X120209531Y-60984978D01*
X120218321Y-60971437D01*
X120227529Y-60958310D01*
X120237154Y-60945597D01*
X120247198Y-60933298D01*
X120257659Y-60921413D01*
X120268539Y-60909942D01*
X120279836Y-60898885D01*
X120291551Y-60888243D01*
X120303684Y-60878014D01*
X120316235Y-60868200D01*
X120329203Y-60858799D01*
X120342590Y-60849813D01*
X120356394Y-60841240D01*
X120370485Y-60833136D01*
X120384792Y-60825555D01*
X120399313Y-60818497D01*
X120414051Y-60811962D01*
X120429004Y-60805949D01*
X120444173Y-60800459D01*
X120459558Y-60795492D01*
X120475158Y-60791048D01*
X120490973Y-60787127D01*
X120507005Y-60783729D01*
X120523251Y-60780853D01*
X120539714Y-60778500D01*
X120556392Y-60776670D01*
X120573286Y-60775363D01*
X120590395Y-60774579D01*
X120607720Y-60774318D01*
X120620955Y-60774457D01*
G37*
G36*
X119498858Y-61806000D02*
G01*
X119498858Y-61698777D01*
X119509751Y-61713654D01*
X119521122Y-61727571D01*
X119532970Y-61740528D01*
X119545295Y-61752526D01*
X119558096Y-61763563D01*
X119571375Y-61773641D01*
X119585131Y-61782759D01*
X119599364Y-61790918D01*
X119614074Y-61798116D01*
X119629261Y-61804355D01*
X119644925Y-61809634D01*
X119661066Y-61813953D01*
X119677684Y-61817312D01*
X119694779Y-61819711D01*
X119712351Y-61821151D01*
X119730400Y-61821631D01*
X119742415Y-61821412D01*
X119754280Y-61820755D01*
X119765994Y-61819660D01*
X119777558Y-61818128D01*
X119788972Y-61816157D01*
X119800235Y-61813748D01*
X119811349Y-61810902D01*
X119822312Y-61807618D01*
X119833124Y-61803895D01*
X119843787Y-61799735D01*
X119850812Y-61796718D01*
X119861048Y-61791936D01*
X119870781Y-61786929D01*
X119880013Y-61781700D01*
X119888742Y-61776248D01*
X119896969Y-61770572D01*
X119907156Y-61762657D01*
X119916451Y-61754345D01*
X119924852Y-61745636D01*
X119932361Y-61736531D01*
X119934099Y-61734192D01*
X119940624Y-61724525D01*
X119946647Y-61714332D01*
X119952165Y-61703612D01*
X119957180Y-61692366D01*
X119961690Y-61680592D01*
X119965698Y-61668292D01*
X119968372Y-61658722D01*
X119970764Y-61648855D01*
X119972200Y-61642113D01*
X119973975Y-61632282D01*
X119975513Y-61621108D01*
X119976814Y-61608590D01*
X119977635Y-61598321D01*
X119978323Y-61587295D01*
X119978877Y-61575514D01*
X119979299Y-61562978D01*
X119979587Y-61549686D01*
X119979742Y-61535638D01*
X119979772Y-61525853D01*
X119979772Y-61071317D01*
X119855941Y-61071317D01*
X119855941Y-61479203D01*
X119855911Y-61491166D01*
X119855823Y-61502631D01*
X119855675Y-61513598D01*
X119855468Y-61524067D01*
X119855201Y-61534038D01*
X119854691Y-61548061D01*
X119854048Y-61560963D01*
X119853272Y-61572744D01*
X119852362Y-61583406D01*
X119850942Y-61595877D01*
X119849286Y-61606357D01*
X119848369Y-61610849D01*
X119845087Y-61622794D01*
X119840981Y-61634083D01*
X119836050Y-61644715D01*
X119830295Y-61654691D01*
X119823716Y-61664010D01*
X119816312Y-61672673D01*
X119808085Y-61680680D01*
X119799032Y-61688030D01*
X119789289Y-61694613D01*
X119778989Y-61700319D01*
X119768132Y-61705146D01*
X119756717Y-61709096D01*
X119744746Y-61712168D01*
X119732217Y-61714363D01*
X119722454Y-61715432D01*
X119712379Y-61716008D01*
X119705487Y-61716118D01*
X119695150Y-61715867D01*
X119684928Y-61715113D01*
X119674822Y-61713858D01*
X119664832Y-61712100D01*
X119654958Y-61709839D01*
X119645200Y-61707076D01*
X119635558Y-61703811D01*
X119626032Y-61700044D01*
X119616622Y-61695774D01*
X119607327Y-61691002D01*
X119601196Y-61687542D01*
X119592288Y-61681955D01*
X119583882Y-61676004D01*
X119575979Y-61669688D01*
X119568578Y-61663007D01*
X119561679Y-61655961D01*
X119555283Y-61648550D01*
X119547536Y-61638101D01*
X119542311Y-61629838D01*
X119537589Y-61621211D01*
X119533370Y-61612218D01*
X119532075Y-61609140D01*
X119528452Y-61599450D01*
X119525186Y-61588975D01*
X119522275Y-61577715D01*
X119519722Y-61565668D01*
X119517524Y-61552836D01*
X119515683Y-61539219D01*
X119514198Y-61524815D01*
X119513406Y-61514776D01*
X119512773Y-61504388D01*
X119512298Y-61493651D01*
X119511981Y-61482565D01*
X119511823Y-61471129D01*
X119511803Y-61465281D01*
X119511803Y-61071317D01*
X119388216Y-61071317D01*
X119388216Y-61806000D01*
X119498858Y-61806000D01*
G37*
G36*
X118928307Y-61692671D02*
G01*
X118910477Y-61806000D01*
X118920178Y-61808793D01*
X118929682Y-61811312D01*
X118942047Y-61814243D01*
X118954061Y-61816685D01*
X118965723Y-61818639D01*
X118977035Y-61820105D01*
X118987995Y-61821081D01*
X118998605Y-61821570D01*
X119003778Y-61821631D01*
X119016151Y-61821442D01*
X119027992Y-61820875D01*
X119039301Y-61819931D01*
X119050077Y-61818609D01*
X119060321Y-61816908D01*
X119070032Y-61814830D01*
X119082153Y-61811472D01*
X119093327Y-61807442D01*
X119103555Y-61802740D01*
X119108314Y-61800138D01*
X119117251Y-61794493D01*
X119125502Y-61788429D01*
X119133066Y-61781945D01*
X119141555Y-61773250D01*
X119148970Y-61763899D01*
X119155313Y-61753892D01*
X119160581Y-61743229D01*
X119164073Y-61733219D01*
X119167100Y-61720774D01*
X119169064Y-61709842D01*
X119170766Y-61697541D01*
X119172207Y-61683871D01*
X119173021Y-61673996D01*
X119173720Y-61663513D01*
X119174302Y-61652421D01*
X119174767Y-61640720D01*
X119175117Y-61628410D01*
X119175349Y-61615492D01*
X119175466Y-61601965D01*
X119175480Y-61594974D01*
X119175480Y-61169014D01*
X119266339Y-61169014D01*
X119266339Y-61071317D01*
X119175480Y-61071317D01*
X119175480Y-60893997D01*
X119052626Y-60821212D01*
X119052626Y-61071317D01*
X118928307Y-61071317D01*
X118928307Y-61169014D01*
X119052626Y-61169014D01*
X119052626Y-61604988D01*
X119052570Y-61614813D01*
X119052322Y-61626851D01*
X119051876Y-61637676D01*
X119051039Y-61649501D01*
X119049891Y-61659429D01*
X119047764Y-61670143D01*
X119046276Y-61674597D01*
X119041367Y-61683618D01*
X119034884Y-61691446D01*
X119026827Y-61698081D01*
X119025027Y-61699265D01*
X119015641Y-61703634D01*
X119005612Y-61706317D01*
X118995534Y-61707738D01*
X118984241Y-61708294D01*
X118982528Y-61708302D01*
X118971446Y-61707325D01*
X118960396Y-61704868D01*
X118949921Y-61701570D01*
X118940482Y-61697983D01*
X118930400Y-61693633D01*
X118928307Y-61692671D01*
G37*
G36*
X118494083Y-61055795D02*
G01*
X118507024Y-61056371D01*
X118519597Y-61057441D01*
X118531800Y-61059004D01*
X118543634Y-61061062D01*
X118555098Y-61063613D01*
X118566194Y-61066657D01*
X118576920Y-61070196D01*
X118587277Y-61074228D01*
X118597264Y-61078754D01*
X118606883Y-61083773D01*
X118613102Y-61087393D01*
X118622279Y-61093231D01*
X118631277Y-61099558D01*
X118640094Y-61106374D01*
X118648731Y-61113680D01*
X118657187Y-61121475D01*
X118665463Y-61129760D01*
X118673559Y-61138534D01*
X118681474Y-61147797D01*
X118689209Y-61157550D01*
X118696764Y-61167793D01*
X118696764Y-61071317D01*
X118809360Y-61071317D01*
X118809360Y-62087367D01*
X118685773Y-62087367D01*
X118685773Y-61729551D01*
X118683787Y-61732026D01*
X118675498Y-61741659D01*
X118666659Y-61750864D01*
X118657271Y-61759641D01*
X118647334Y-61767991D01*
X118639520Y-61773973D01*
X118631397Y-61779715D01*
X118622965Y-61785216D01*
X118614224Y-61790477D01*
X118605173Y-61795497D01*
X118598957Y-61798662D01*
X118589451Y-61803026D01*
X118579726Y-61806931D01*
X118569782Y-61810376D01*
X118559619Y-61813362D01*
X118549237Y-61815889D01*
X118538636Y-61817956D01*
X118527816Y-61819564D01*
X118516777Y-61820712D01*
X118505520Y-61821401D01*
X118494043Y-61821631D01*
X118483511Y-61821444D01*
X118473042Y-61820883D01*
X118462636Y-61819948D01*
X118452293Y-61818639D01*
X118442012Y-61816956D01*
X118431795Y-61814899D01*
X118421641Y-61812468D01*
X118411550Y-61809663D01*
X118401521Y-61806484D01*
X118391556Y-61802931D01*
X118381654Y-61799004D01*
X118371814Y-61794703D01*
X118362038Y-61790028D01*
X118352325Y-61784979D01*
X118342674Y-61779556D01*
X118333087Y-61773759D01*
X118323643Y-61767582D01*
X118314486Y-61761078D01*
X118305615Y-61754248D01*
X118297030Y-61747091D01*
X118288732Y-61739608D01*
X118280720Y-61731799D01*
X118272993Y-61723664D01*
X118265554Y-61715202D01*
X118258400Y-61706414D01*
X118251533Y-61697300D01*
X118244951Y-61687859D01*
X118238656Y-61678093D01*
X118232648Y-61667999D01*
X118226925Y-61657580D01*
X118221489Y-61646834D01*
X118216339Y-61635762D01*
X118211459Y-61624409D01*
X118206893Y-61612880D01*
X118202643Y-61601175D01*
X118198707Y-61589295D01*
X118195087Y-61577239D01*
X118191781Y-61565008D01*
X118188790Y-61552601D01*
X118186114Y-61540019D01*
X118183752Y-61527261D01*
X118181706Y-61514328D01*
X118179974Y-61501219D01*
X118178557Y-61487934D01*
X118177455Y-61474474D01*
X118176668Y-61460839D01*
X118176196Y-61447027D01*
X118176039Y-61433041D01*
X118176042Y-61432796D01*
X118302556Y-61432796D01*
X118302786Y-61450875D01*
X118303476Y-61468353D01*
X118304626Y-61485229D01*
X118306235Y-61501505D01*
X118308305Y-61517179D01*
X118310834Y-61532253D01*
X118313823Y-61546725D01*
X118317272Y-61560596D01*
X118321181Y-61573867D01*
X118325550Y-61586536D01*
X118330378Y-61598604D01*
X118335667Y-61610071D01*
X118341415Y-61620937D01*
X118347623Y-61631202D01*
X118354291Y-61640866D01*
X118361419Y-61649928D01*
X118365106Y-61654241D01*
X118372618Y-61662456D01*
X118380316Y-61670122D01*
X118388198Y-61677242D01*
X118396266Y-61683813D01*
X118404518Y-61689837D01*
X118412956Y-61695314D01*
X118421579Y-61700243D01*
X118430387Y-61704624D01*
X118439380Y-61708457D01*
X118453217Y-61713181D01*
X118462673Y-61715645D01*
X118472314Y-61717562D01*
X118482140Y-61718931D01*
X118492151Y-61719752D01*
X118502347Y-61720026D01*
X118507392Y-61719960D01*
X118517341Y-61719431D01*
X118527103Y-61718374D01*
X118541395Y-61715798D01*
X118555267Y-61712032D01*
X118568718Y-61707076D01*
X118581748Y-61700932D01*
X118594358Y-61693598D01*
X118602530Y-61688048D01*
X118610516Y-61681970D01*
X118618315Y-61675363D01*
X118625926Y-61668227D01*
X118633351Y-61660563D01*
X118640588Y-61652371D01*
X118647480Y-61643626D01*
X118653926Y-61634304D01*
X118659929Y-61624407D01*
X118665486Y-61613933D01*
X118670599Y-61602883D01*
X118675267Y-61591257D01*
X118679491Y-61579054D01*
X118683270Y-61566275D01*
X118686604Y-61552920D01*
X118689494Y-61538989D01*
X118691940Y-61524481D01*
X118693940Y-61509397D01*
X118695496Y-61493737D01*
X118696608Y-61477501D01*
X118697275Y-61460688D01*
X118697497Y-61443299D01*
X118697259Y-61425884D01*
X118696547Y-61408994D01*
X118695359Y-61392629D01*
X118693696Y-61376788D01*
X118691558Y-61361473D01*
X118688945Y-61346682D01*
X118685856Y-61332415D01*
X118682293Y-61318674D01*
X118678254Y-61305457D01*
X118673741Y-61292765D01*
X118668752Y-61280598D01*
X118663288Y-61268955D01*
X118657349Y-61257837D01*
X118650934Y-61247244D01*
X118644045Y-61237176D01*
X118636681Y-61227632D01*
X118629008Y-61218641D01*
X118621194Y-61210230D01*
X118613239Y-61202399D01*
X118605143Y-61195148D01*
X118596905Y-61188477D01*
X118588527Y-61182386D01*
X118580007Y-61176876D01*
X118571346Y-61171945D01*
X118562543Y-61167594D01*
X118549075Y-61162156D01*
X118535289Y-61158023D01*
X118521186Y-61155195D01*
X118506764Y-61153673D01*
X118496974Y-61153383D01*
X118492004Y-61153451D01*
X118482198Y-61153997D01*
X118467822Y-61155838D01*
X118453845Y-61158908D01*
X118440267Y-61163206D01*
X118427089Y-61168731D01*
X118414310Y-61175485D01*
X118406012Y-61180669D01*
X118397892Y-61186399D01*
X118389950Y-61192675D01*
X118382184Y-61199497D01*
X118374597Y-61206864D01*
X118367186Y-61214777D01*
X118359953Y-61223236D01*
X118353003Y-61232212D01*
X118346501Y-61241737D01*
X118340447Y-61251812D01*
X118334842Y-61262437D01*
X118329685Y-61273611D01*
X118324977Y-61285335D01*
X118320717Y-61297608D01*
X118316906Y-61310431D01*
X118313543Y-61323803D01*
X118310628Y-61337725D01*
X118308162Y-61352196D01*
X118306144Y-61367217D01*
X118304574Y-61382788D01*
X118303453Y-61398908D01*
X118302781Y-61415577D01*
X118302556Y-61432796D01*
X118176042Y-61432796D01*
X118176181Y-61420009D01*
X118176607Y-61407109D01*
X118177318Y-61394341D01*
X118178313Y-61381704D01*
X118179593Y-61369199D01*
X118181156Y-61356825D01*
X118183004Y-61344584D01*
X118185137Y-61332474D01*
X118187553Y-61320495D01*
X118190254Y-61308649D01*
X118193240Y-61296933D01*
X118196509Y-61285350D01*
X118200063Y-61273898D01*
X118203901Y-61262578D01*
X118208024Y-61251390D01*
X118212431Y-61240333D01*
X118217117Y-61229497D01*
X118222078Y-61218969D01*
X118227314Y-61208751D01*
X118232825Y-61198842D01*
X118238611Y-61189242D01*
X118244671Y-61179952D01*
X118251006Y-61170970D01*
X118257616Y-61162297D01*
X118264500Y-61153934D01*
X118271660Y-61145880D01*
X118279094Y-61138135D01*
X118286803Y-61130699D01*
X118294786Y-61123572D01*
X118303045Y-61116754D01*
X118311578Y-61110245D01*
X118320386Y-61104046D01*
X118329388Y-61098189D01*
X118338563Y-61092711D01*
X118347912Y-61087611D01*
X118357435Y-61082888D01*
X118367131Y-61078543D01*
X118377001Y-61074576D01*
X118387044Y-61070987D01*
X118397262Y-61067775D01*
X118407652Y-61064942D01*
X118418217Y-61062486D01*
X118428955Y-61060408D01*
X118439867Y-61058708D01*
X118450952Y-61057386D01*
X118462211Y-61056441D01*
X118473644Y-61055874D01*
X118485250Y-61055685D01*
X118494083Y-61055795D01*
G37*
G36*
X117552731Y-61806000D02*
G01*
X117552731Y-61698777D01*
X117563624Y-61713654D01*
X117574995Y-61727571D01*
X117586843Y-61740528D01*
X117599168Y-61752526D01*
X117611969Y-61763563D01*
X117625248Y-61773641D01*
X117639004Y-61782759D01*
X117653237Y-61790918D01*
X117667947Y-61798116D01*
X117683134Y-61804355D01*
X117698798Y-61809634D01*
X117714939Y-61813953D01*
X117731557Y-61817312D01*
X117748652Y-61819711D01*
X117766224Y-61821151D01*
X117784273Y-61821631D01*
X117796288Y-61821412D01*
X117808153Y-61820755D01*
X117819867Y-61819660D01*
X117831431Y-61818128D01*
X117842845Y-61816157D01*
X117854108Y-61813748D01*
X117865222Y-61810902D01*
X117876185Y-61807618D01*
X117886997Y-61803895D01*
X117897660Y-61799735D01*
X117904685Y-61796718D01*
X117914921Y-61791936D01*
X117924654Y-61786929D01*
X117933886Y-61781700D01*
X117942615Y-61776248D01*
X117950842Y-61770572D01*
X117961029Y-61762657D01*
X117970324Y-61754345D01*
X117978725Y-61745636D01*
X117986234Y-61736531D01*
X117987972Y-61734192D01*
X117994497Y-61724525D01*
X118000520Y-61714332D01*
X118006038Y-61703612D01*
X118011053Y-61692366D01*
X118015563Y-61680592D01*
X118019571Y-61668292D01*
X118022245Y-61658722D01*
X118024637Y-61648855D01*
X118026073Y-61642113D01*
X118027848Y-61632282D01*
X118029386Y-61621108D01*
X118030687Y-61608590D01*
X118031508Y-61598321D01*
X118032196Y-61587295D01*
X118032750Y-61575514D01*
X118033172Y-61562978D01*
X118033460Y-61549686D01*
X118033615Y-61535638D01*
X118033645Y-61525853D01*
X118033645Y-61071317D01*
X117909814Y-61071317D01*
X117909814Y-61479203D01*
X117909784Y-61491166D01*
X117909696Y-61502631D01*
X117909548Y-61513598D01*
X117909341Y-61524067D01*
X117909074Y-61534038D01*
X117908564Y-61548061D01*
X117907921Y-61560963D01*
X117907145Y-61572744D01*
X117906235Y-61583406D01*
X117904815Y-61595877D01*
X117903159Y-61606357D01*
X117902242Y-61610849D01*
X117898960Y-61622794D01*
X117894854Y-61634083D01*
X117889923Y-61644715D01*
X117884168Y-61654691D01*
X117877589Y-61664010D01*
X117870185Y-61672673D01*
X117861958Y-61680680D01*
X117852905Y-61688030D01*
X117843162Y-61694613D01*
X117832862Y-61700319D01*
X117822005Y-61705146D01*
X117810590Y-61709096D01*
X117798619Y-61712168D01*
X117786090Y-61714363D01*
X117776327Y-61715432D01*
X117766252Y-61716008D01*
X117759360Y-61716118D01*
X117749023Y-61715867D01*
X117738801Y-61715113D01*
X117728695Y-61713858D01*
X117718705Y-61712100D01*
X117708831Y-61709839D01*
X117699073Y-61707076D01*
X117689431Y-61703811D01*
X117679905Y-61700044D01*
X117670495Y-61695774D01*
X117661200Y-61691002D01*
X117655069Y-61687542D01*
X117646161Y-61681955D01*
X117637755Y-61676004D01*
X117629852Y-61669688D01*
X117622451Y-61663007D01*
X117615552Y-61655961D01*
X117609156Y-61648550D01*
X117601409Y-61638101D01*
X117596184Y-61629838D01*
X117591462Y-61621211D01*
X117587243Y-61612218D01*
X117585948Y-61609140D01*
X117582325Y-61599450D01*
X117579058Y-61588975D01*
X117576148Y-61577715D01*
X117573595Y-61565668D01*
X117571397Y-61552836D01*
X117569556Y-61539219D01*
X117568071Y-61524815D01*
X117567279Y-61514776D01*
X117566646Y-61504388D01*
X117566171Y-61493651D01*
X117565854Y-61482565D01*
X117565696Y-61471129D01*
X117565676Y-61465281D01*
X117565676Y-61071317D01*
X117442089Y-61071317D01*
X117442089Y-61806000D01*
X117552731Y-61806000D01*
G37*
G36*
X116982180Y-61692671D02*
G01*
X116964350Y-61806000D01*
X116974051Y-61808793D01*
X116983555Y-61811312D01*
X116995920Y-61814243D01*
X117007934Y-61816685D01*
X117019596Y-61818639D01*
X117030908Y-61820105D01*
X117041868Y-61821081D01*
X117052478Y-61821570D01*
X117057651Y-61821631D01*
X117070024Y-61821442D01*
X117081865Y-61820875D01*
X117093174Y-61819931D01*
X117103950Y-61818609D01*
X117114194Y-61816908D01*
X117123905Y-61814830D01*
X117136026Y-61811472D01*
X117147200Y-61807442D01*
X117157428Y-61802740D01*
X117162187Y-61800138D01*
X117171124Y-61794493D01*
X117179375Y-61788429D01*
X117186939Y-61781945D01*
X117195428Y-61773250D01*
X117202843Y-61763899D01*
X117209186Y-61753892D01*
X117214454Y-61743229D01*
X117217946Y-61733219D01*
X117220973Y-61720774D01*
X117222937Y-61709842D01*
X117224639Y-61697541D01*
X117226080Y-61683871D01*
X117226894Y-61673996D01*
X117227593Y-61663513D01*
X117228175Y-61652421D01*
X117228640Y-61640720D01*
X117228990Y-61628410D01*
X117229222Y-61615492D01*
X117229339Y-61601965D01*
X117229353Y-61594974D01*
X117229353Y-61169014D01*
X117320212Y-61169014D01*
X117320212Y-61071317D01*
X117229353Y-61071317D01*
X117229353Y-60893997D01*
X117106499Y-60821212D01*
X117106499Y-61071317D01*
X116982180Y-61071317D01*
X116982180Y-61169014D01*
X117106499Y-61169014D01*
X117106499Y-61604988D01*
X117106443Y-61614813D01*
X117106195Y-61626851D01*
X117105749Y-61637676D01*
X117104912Y-61649501D01*
X117103764Y-61659429D01*
X117101637Y-61670143D01*
X117100149Y-61674597D01*
X117095240Y-61683618D01*
X117088757Y-61691446D01*
X117080700Y-61698081D01*
X117078900Y-61699265D01*
X117069514Y-61703634D01*
X117059485Y-61706317D01*
X117049407Y-61707738D01*
X117038114Y-61708294D01*
X117036401Y-61708302D01*
X117025319Y-61707325D01*
X117014269Y-61704868D01*
X117003794Y-61701570D01*
X116994355Y-61697983D01*
X116984273Y-61693633D01*
X116982180Y-61692671D01*
G37*
G36*
X116043066Y-61806000D02*
G01*
X116166653Y-61806000D01*
X116166653Y-61014164D01*
X116175278Y-61022270D01*
X116184393Y-61030376D01*
X116193997Y-61038482D01*
X116204091Y-61046587D01*
X116214674Y-61054693D01*
X116225746Y-61062799D01*
X116237308Y-61070905D01*
X116249359Y-61079011D01*
X116257666Y-61084415D01*
X116266189Y-61089818D01*
X116274930Y-61095222D01*
X116283889Y-61100626D01*
X116292899Y-61105916D01*
X116301791Y-61111037D01*
X116310568Y-61115991D01*
X116319228Y-61120776D01*
X116332000Y-61127640D01*
X116344510Y-61134126D01*
X116356758Y-61140234D01*
X116368745Y-61145964D01*
X116380469Y-61151316D01*
X116391931Y-61156291D01*
X116403132Y-61160887D01*
X116414071Y-61165106D01*
X116414071Y-61040054D01*
X116401197Y-61033930D01*
X116388528Y-61027647D01*
X116376063Y-61021206D01*
X116363802Y-61014607D01*
X116351746Y-61007849D01*
X116339893Y-61000933D01*
X116328245Y-60993859D01*
X116316801Y-60986626D01*
X116305561Y-60979235D01*
X116294525Y-60971685D01*
X116283694Y-60963977D01*
X116273066Y-60956111D01*
X116262643Y-60948086D01*
X116252424Y-60939903D01*
X116242409Y-60931561D01*
X116232598Y-60923062D01*
X116223067Y-60914499D01*
X116213891Y-60905968D01*
X116205069Y-60897470D01*
X116196603Y-60889005D01*
X116188491Y-60880572D01*
X116180735Y-60872171D01*
X116173333Y-60863803D01*
X116166286Y-60855467D01*
X116159594Y-60847164D01*
X116153257Y-60838893D01*
X116147275Y-60830655D01*
X116141648Y-60822449D01*
X116133873Y-60810201D01*
X116126896Y-60798025D01*
X116122689Y-60789949D01*
X116043066Y-60789949D01*
X116043066Y-61806000D01*
G37*
G36*
X120518841Y-107018000D02*
G01*
X120518841Y-106001949D01*
X120385484Y-106001949D01*
X120385484Y-107018000D01*
X120518841Y-107018000D01*
G37*
G36*
X120168353Y-107018000D02*
G01*
X120168353Y-106283317D01*
X120057222Y-106283317D01*
X120057222Y-106386387D01*
X120046898Y-106372013D01*
X120036015Y-106358567D01*
X120024573Y-106346047D01*
X120012571Y-106334455D01*
X120000011Y-106323791D01*
X119986892Y-106314053D01*
X119973213Y-106305244D01*
X119958975Y-106297361D01*
X119944179Y-106290406D01*
X119928823Y-106284378D01*
X119912908Y-106279277D01*
X119896434Y-106275104D01*
X119879401Y-106271859D01*
X119861809Y-106269540D01*
X119843658Y-106268149D01*
X119824947Y-106267685D01*
X119812677Y-106267896D01*
X119800595Y-106268527D01*
X119788703Y-106269579D01*
X119776999Y-106271051D01*
X119765485Y-106272945D01*
X119754159Y-106275259D01*
X119743022Y-106277994D01*
X119732074Y-106281149D01*
X119721315Y-106284726D01*
X119710745Y-106288723D01*
X119703803Y-106291621D01*
X119693654Y-106296197D01*
X119683999Y-106301038D01*
X119674838Y-106306146D01*
X119666170Y-106311519D01*
X119657996Y-106317159D01*
X119647866Y-106325094D01*
X119638613Y-106333501D01*
X119630239Y-106342381D01*
X119622742Y-106351735D01*
X119621004Y-106354147D01*
X119614364Y-106364024D01*
X119608243Y-106374359D01*
X119602640Y-106385151D01*
X119597557Y-106396401D01*
X119592993Y-106408110D01*
X119588948Y-106420276D01*
X119586254Y-106429701D01*
X119583853Y-106439384D01*
X119582414Y-106445983D01*
X119580444Y-106458015D01*
X119579108Y-106469469D01*
X119577986Y-106482550D01*
X119577285Y-106493427D01*
X119576704Y-106505219D01*
X119576243Y-106517925D01*
X119575902Y-106531545D01*
X119575682Y-106546080D01*
X119575602Y-106556278D01*
X119575575Y-106566883D01*
X119575575Y-107018000D01*
X119699162Y-107018000D01*
X119699162Y-106570058D01*
X119699289Y-106556109D01*
X119699669Y-106542838D01*
X119700302Y-106530246D01*
X119701189Y-106518332D01*
X119702328Y-106507096D01*
X119703722Y-106496539D01*
X119705368Y-106486660D01*
X119707957Y-106474543D01*
X119710997Y-106463633D01*
X119713572Y-106456241D01*
X119717526Y-106447017D01*
X119722182Y-106438274D01*
X119727540Y-106430012D01*
X119733600Y-106422230D01*
X119740363Y-106414930D01*
X119747827Y-106408110D01*
X119755994Y-106401771D01*
X119764863Y-106395913D01*
X119774225Y-106390589D01*
X119783991Y-106385975D01*
X119794161Y-106382071D01*
X119804736Y-106378877D01*
X119815716Y-106376393D01*
X119827100Y-106374618D01*
X119838888Y-106373553D01*
X119851081Y-106373198D01*
X119860858Y-106373396D01*
X119875210Y-106374433D01*
X119889183Y-106376358D01*
X119902779Y-106379173D01*
X119915996Y-106382876D01*
X119928836Y-106387467D01*
X119941298Y-106392948D01*
X119953383Y-106399317D01*
X119965089Y-106406575D01*
X119976418Y-106414721D01*
X119987369Y-106423757D01*
X119997626Y-106434037D01*
X120003904Y-106441780D01*
X120009733Y-106450235D01*
X120015114Y-106459402D01*
X120020047Y-106469281D01*
X120024531Y-106479871D01*
X120028567Y-106491173D01*
X120032154Y-106503186D01*
X120035293Y-106515912D01*
X120037983Y-106529349D01*
X120040226Y-106543498D01*
X120042019Y-106558359D01*
X120043364Y-106573931D01*
X120044261Y-106590215D01*
X120044710Y-106607211D01*
X120044766Y-106615976D01*
X120044766Y-107018000D01*
X120168353Y-107018000D01*
G37*
G36*
X119074429Y-106267795D02*
G01*
X119087370Y-106268371D01*
X119099943Y-106269441D01*
X119112146Y-106271004D01*
X119123980Y-106273062D01*
X119135444Y-106275613D01*
X119146540Y-106278657D01*
X119157266Y-106282196D01*
X119167623Y-106286228D01*
X119177611Y-106290754D01*
X119187229Y-106295773D01*
X119193448Y-106299393D01*
X119202625Y-106305231D01*
X119211623Y-106311558D01*
X119220440Y-106318374D01*
X119229077Y-106325680D01*
X119237533Y-106333475D01*
X119245809Y-106341760D01*
X119253905Y-106350534D01*
X119261820Y-106359797D01*
X119269556Y-106369550D01*
X119277110Y-106379793D01*
X119277110Y-106283317D01*
X119389706Y-106283317D01*
X119389706Y-107299367D01*
X119266120Y-107299367D01*
X119266120Y-106941551D01*
X119264133Y-106944026D01*
X119255844Y-106953659D01*
X119247006Y-106962864D01*
X119237618Y-106971641D01*
X119227680Y-106979991D01*
X119219866Y-106985973D01*
X119211743Y-106991715D01*
X119203311Y-106997216D01*
X119194570Y-107002477D01*
X119185519Y-107007497D01*
X119179304Y-107010662D01*
X119169797Y-107015026D01*
X119160072Y-107018931D01*
X119150128Y-107022376D01*
X119139965Y-107025362D01*
X119129583Y-107027889D01*
X119118982Y-107029956D01*
X119108162Y-107031564D01*
X119097124Y-107032712D01*
X119085866Y-107033401D01*
X119074389Y-107033631D01*
X119063857Y-107033444D01*
X119053388Y-107032883D01*
X119042982Y-107031948D01*
X119032639Y-107030639D01*
X119022358Y-107028956D01*
X119012141Y-107026899D01*
X119001987Y-107024468D01*
X118991896Y-107021663D01*
X118981868Y-107018484D01*
X118971902Y-107014931D01*
X118962000Y-107011004D01*
X118952161Y-107006703D01*
X118942384Y-107002028D01*
X118932671Y-106996979D01*
X118923020Y-106991556D01*
X118913433Y-106985759D01*
X118903989Y-106979582D01*
X118894832Y-106973078D01*
X118885961Y-106966248D01*
X118877377Y-106959091D01*
X118869078Y-106951608D01*
X118861066Y-106943799D01*
X118853340Y-106935664D01*
X118845900Y-106927202D01*
X118838746Y-106918414D01*
X118831879Y-106909300D01*
X118825297Y-106899859D01*
X118819002Y-106890093D01*
X118812994Y-106879999D01*
X118807271Y-106869580D01*
X118801835Y-106858834D01*
X118796685Y-106847762D01*
X118791805Y-106836409D01*
X118787239Y-106824880D01*
X118782989Y-106813175D01*
X118779053Y-106801295D01*
X118775433Y-106789239D01*
X118772127Y-106777008D01*
X118769136Y-106764601D01*
X118766460Y-106752019D01*
X118764098Y-106739261D01*
X118762052Y-106726328D01*
X118760320Y-106713219D01*
X118758903Y-106699934D01*
X118757802Y-106686474D01*
X118757014Y-106672839D01*
X118756542Y-106659027D01*
X118756385Y-106645041D01*
X118756388Y-106644796D01*
X118882903Y-106644796D01*
X118883132Y-106662875D01*
X118883822Y-106680353D01*
X118884972Y-106697229D01*
X118886581Y-106713505D01*
X118888651Y-106729179D01*
X118891180Y-106744253D01*
X118894169Y-106758725D01*
X118897618Y-106772596D01*
X118901527Y-106785867D01*
X118905896Y-106798536D01*
X118910724Y-106810604D01*
X118916013Y-106822071D01*
X118921761Y-106832937D01*
X118927969Y-106843202D01*
X118934637Y-106852866D01*
X118941765Y-106861928D01*
X118945452Y-106866241D01*
X118952964Y-106874456D01*
X118960662Y-106882122D01*
X118968544Y-106889242D01*
X118976612Y-106895813D01*
X118984865Y-106901837D01*
X118993302Y-106907314D01*
X119001925Y-106912243D01*
X119010733Y-106916624D01*
X119019726Y-106920457D01*
X119033563Y-106925181D01*
X119043019Y-106927645D01*
X119052660Y-106929562D01*
X119062486Y-106930931D01*
X119072497Y-106931752D01*
X119082693Y-106932026D01*
X119087738Y-106931960D01*
X119097687Y-106931431D01*
X119107449Y-106930374D01*
X119121741Y-106927798D01*
X119135613Y-106924032D01*
X119149064Y-106919076D01*
X119162094Y-106912932D01*
X119174704Y-106905598D01*
X119182877Y-106900048D01*
X119190862Y-106893970D01*
X119198661Y-106887363D01*
X119206272Y-106880227D01*
X119213697Y-106872563D01*
X119220935Y-106864371D01*
X119227826Y-106855626D01*
X119234273Y-106846304D01*
X119240275Y-106836407D01*
X119245832Y-106825933D01*
X119250945Y-106814883D01*
X119255613Y-106803257D01*
X119259837Y-106791054D01*
X119263616Y-106778275D01*
X119266951Y-106764920D01*
X119269840Y-106750989D01*
X119272286Y-106736481D01*
X119274286Y-106721397D01*
X119275842Y-106705737D01*
X119276954Y-106689501D01*
X119277621Y-106672688D01*
X119277843Y-106655299D01*
X119277606Y-106637884D01*
X119276893Y-106620994D01*
X119275705Y-106604629D01*
X119274042Y-106588788D01*
X119271904Y-106573473D01*
X119269291Y-106558682D01*
X119266203Y-106544415D01*
X119262639Y-106530674D01*
X119258600Y-106517457D01*
X119254087Y-106504765D01*
X119249098Y-106492598D01*
X119243634Y-106480955D01*
X119237695Y-106469837D01*
X119231281Y-106459244D01*
X119224391Y-106449176D01*
X119217027Y-106439632D01*
X119209354Y-106430641D01*
X119201540Y-106422230D01*
X119193585Y-106414399D01*
X119185489Y-106407148D01*
X119177251Y-106400477D01*
X119168873Y-106394386D01*
X119160353Y-106388876D01*
X119151692Y-106383945D01*
X119142889Y-106379594D01*
X119129421Y-106374156D01*
X119115635Y-106370023D01*
X119101532Y-106367195D01*
X119087111Y-106365673D01*
X119077320Y-106365383D01*
X119072350Y-106365451D01*
X119062544Y-106365997D01*
X119048168Y-106367838D01*
X119034191Y-106370908D01*
X119020613Y-106375206D01*
X119007435Y-106380731D01*
X118994656Y-106387485D01*
X118986358Y-106392669D01*
X118978238Y-106398399D01*
X118970296Y-106404675D01*
X118962530Y-106411497D01*
X118954943Y-106418864D01*
X118947532Y-106426777D01*
X118940300Y-106435236D01*
X118933349Y-106444212D01*
X118926847Y-106453737D01*
X118920794Y-106463812D01*
X118915188Y-106474437D01*
X118910032Y-106485611D01*
X118905323Y-106497335D01*
X118901063Y-106509608D01*
X118897252Y-106522431D01*
X118893889Y-106535803D01*
X118890974Y-106549725D01*
X118888508Y-106564196D01*
X118886490Y-106579217D01*
X118884920Y-106594788D01*
X118883799Y-106610908D01*
X118883127Y-106627577D01*
X118882903Y-106644796D01*
X118756388Y-106644796D01*
X118756527Y-106632009D01*
X118756953Y-106619109D01*
X118757664Y-106606341D01*
X118758659Y-106593704D01*
X118759939Y-106581199D01*
X118761502Y-106568825D01*
X118763350Y-106556584D01*
X118765483Y-106544474D01*
X118767899Y-106532495D01*
X118770600Y-106520649D01*
X118773586Y-106508933D01*
X118776855Y-106497350D01*
X118780409Y-106485898D01*
X118784247Y-106474578D01*
X118788370Y-106463390D01*
X118792777Y-106452333D01*
X118797463Y-106441497D01*
X118802424Y-106430969D01*
X118807660Y-106420751D01*
X118813171Y-106410842D01*
X118818957Y-106401242D01*
X118825017Y-106391952D01*
X118831352Y-106382970D01*
X118837962Y-106374297D01*
X118844846Y-106365934D01*
X118852006Y-106357880D01*
X118859440Y-106350135D01*
X118867149Y-106342699D01*
X118875133Y-106335572D01*
X118883391Y-106328754D01*
X118891924Y-106322245D01*
X118900732Y-106316046D01*
X118909734Y-106310189D01*
X118918909Y-106304711D01*
X118928258Y-106299611D01*
X118937781Y-106294888D01*
X118947477Y-106290543D01*
X118957347Y-106286576D01*
X118967390Y-106282987D01*
X118977608Y-106279775D01*
X118987998Y-106276942D01*
X118998563Y-106274486D01*
X119009301Y-106272408D01*
X119020213Y-106270708D01*
X119031298Y-106269386D01*
X119042557Y-106268441D01*
X119053990Y-106267874D01*
X119065596Y-106267685D01*
X119074429Y-106267795D01*
G37*
G36*
X118133077Y-107018000D02*
G01*
X118133077Y-106910777D01*
X118143971Y-106925654D01*
X118155341Y-106939571D01*
X118167189Y-106952528D01*
X118179514Y-106964526D01*
X118192315Y-106975563D01*
X118205594Y-106985641D01*
X118219350Y-106994759D01*
X118233583Y-107002918D01*
X118248293Y-107010116D01*
X118263480Y-107016355D01*
X118279144Y-107021634D01*
X118295285Y-107025953D01*
X118311903Y-107029312D01*
X118328998Y-107031711D01*
X118346570Y-107033151D01*
X118364619Y-107033631D01*
X118376634Y-107033412D01*
X118388499Y-107032755D01*
X118400213Y-107031660D01*
X118411777Y-107030128D01*
X118423191Y-107028157D01*
X118434455Y-107025748D01*
X118445568Y-107022902D01*
X118456531Y-107019618D01*
X118467344Y-107015895D01*
X118478006Y-107011735D01*
X118485031Y-107008718D01*
X118495267Y-107003936D01*
X118505001Y-106998929D01*
X118514232Y-106993700D01*
X118522961Y-106988248D01*
X118531188Y-106982572D01*
X118541375Y-106974657D01*
X118550670Y-106966345D01*
X118559072Y-106957636D01*
X118566580Y-106948531D01*
X118568318Y-106946192D01*
X118574844Y-106936525D01*
X118580866Y-106926332D01*
X118586384Y-106915612D01*
X118591399Y-106904366D01*
X118595910Y-106892592D01*
X118599917Y-106880292D01*
X118602591Y-106870722D01*
X118604983Y-106860855D01*
X118606420Y-106854113D01*
X118608194Y-106844282D01*
X118609732Y-106833108D01*
X118611033Y-106820590D01*
X118611854Y-106810321D01*
X118612542Y-106799295D01*
X118613096Y-106787514D01*
X118613518Y-106774978D01*
X118613806Y-106761686D01*
X118613962Y-106747638D01*
X118613991Y-106737853D01*
X118613991Y-106283317D01*
X118490160Y-106283317D01*
X118490160Y-106691203D01*
X118490130Y-106703166D01*
X118490042Y-106714631D01*
X118489894Y-106725598D01*
X118489687Y-106736067D01*
X118489421Y-106746038D01*
X118488910Y-106760061D01*
X118488267Y-106772963D01*
X118487491Y-106784744D01*
X118486581Y-106795406D01*
X118485162Y-106807877D01*
X118483505Y-106818357D01*
X118482588Y-106822849D01*
X118479306Y-106834794D01*
X118475200Y-106846083D01*
X118470269Y-106856715D01*
X118464515Y-106866691D01*
X118457935Y-106876010D01*
X118450532Y-106884673D01*
X118442304Y-106892680D01*
X118433251Y-106900030D01*
X118423508Y-106906613D01*
X118413208Y-106912319D01*
X118402351Y-106917146D01*
X118390936Y-106921096D01*
X118378965Y-106924168D01*
X118366436Y-106926363D01*
X118356673Y-106927432D01*
X118346598Y-106928008D01*
X118339706Y-106928118D01*
X118329369Y-106927867D01*
X118319147Y-106927113D01*
X118309041Y-106925858D01*
X118299051Y-106924100D01*
X118289177Y-106921839D01*
X118279419Y-106919076D01*
X118269777Y-106915811D01*
X118260251Y-106912044D01*
X118250841Y-106907774D01*
X118241547Y-106903002D01*
X118235415Y-106899542D01*
X118226507Y-106893955D01*
X118218101Y-106888004D01*
X118210198Y-106881688D01*
X118202797Y-106875007D01*
X118195898Y-106867961D01*
X118189502Y-106860550D01*
X118181755Y-106850101D01*
X118176530Y-106841838D01*
X118171809Y-106833211D01*
X118167589Y-106824218D01*
X118166294Y-106821140D01*
X118162671Y-106811450D01*
X118159405Y-106800975D01*
X118156494Y-106789715D01*
X118153941Y-106777668D01*
X118151743Y-106764836D01*
X118149902Y-106751219D01*
X118148417Y-106736815D01*
X118147625Y-106726776D01*
X118146992Y-106716388D01*
X118146517Y-106705651D01*
X118146200Y-106694565D01*
X118146042Y-106683129D01*
X118146022Y-106677281D01*
X118146022Y-106283317D01*
X118022435Y-106283317D01*
X118022435Y-107018000D01*
X118133077Y-107018000D01*
G37*
G36*
X117562526Y-106904671D02*
G01*
X117544696Y-107018000D01*
X117554397Y-107020793D01*
X117563901Y-107023312D01*
X117576266Y-107026243D01*
X117588280Y-107028685D01*
X117599943Y-107030639D01*
X117611254Y-107032105D01*
X117622214Y-107033081D01*
X117632824Y-107033570D01*
X117637997Y-107033631D01*
X117650370Y-107033442D01*
X117662211Y-107032875D01*
X117673520Y-107031931D01*
X117684296Y-107030609D01*
X117694540Y-107028908D01*
X117704251Y-107026830D01*
X117716372Y-107023472D01*
X117727546Y-107019442D01*
X117737774Y-107014740D01*
X117742533Y-107012138D01*
X117751470Y-107006493D01*
X117759721Y-107000429D01*
X117767285Y-106993945D01*
X117775774Y-106985250D01*
X117783190Y-106975899D01*
X117789532Y-106965892D01*
X117794801Y-106955229D01*
X117798293Y-106945219D01*
X117801319Y-106932774D01*
X117803283Y-106921842D01*
X117804985Y-106909541D01*
X117806426Y-106895871D01*
X117807241Y-106885996D01*
X117807939Y-106875513D01*
X117808521Y-106864421D01*
X117808986Y-106852720D01*
X117809336Y-106840410D01*
X117809568Y-106827492D01*
X117809685Y-106813965D01*
X117809699Y-106806974D01*
X117809699Y-106381014D01*
X117900558Y-106381014D01*
X117900558Y-106283317D01*
X117809699Y-106283317D01*
X117809699Y-106105997D01*
X117686845Y-106033212D01*
X117686845Y-106283317D01*
X117562526Y-106283317D01*
X117562526Y-106381014D01*
X117686845Y-106381014D01*
X117686845Y-106816988D01*
X117686789Y-106826813D01*
X117686541Y-106838851D01*
X117686095Y-106849676D01*
X117685258Y-106861501D01*
X117684110Y-106871429D01*
X117681983Y-106882143D01*
X117680495Y-106886597D01*
X117675586Y-106895618D01*
X117669103Y-106903446D01*
X117661046Y-106910081D01*
X117659246Y-106911265D01*
X117649861Y-106915634D01*
X117639831Y-106918317D01*
X117629754Y-106919738D01*
X117618460Y-106920294D01*
X117616748Y-106920302D01*
X117605665Y-106919325D01*
X117594615Y-106916868D01*
X117584140Y-106913570D01*
X117574702Y-106909983D01*
X117564619Y-106905633D01*
X117562526Y-106904671D01*
G37*
G36*
X116623412Y-107018000D02*
G01*
X116746999Y-107018000D01*
X116746999Y-106226164D01*
X116755624Y-106234270D01*
X116764739Y-106242376D01*
X116774343Y-106250482D01*
X116784437Y-106258587D01*
X116795020Y-106266693D01*
X116806092Y-106274799D01*
X116817654Y-106282905D01*
X116829706Y-106291011D01*
X116838012Y-106296415D01*
X116846535Y-106301818D01*
X116855277Y-106307222D01*
X116864235Y-106312626D01*
X116873245Y-106317916D01*
X116882138Y-106323037D01*
X116890914Y-106327991D01*
X116899574Y-106332776D01*
X116912346Y-106339640D01*
X116924856Y-106346126D01*
X116937104Y-106352234D01*
X116949091Y-106357964D01*
X116960815Y-106363316D01*
X116972278Y-106368291D01*
X116983478Y-106372887D01*
X116994417Y-106377106D01*
X116994417Y-106252054D01*
X116981543Y-106245930D01*
X116968874Y-106239647D01*
X116956409Y-106233206D01*
X116944149Y-106226607D01*
X116932092Y-106219849D01*
X116920239Y-106212933D01*
X116908591Y-106205859D01*
X116897147Y-106198626D01*
X116885907Y-106191235D01*
X116874871Y-106183685D01*
X116864040Y-106175977D01*
X116853412Y-106168111D01*
X116842989Y-106160086D01*
X116832770Y-106151903D01*
X116822755Y-106143561D01*
X116812944Y-106135062D01*
X116803413Y-106126499D01*
X116794237Y-106117968D01*
X116785416Y-106109470D01*
X116776949Y-106101005D01*
X116768838Y-106092572D01*
X116761081Y-106084171D01*
X116753679Y-106075803D01*
X116746632Y-106067467D01*
X116739941Y-106059164D01*
X116733604Y-106050893D01*
X116727622Y-106042655D01*
X116721994Y-106034449D01*
X116714219Y-106022201D01*
X116707243Y-106010025D01*
X116703035Y-106001949D01*
X116623412Y-106001949D01*
X116623412Y-107018000D01*
G37*
%LPC*%
D11*
G04 #@! TO.C,J3*
X134366000Y-103886000D03*
D12*
X134366000Y-99386000D03*
G04 #@! TD*
D11*
G04 #@! TO.C,J2*
X118618000Y-103886000D03*
D12*
X118618000Y-99386000D03*
G04 #@! TD*
D13*
G04 #@! TO.C,TP4*
X85320000Y-85740000D03*
G04 #@! TD*
D14*
G04 #@! TO.C,J1*
X77160000Y-90680000D03*
X77160000Y-97280000D03*
D15*
X73220000Y-89370000D03*
X73220000Y-98590000D03*
X77720000Y-89370000D03*
X77720000Y-98590000D03*
G04 #@! TD*
D11*
G04 #@! TO.C,J7*
X165862000Y-64262000D03*
D12*
X165862000Y-68762000D03*
G04 #@! TD*
D13*
G04 #@! TO.C,TP2*
X103886000Y-73406000D03*
G04 #@! TD*
G04 #@! TO.C,TP3*
X103886000Y-68326000D03*
G04 #@! TD*
D11*
G04 #@! TO.C,J6*
X150114000Y-64262000D03*
D12*
X150114000Y-68762000D03*
G04 #@! TD*
D11*
G04 #@! TO.C,J4*
X118618000Y-64262000D03*
D12*
X118618000Y-68762000D03*
G04 #@! TD*
D11*
G04 #@! TO.C,J5*
X134366000Y-64262000D03*
D12*
X134366000Y-68762000D03*
G04 #@! TD*
D13*
G04 #@! TO.C,TP5*
X92710000Y-85740000D03*
G04 #@! TD*
%LPD*%
M02*
