M48
; DRILL file {KiCad 7.0.2} date Tue Jul  4 15:03:24 2023
; FORMAT={-:-/ absolute / metric / decimal}
; #@! TF.CreationDate,2023-07-04T15:03:24+02:00
; #@! TF.GenerationSoftware,Kicad,Pcbnew,7.0.2
; #@! TF.FileFunction,Plated,1,2,PTH
FMAT,2
METRIC
; #@! TA.AperFunction,Plated,PTH,ComponentDrill
T1C0.200
; #@! TA.AperFunction,Plated,PTH,ViaDrill
T2C0.400
; #@! TA.AperFunction,Plated,PTH,ComponentDrill
T3C0.600
; #@! TA.AperFunction,Plated,PTH,ComponentDrill
T4C1.000
; #@! TA.AperFunction,Plated,PTH,ComponentDrill
T5C1.300
; #@! TA.AperFunction,Plated,PTH,ComponentDrill
T6C1.400
%
G90
G05
T1
X85.04Y-72.068
X85.04Y-73.468
X85.74Y-71.368
X85.74Y-72.768
X85.74Y-74.168
X86.44Y-72.068
X86.44Y-73.468
X87.14Y-71.368
X87.14Y-72.768
X87.14Y-74.168
X87.84Y-72.068
X87.84Y-73.468
T2
X71.882Y-84.582
X74.93Y-83.82
X75.438Y-97.282
X78.486Y-77.724
X78.74Y-64.77
X79.248Y-83.312
X79.3Y-103.0
X79.3Y-107.5
X79.75Y-98.25
X80.264Y-88.9
X80.518Y-77.724
X80.75Y-93.5
X80.772Y-102.87
X80.772Y-107.442
X82.25Y-101.25
X82.25Y-105.25
X82.735Y-86.106
X83.312Y-84.074
X83.75Y-92.5
X86.0Y-97.5
X87.0Y-95.0
X87.75Y-92.5
X88.25Y-90.5
X88.9Y-78.232
X88.9Y-83.058
X90.424Y-69.596
X90.424Y-70.866
X90.5Y-97.75
X90.678Y-84.074
X92.75Y-96.25
X93.0Y-92.5
X94.25Y-90.75
X94.742Y-76.962
X94.742Y-78.232
X97.79Y-80.772
X98.044Y-66.294
X98.806Y-80.772
X99.06Y-65.278
X99.822Y-78.994
X99.822Y-80.518
X101.75Y-104.0
X101.75Y-105.0
X101.75Y-106.0
X105.75Y-102.25
X107.75Y-106.0
X109.22Y-68.326
X109.22Y-75.438
X109.728Y-81.534
X110.0Y-102.25
X110.49Y-87.122
X110.49Y-97.79
X110.49Y-100.838
X111.76Y-81.534
X116.332Y-83.058
X119.888Y-74.676
X120.904Y-89.154
X120.904Y-92.71
X121.92Y-91.694
X125.222Y-85.344
X125.476Y-87.376
X126.746Y-83.058
X128.27Y-82.55
X129.794Y-80.518
X129.794Y-81.788
X130.048Y-89.154
X132.588Y-87.884
X132.588Y-88.9
X132.588Y-89.916
X135.636Y-74.676
X140.208Y-89.408
X140.637Y-80.264
X141.224Y-97.028
X141.224Y-98.552
X141.732Y-92.964
X142.188Y-89.662
X142.24Y-84.836
X142.24Y-86.106
X142.494Y-96.012
X142.494Y-103.886
X142.748Y-92.964
X144.018Y-92.964
X145.288Y-97.028
X146.005Y-88.138
X146.005Y-89.916
X146.05Y-83.312
X146.812Y-81.968
X148.082Y-79.502
X148.082Y-80.518
X149.628Y-81.816
X150.368Y-83.82
X150.622Y-94.488
X150.622Y-95.758
X151.13Y-87.159
X151.384Y-74.676
X154.953Y-81.28
X156.718Y-81.28
X156.718Y-85.344
X158.242Y-77.724
X158.242Y-78.994
X160.528Y-88.392
X160.528Y-92.456
X162.052Y-80.518
X167.132Y-74.676
T6
X85.32Y-85.74
X92.71Y-85.74
X103.886Y-68.326
X103.886Y-73.406
T3
X73.72Y-89.37G85X72.72Y-89.37
G05
X73.72Y-98.59G85X72.72Y-98.59
G05
X78.22Y-89.37G85X77.22Y-89.37
G05
X78.22Y-98.59G85X77.22Y-98.59
G05
T4
X118.618Y-69.412G85X118.618Y-68.112
G05
X118.618Y-98.736G85X118.618Y-100.036
G05
X134.366Y-69.412G85X134.366Y-68.112
G05
X134.366Y-98.736G85X134.366Y-100.036
G05
X150.114Y-69.412G85X150.114Y-68.112
G05
X165.862Y-69.412G85X165.862Y-68.112
G05
T5
X117.568Y-64.262G85X119.668Y-64.262
G05
X119.668Y-103.886G85X117.568Y-103.886
G05
X133.316Y-64.262G85X135.416Y-64.262
G05
X135.416Y-103.886G85X133.316Y-103.886
G05
X149.064Y-64.262G85X151.164Y-64.262
G05
X164.812Y-64.262G85X166.912Y-64.262
G05
T0
M30
