G04 #@! TF.GenerationSoftware,KiCad,Pcbnew,7.0.2*
G04 #@! TF.CreationDate,2023-07-04T15:02:42+02:00*
G04 #@! TF.ProjectId,espboard,65737062-6f61-4726-942e-6b696361645f,rev?*
G04 #@! TF.SameCoordinates,Original*
G04 #@! TF.FileFunction,Copper,L2,Bot*
G04 #@! TF.FilePolarity,Positive*
%FSLAX46Y46*%
G04 Gerber Fmt 4.6, Leading zero omitted, Abs format (unit mm)*
G04 Created by KiCad (PCBNEW 7.0.2) date 2023-07-04 15:02:42*
%MOMM*%
%LPD*%
G01*
G04 APERTURE LIST*
G04 #@! TA.AperFunction,ComponentPad*
%ADD10O,4.200000X2.100000*%
G04 #@! TD*
G04 #@! TA.AperFunction,ComponentPad*
%ADD11O,1.550000X3.100000*%
G04 #@! TD*
G04 #@! TA.AperFunction,ComponentPad*
%ADD12C,2.800000*%
G04 #@! TD*
G04 #@! TA.AperFunction,ComponentPad*
%ADD13O,2.000000X1.000000*%
G04 #@! TD*
G04 #@! TA.AperFunction,ComponentPad*
%ADD14C,0.400000*%
G04 #@! TD*
G04 #@! TA.AperFunction,ViaPad*
%ADD15C,0.800000*%
G04 #@! TD*
G04 #@! TA.AperFunction,Conductor*
%ADD16C,0.250000*%
G04 #@! TD*
G04 APERTURE END LIST*
D10*
G04 #@! TO.P,J3,1*
G04 #@! TO.N,GND*
X134366000Y-103886000D03*
D11*
G04 #@! TO.P,J3,2*
G04 #@! TO.N,Net-(C17-Pad2)*
X134366000Y-99386000D03*
G04 #@! TD*
D10*
G04 #@! TO.P,J2,1*
G04 #@! TO.N,GND*
X118618000Y-103886000D03*
D11*
G04 #@! TO.P,J2,2*
G04 #@! TO.N,Net-(C16-Pad2)*
X118618000Y-99386000D03*
G04 #@! TD*
D12*
G04 #@! TO.P,TP4,1,1*
G04 #@! TO.N,I2C1_SCL*
X85320000Y-85740000D03*
G04 #@! TD*
D13*
G04 #@! TO.P,J1,S1,SHIELD*
G04 #@! TO.N,Net-(J1-SHIELD-PadS1)*
X73220000Y-89370000D03*
G04 #@! TO.P,J1,S2,SHIELD*
X73220000Y-98590000D03*
G04 #@! TO.P,J1,S3,SHIELD*
X77720000Y-89370000D03*
G04 #@! TO.P,J1,S4,SHIELD*
X77720000Y-98590000D03*
G04 #@! TD*
D14*
G04 #@! TO.P,U5,41_10*
G04 #@! TO.N,N/C*
X85740000Y-72768000D03*
G04 #@! TO.P,U5,41_11*
X85740000Y-74168000D03*
G04 #@! TO.P,U5,41_12*
X85740000Y-71368000D03*
G04 #@! TO.P,U5,41_13*
X87140000Y-74168000D03*
G04 #@! TO.P,U5,41_14*
X87140000Y-72768000D03*
G04 #@! TO.P,U5,41_15*
X87140000Y-71368000D03*
G04 #@! TO.P,U5,41_16*
X85040000Y-73468000D03*
G04 #@! TO.P,U5,41_17*
X85040000Y-72068000D03*
G04 #@! TO.P,U5,41_18*
X86440000Y-73468000D03*
G04 #@! TO.P,U5,41_19*
X86440000Y-72068000D03*
G04 #@! TO.P,U5,41_20*
X87840000Y-73468000D03*
G04 #@! TO.P,U5,41_21*
X87840000Y-72068000D03*
G04 #@! TD*
D10*
G04 #@! TO.P,J7,1*
G04 #@! TO.N,GND*
X165862000Y-64262000D03*
D11*
G04 #@! TO.P,J7,2*
G04 #@! TO.N,Net-(C35-Pad1)*
X165862000Y-68762000D03*
G04 #@! TD*
D12*
G04 #@! TO.P,TP2,1,1*
G04 #@! TO.N,I2C0_SCL*
X103886000Y-73406000D03*
G04 #@! TD*
G04 #@! TO.P,TP3,1,1*
G04 #@! TO.N,I2C0_SDA*
X103886000Y-68326000D03*
G04 #@! TD*
D10*
G04 #@! TO.P,J6,1*
G04 #@! TO.N,GND*
X150114000Y-64262000D03*
D11*
G04 #@! TO.P,J6,2*
G04 #@! TO.N,Net-(C34-Pad1)*
X150114000Y-68762000D03*
G04 #@! TD*
D10*
G04 #@! TO.P,J4,1*
G04 #@! TO.N,GND*
X118618000Y-64262000D03*
D11*
G04 #@! TO.P,J4,2*
G04 #@! TO.N,Net-(C24-Pad1)*
X118618000Y-68762000D03*
G04 #@! TD*
D10*
G04 #@! TO.P,J5,1*
G04 #@! TO.N,GND*
X134366000Y-64262000D03*
D11*
G04 #@! TO.P,J5,2*
G04 #@! TO.N,Net-(C25-Pad1)*
X134366000Y-68762000D03*
G04 #@! TD*
D12*
G04 #@! TO.P,TP5,1,1*
G04 #@! TO.N,I2C1_SDA*
X92710000Y-85740000D03*
G04 #@! TD*
D15*
G04 #@! TO.N,+3.3V*
X140208000Y-89408000D03*
X142240000Y-84836000D03*
X110490000Y-97790000D03*
X80772000Y-107442000D03*
X110490000Y-100838000D03*
X99060000Y-65278000D03*
X142494000Y-96012000D03*
X83312000Y-84074000D03*
X80772000Y-102870000D03*
X126746000Y-83058000D03*
X146812000Y-81967500D03*
X110490000Y-87122000D03*
X90678000Y-84074000D03*
X142240000Y-86106000D03*
X79248000Y-83312000D03*
X98044000Y-66294000D03*
X142494000Y-103886000D03*
X156718000Y-81280000D03*
X116332000Y-83058000D03*
X154953000Y-81280000D03*
G04 #@! TO.N,Net-(C2-Pad1)*
X145288000Y-97028000D03*
X144018000Y-92964000D03*
G04 #@! TO.N,I2C0_SCL*
X109220000Y-75438000D03*
X120904000Y-92710000D03*
X109728000Y-81534000D03*
X142748000Y-92964000D03*
G04 #@! TO.N,I2C0_SDA*
X111760000Y-81534000D03*
X141732000Y-92964000D03*
X109220000Y-68326000D03*
X121920000Y-91694000D03*
G04 #@! TO.N,GND*
X78740000Y-64770000D03*
X71882000Y-84582000D03*
X83750000Y-92500000D03*
X125476000Y-87376000D03*
X94250000Y-90750000D03*
X146050000Y-83312000D03*
X82250000Y-105250000D03*
X167132000Y-74676000D03*
X148082000Y-79502000D03*
X158242000Y-78994000D03*
X158242000Y-77724000D03*
X132588000Y-89916000D03*
X156718000Y-85344000D03*
X79300000Y-103000000D03*
X101750000Y-105000000D03*
X87750000Y-92500000D03*
X149627734Y-81816102D03*
X146004500Y-88138000D03*
X132588000Y-88900000D03*
X74930000Y-83820000D03*
X162052000Y-80518000D03*
X79750000Y-98250000D03*
X107750000Y-106000000D03*
X148082000Y-80518000D03*
X150622000Y-95758000D03*
X110000000Y-102250000D03*
X141224000Y-97028000D03*
X128270000Y-82550000D03*
X82735088Y-86105700D03*
X160528000Y-88392000D03*
X82250000Y-101250000D03*
X119888000Y-74676000D03*
X86000000Y-97500000D03*
X151130000Y-87159500D03*
X150368000Y-83820000D03*
X93000000Y-92500000D03*
X80264000Y-88900000D03*
X92750000Y-96250000D03*
X146004500Y-89916000D03*
X151384000Y-74676000D03*
X140637000Y-80264000D03*
X129794000Y-81788000D03*
X160528000Y-92456000D03*
X141224000Y-98552000D03*
X150622000Y-94488000D03*
X80750000Y-93500000D03*
X142188000Y-89662000D03*
X105750000Y-102250000D03*
X79300000Y-107500000D03*
X80518000Y-77724000D03*
X132588000Y-87884000D03*
X129794000Y-80518000D03*
X135636000Y-74676000D03*
X125222000Y-85344000D03*
G04 #@! TO.N,BOOT*
X78486000Y-77724000D03*
X75438000Y-97282000D03*
G04 #@! TO.N,VBUS*
X101750000Y-104000000D03*
X90500000Y-97750000D03*
X101750000Y-106000000D03*
X87000000Y-95000000D03*
X88250000Y-90500000D03*
G04 #@! TO.N,ADA_reset*
X120904000Y-89154000D03*
X130048000Y-89154000D03*
G04 #@! TO.N,UART1_RX*
X98806000Y-80772000D03*
X94742000Y-76962000D03*
G04 #@! TO.N,UART1_TX*
X97790000Y-80772000D03*
X94742000Y-78232000D03*
G04 #@! TO.N,UART0_TX*
X90424000Y-69596000D03*
X99822000Y-78994000D03*
G04 #@! TO.N,UART0_RX*
X90424000Y-70866000D03*
X99822000Y-80518000D03*
G04 #@! TO.N,Net-(U5-IO14)*
X88900000Y-78232000D03*
X88900000Y-83058000D03*
G04 #@! TD*
D16*
G04 #@! TO.N,+3.3V*
X142240000Y-86106000D02*
X142240000Y-84836000D01*
X154953000Y-81280000D02*
X156718000Y-81280000D01*
X108458000Y-85090000D02*
X108458000Y-85852000D01*
X108428098Y-85090000D02*
X108458000Y-85090000D01*
X110490000Y-100838000D02*
X110725000Y-101073000D01*
X110744000Y-104031305D02*
X107587305Y-107188000D01*
X114554000Y-83058000D02*
X116332000Y-83058000D01*
X110725000Y-101073000D02*
X110725000Y-103359000D01*
X87376000Y-83312000D02*
X88138000Y-84074000D01*
X110490000Y-87122000D02*
X114554000Y-83058000D01*
X145061695Y-83275000D02*
X146369195Y-81967500D01*
X146812000Y-81967500D02*
X148261500Y-81967500D01*
X110490000Y-100838000D02*
X110490000Y-97790000D01*
X108458000Y-85852000D02*
X109728000Y-87122000D01*
X92877000Y-81875000D02*
X105213098Y-81875000D01*
X136398000Y-83275000D02*
X145061695Y-83275000D01*
X140208000Y-89408000D02*
X142240000Y-87376000D01*
X126746000Y-83058000D02*
X126963000Y-83275000D01*
X153670000Y-81280000D02*
X154953000Y-81280000D01*
X146369195Y-81967500D02*
X146812000Y-81967500D01*
X152146000Y-82804000D02*
X153670000Y-81280000D01*
X148261500Y-81967500D02*
X149098000Y-82804000D01*
X109728000Y-87122000D02*
X110490000Y-87122000D01*
X92877000Y-81875000D02*
X90678000Y-84074000D01*
X88138000Y-84074000D02*
X90678000Y-84074000D01*
X81026000Y-107188000D02*
X80772000Y-107442000D01*
X84074000Y-83312000D02*
X87376000Y-83312000D01*
X140679000Y-83275000D02*
X142240000Y-84836000D01*
X80772000Y-107442000D02*
X79502000Y-106172000D01*
X83312000Y-84074000D02*
X80010000Y-84074000D01*
X107587305Y-107188000D02*
X81026000Y-107188000D01*
X105213098Y-81875000D02*
X108428098Y-85090000D01*
X80010000Y-84074000D02*
X79248000Y-83312000D01*
X110725000Y-103359000D02*
X110744000Y-103378000D01*
X142494000Y-103886000D02*
X142494000Y-96012000D01*
X136398000Y-83275000D02*
X140679000Y-83275000D01*
X79502000Y-104140000D02*
X80772000Y-102870000D01*
X126963000Y-83275000D02*
X136398000Y-83275000D01*
X110744000Y-103378000D02*
X110744000Y-104031305D01*
X149098000Y-82804000D02*
X152146000Y-82804000D01*
X79502000Y-106172000D02*
X79502000Y-104140000D01*
X83312000Y-84074000D02*
X84074000Y-83312000D01*
X142240000Y-87376000D02*
X142240000Y-86106000D01*
G04 #@! TO.N,Net-(C2-Pad1)*
X144018000Y-92964000D02*
X144018000Y-95758000D01*
X144018000Y-95758000D02*
X145288000Y-97028000D01*
G04 #@! TO.N,I2C0_SCL*
X109220000Y-75946000D02*
X109220000Y-75438000D01*
X142748000Y-92964000D02*
X142748000Y-92973305D01*
X109728000Y-81534000D02*
X109220000Y-81026000D01*
X142748000Y-92973305D02*
X141233305Y-94488000D01*
X141233305Y-94488000D02*
X122682000Y-94488000D01*
X122682000Y-94488000D02*
X120904000Y-92710000D01*
X109220000Y-81026000D02*
X109220000Y-75946000D01*
G04 #@! TO.N,I2C0_SDA*
X140658000Y-94038000D02*
X124264000Y-94038000D01*
X111760000Y-70866000D02*
X109220000Y-68326000D01*
X141732000Y-92964000D02*
X140658000Y-94038000D01*
X124264000Y-94038000D02*
X121920000Y-91694000D01*
X111760000Y-81534000D02*
X111760000Y-70866000D01*
G04 #@! TO.N,BOOT*
X86615000Y-74385463D02*
X86265000Y-74385463D01*
X77355000Y-82665000D02*
X78486000Y-81534000D01*
X75438000Y-97282000D02*
X75438000Y-88392000D01*
X75438000Y-88392000D02*
X77355000Y-86475000D01*
X78486000Y-81534000D02*
X78486000Y-77724000D01*
X77355000Y-86475000D02*
X77355000Y-82665000D01*
G04 #@! TO.N,VBUS*
X90500000Y-97750000D02*
X91250000Y-97750000D01*
X102250000Y-106000000D02*
X101750000Y-106000000D01*
X87750000Y-95000000D02*
X87000000Y-95000000D01*
X102500000Y-105750000D02*
X102250000Y-106000000D01*
X89000000Y-93750000D02*
X87750000Y-95000000D01*
X89000000Y-91250000D02*
X89000000Y-93750000D01*
X102250000Y-104000000D02*
X102500000Y-104250000D01*
X88250000Y-90500000D02*
X89000000Y-91250000D01*
X101750000Y-104000000D02*
X102250000Y-104000000D01*
X91250000Y-97750000D02*
X97500000Y-104000000D01*
X102500000Y-104250000D02*
X102500000Y-105750000D01*
X97500000Y-104000000D02*
X101750000Y-104000000D01*
G04 #@! TO.N,ADA_reset*
X120904000Y-89154000D02*
X130048000Y-89154000D01*
G04 #@! TO.N,UART1_RX*
X95504000Y-76962000D02*
X94742000Y-76962000D01*
X98806000Y-80264000D02*
X95504000Y-76962000D01*
X98806000Y-80762695D02*
X98806000Y-80264000D01*
X98806000Y-80772000D02*
X98806000Y-80762695D01*
G04 #@! TO.N,UART1_TX*
X97790000Y-80772000D02*
X95250000Y-78232000D01*
X95250000Y-78232000D02*
X94742000Y-78232000D01*
G04 #@! TO.N,UART0_TX*
X99822000Y-78994000D02*
X90424000Y-69596000D01*
G04 #@! TO.N,UART0_RX*
X99822000Y-80264000D02*
X90424000Y-70866000D01*
X99822000Y-80518000D02*
X99822000Y-80264000D01*
G04 #@! TO.N,Net-(U5-IO14)*
X88900000Y-83058000D02*
X88900000Y-78232000D01*
G04 #@! TD*
G04 #@! TA.AperFunction,Conductor*
G04 #@! TO.N,GND*
G36*
X171900539Y-59456185D02*
G01*
X171946294Y-59508989D01*
X171957500Y-59560500D01*
X171957500Y-108587500D01*
X171937815Y-108654539D01*
X171885011Y-108700294D01*
X171833500Y-108711500D01*
X70990500Y-108711500D01*
X70923461Y-108691815D01*
X70877706Y-108639011D01*
X70866500Y-108587500D01*
X70866500Y-104120194D01*
X78871840Y-104120194D01*
X78875950Y-104163673D01*
X78876500Y-104175343D01*
X78876500Y-106089256D01*
X78874235Y-106109766D01*
X78876439Y-106179872D01*
X78876500Y-106183767D01*
X78876500Y-106211350D01*
X78876988Y-106215219D01*
X78876989Y-106215225D01*
X78877004Y-106215343D01*
X78877918Y-106226967D01*
X78879290Y-106270626D01*
X78884879Y-106289860D01*
X78888825Y-106308916D01*
X78891335Y-106328792D01*
X78907414Y-106369404D01*
X78911197Y-106380451D01*
X78923382Y-106422391D01*
X78933580Y-106439635D01*
X78942136Y-106457100D01*
X78949514Y-106475732D01*
X78949515Y-106475733D01*
X78975180Y-106511059D01*
X78981593Y-106520822D01*
X79003826Y-106558416D01*
X79003829Y-106558419D01*
X79003830Y-106558420D01*
X79017995Y-106572585D01*
X79030627Y-106587375D01*
X79042406Y-106603587D01*
X79076058Y-106631426D01*
X79084699Y-106639289D01*
X79833038Y-107387629D01*
X79866523Y-107448952D01*
X79868678Y-107462348D01*
X79886326Y-107630257D01*
X79944820Y-107810284D01*
X80039466Y-107974216D01*
X80166129Y-108114889D01*
X80319269Y-108226151D01*
X80492197Y-108303144D01*
X80677352Y-108342500D01*
X80677354Y-108342500D01*
X80866648Y-108342500D01*
X80990084Y-108316262D01*
X81051803Y-108303144D01*
X81224730Y-108226151D01*
X81377871Y-108114888D01*
X81504533Y-107974216D01*
X81555153Y-107886540D01*
X81561527Y-107875500D01*
X81575802Y-107861889D01*
X113467416Y-107861889D01*
X113467459Y-107886000D01*
X113467501Y-107886101D01*
X113467616Y-107886382D01*
X113467618Y-107886384D01*
X113467808Y-107886462D01*
X113468000Y-107886541D01*
X113468002Y-107886539D01*
X113492616Y-107886524D01*
X113492616Y-107886528D01*
X113492760Y-107886500D01*
X115243240Y-107886500D01*
X115243383Y-107886528D01*
X115243384Y-107886524D01*
X115267997Y-107886539D01*
X115268000Y-107886541D01*
X115268383Y-107886383D01*
X115268500Y-107886099D01*
X115268541Y-107886000D01*
X115268540Y-107885997D01*
X115268583Y-107861889D01*
X121967416Y-107861889D01*
X121967459Y-107886000D01*
X121967501Y-107886101D01*
X121967616Y-107886382D01*
X121967618Y-107886384D01*
X121967808Y-107886462D01*
X121968000Y-107886541D01*
X121968002Y-107886539D01*
X121992616Y-107886524D01*
X121992616Y-107886528D01*
X121992760Y-107886500D01*
X123743240Y-107886500D01*
X123743383Y-107886528D01*
X123743384Y-107886524D01*
X123767997Y-107886539D01*
X123768000Y-107886541D01*
X123768383Y-107886383D01*
X123768500Y-107886099D01*
X123768541Y-107886000D01*
X123768540Y-107885997D01*
X123768583Y-107861889D01*
X129215416Y-107861889D01*
X129215459Y-107886000D01*
X129215501Y-107886101D01*
X129215616Y-107886382D01*
X129215618Y-107886384D01*
X129215808Y-107886462D01*
X129216000Y-107886541D01*
X129216002Y-107886539D01*
X129240616Y-107886524D01*
X129240616Y-107886528D01*
X129240760Y-107886500D01*
X130991240Y-107886500D01*
X130991383Y-107886528D01*
X130991384Y-107886524D01*
X131015997Y-107886539D01*
X131016000Y-107886541D01*
X131016383Y-107886383D01*
X131016500Y-107886099D01*
X131016541Y-107886000D01*
X131016540Y-107885997D01*
X131016583Y-107861889D01*
X137715416Y-107861889D01*
X137715459Y-107886000D01*
X137715501Y-107886101D01*
X137715616Y-107886382D01*
X137715618Y-107886384D01*
X137715808Y-107886462D01*
X137716000Y-107886541D01*
X137716002Y-107886539D01*
X137740616Y-107886524D01*
X137740616Y-107886528D01*
X137740760Y-107886500D01*
X139491240Y-107886500D01*
X139491383Y-107886528D01*
X139491384Y-107886524D01*
X139515997Y-107886539D01*
X139516000Y-107886541D01*
X139516383Y-107886383D01*
X139516500Y-107886099D01*
X139516541Y-107886000D01*
X139516540Y-107885997D01*
X139516583Y-107861889D01*
X139516500Y-107861467D01*
X139516500Y-106210759D01*
X139516528Y-106210616D01*
X139516524Y-106210616D01*
X139516539Y-106186002D01*
X139516541Y-106186000D01*
X139516462Y-106185808D01*
X139516384Y-106185618D01*
X139516383Y-106185617D01*
X139516379Y-106185615D01*
X139516097Y-106185499D01*
X139516000Y-106185459D01*
X139491446Y-106185459D01*
X139491240Y-106185500D01*
X137740760Y-106185500D01*
X137740554Y-106185459D01*
X137715999Y-106185459D01*
X137715900Y-106185500D01*
X137715618Y-106185615D01*
X137715615Y-106185618D01*
X137715459Y-106185999D01*
X137715476Y-106210616D01*
X137715471Y-106210616D01*
X137715500Y-106210759D01*
X137715500Y-107861467D01*
X137715416Y-107861889D01*
X131016583Y-107861889D01*
X131016500Y-107861467D01*
X131016500Y-106210759D01*
X131016528Y-106210616D01*
X131016524Y-106210616D01*
X131016539Y-106186002D01*
X131016541Y-106186000D01*
X131016462Y-106185808D01*
X131016384Y-106185618D01*
X131016383Y-106185617D01*
X131016379Y-106185615D01*
X131016097Y-106185499D01*
X131016000Y-106185459D01*
X130991446Y-106185459D01*
X130991240Y-106185500D01*
X129240760Y-106185500D01*
X129240554Y-106185459D01*
X129215999Y-106185459D01*
X129215900Y-106185500D01*
X129215618Y-106185615D01*
X129215615Y-106185618D01*
X129215459Y-106185999D01*
X129215476Y-106210616D01*
X129215471Y-106210616D01*
X129215500Y-106210759D01*
X129215500Y-107861467D01*
X129215416Y-107861889D01*
X123768583Y-107861889D01*
X123768500Y-107861467D01*
X123768500Y-106210759D01*
X123768528Y-106210616D01*
X123768524Y-106210616D01*
X123768539Y-106186002D01*
X123768541Y-106186000D01*
X123768462Y-106185808D01*
X123768384Y-106185618D01*
X123768383Y-106185617D01*
X123768379Y-106185615D01*
X123768097Y-106185499D01*
X123768000Y-106185459D01*
X123743446Y-106185459D01*
X123743240Y-106185500D01*
X121992760Y-106185500D01*
X121992554Y-106185459D01*
X121967999Y-106185459D01*
X121967900Y-106185500D01*
X121967618Y-106185615D01*
X121967615Y-106185618D01*
X121967459Y-106185999D01*
X121967476Y-106210616D01*
X121967471Y-106210616D01*
X121967500Y-106210759D01*
X121967500Y-107861467D01*
X121967416Y-107861889D01*
X115268583Y-107861889D01*
X115268500Y-107861467D01*
X115268500Y-106210759D01*
X115268528Y-106210616D01*
X115268524Y-106210616D01*
X115268539Y-106186002D01*
X115268541Y-106186000D01*
X115268462Y-106185808D01*
X115268384Y-106185618D01*
X115268383Y-106185617D01*
X115268379Y-106185615D01*
X115268097Y-106185499D01*
X115268000Y-106185459D01*
X115243446Y-106185459D01*
X115243240Y-106185500D01*
X113492760Y-106185500D01*
X113492554Y-106185459D01*
X113467999Y-106185459D01*
X113467900Y-106185500D01*
X113467618Y-106185615D01*
X113467615Y-106185618D01*
X113467459Y-106185999D01*
X113467476Y-106210616D01*
X113467471Y-106210616D01*
X113467500Y-106210759D01*
X113467500Y-107861467D01*
X113467416Y-107861889D01*
X81575802Y-107861889D01*
X81612094Y-107827285D01*
X81668914Y-107813500D01*
X107504561Y-107813500D01*
X107525067Y-107815764D01*
X107527970Y-107815672D01*
X107527972Y-107815673D01*
X107595177Y-107813561D01*
X107599073Y-107813500D01*
X107622753Y-107813500D01*
X107626655Y-107813500D01*
X107630618Y-107812999D01*
X107642267Y-107812080D01*
X107685932Y-107810709D01*
X107705164Y-107805120D01*
X107724223Y-107801174D01*
X107730501Y-107800381D01*
X107744097Y-107798664D01*
X107784712Y-107782582D01*
X107795749Y-107778803D01*
X107837695Y-107766618D01*
X107854934Y-107756422D01*
X107872407Y-107747862D01*
X107891037Y-107740486D01*
X107926369Y-107714814D01*
X107936135Y-107708400D01*
X107973723Y-107686171D01*
X107973722Y-107686171D01*
X107973725Y-107686170D01*
X107987890Y-107672004D01*
X108002678Y-107659373D01*
X108018892Y-107647594D01*
X108046743Y-107613926D01*
X108054584Y-107605309D01*
X111127789Y-104532105D01*
X111143885Y-104519211D01*
X111145873Y-104517092D01*
X111145877Y-104517091D01*
X111191949Y-104468028D01*
X111194534Y-104465360D01*
X111214120Y-104445776D01*
X111216585Y-104442597D01*
X111224167Y-104433721D01*
X111254062Y-104401887D01*
X111263712Y-104384332D01*
X111274400Y-104368062D01*
X111277865Y-104363595D01*
X111286673Y-104352241D01*
X111304026Y-104312137D01*
X111309157Y-104301667D01*
X111330197Y-104263397D01*
X111335175Y-104244004D01*
X111341481Y-104225587D01*
X111347945Y-104210650D01*
X111349438Y-104207201D01*
X111356272Y-104164050D01*
X111358635Y-104152636D01*
X111362907Y-104136000D01*
X116036970Y-104136000D01*
X116044383Y-104197050D01*
X116114010Y-104437426D01*
X116221291Y-104663520D01*
X116363456Y-104869479D01*
X116536815Y-105049965D01*
X116736884Y-105200308D01*
X116958472Y-105316607D01*
X117195856Y-105395857D01*
X117442870Y-105436000D01*
X118368000Y-105436000D01*
X118368000Y-104536000D01*
X118868000Y-104536000D01*
X118868000Y-105436000D01*
X119727985Y-105436000D01*
X119732945Y-105435800D01*
X119917445Y-105420905D01*
X120160435Y-105361013D01*
X120390664Y-105262922D01*
X120602179Y-105129167D01*
X120789500Y-104963216D01*
X120947774Y-104769365D01*
X121072903Y-104552635D01*
X121161647Y-104318639D01*
X121198933Y-104136000D01*
X131784970Y-104136000D01*
X131792383Y-104197050D01*
X131862010Y-104437426D01*
X131969291Y-104663520D01*
X132111456Y-104869479D01*
X132284815Y-105049965D01*
X132484884Y-105200308D01*
X132706472Y-105316607D01*
X132943856Y-105395857D01*
X133190870Y-105436000D01*
X134115999Y-105436000D01*
X134116000Y-104536000D01*
X134616000Y-104536000D01*
X134616000Y-105436000D01*
X135475985Y-105436000D01*
X135480945Y-105435800D01*
X135665445Y-105420905D01*
X135908435Y-105361013D01*
X136138664Y-105262922D01*
X136350179Y-105129167D01*
X136537500Y-104963216D01*
X136695774Y-104769365D01*
X136820903Y-104552635D01*
X136909647Y-104318639D01*
X136946933Y-104136000D01*
X136016728Y-104136000D01*
X136039100Y-104088457D01*
X136069873Y-103927138D01*
X136059561Y-103763234D01*
X136018220Y-103636000D01*
X136947030Y-103636000D01*
X136939616Y-103574949D01*
X136869989Y-103334573D01*
X136762708Y-103108479D01*
X136620543Y-102902520D01*
X136447184Y-102722034D01*
X136247115Y-102571691D01*
X136025527Y-102455392D01*
X135788143Y-102376142D01*
X135541130Y-102336000D01*
X134616000Y-102336000D01*
X134616000Y-103236000D01*
X134115999Y-103236000D01*
X134116000Y-102336000D01*
X133256015Y-102336000D01*
X133251054Y-102336199D01*
X133066554Y-102351094D01*
X132823564Y-102410986D01*
X132593335Y-102509077D01*
X132381820Y-102642832D01*
X132194499Y-102808783D01*
X132036225Y-103002634D01*
X131911096Y-103219364D01*
X131822352Y-103453360D01*
X131785067Y-103636000D01*
X132715272Y-103636000D01*
X132692900Y-103683543D01*
X132662127Y-103844862D01*
X132672439Y-104008766D01*
X132713780Y-104136000D01*
X131784970Y-104136000D01*
X121198933Y-104136000D01*
X120268728Y-104136000D01*
X120291100Y-104088457D01*
X120321873Y-103927138D01*
X120311561Y-103763234D01*
X120270220Y-103636000D01*
X121199030Y-103636000D01*
X121191616Y-103574949D01*
X121121989Y-103334573D01*
X121014708Y-103108479D01*
X120872543Y-102902520D01*
X120699184Y-102722034D01*
X120499115Y-102571691D01*
X120277527Y-102455392D01*
X120040143Y-102376142D01*
X119793130Y-102336000D01*
X118868000Y-102336000D01*
X118868000Y-103236000D01*
X118368000Y-103236000D01*
X118368000Y-102336000D01*
X117508015Y-102336000D01*
X117503054Y-102336199D01*
X117318554Y-102351094D01*
X117075564Y-102410986D01*
X116845335Y-102509077D01*
X116633820Y-102642832D01*
X116446499Y-102808783D01*
X116288225Y-103002634D01*
X116163096Y-103219364D01*
X116074352Y-103453360D01*
X116037067Y-103636000D01*
X116967272Y-103636000D01*
X116944900Y-103683543D01*
X116914127Y-103844862D01*
X116924439Y-104008766D01*
X116965780Y-104136000D01*
X116036970Y-104136000D01*
X111362907Y-104136000D01*
X111369500Y-104110324D01*
X111369500Y-104090288D01*
X111371027Y-104070889D01*
X111372596Y-104060981D01*
X111374160Y-104051109D01*
X111370050Y-104007629D01*
X111369500Y-103995960D01*
X111369500Y-103460740D01*
X111371763Y-103440239D01*
X111371593Y-103434841D01*
X111369561Y-103370144D01*
X111369500Y-103366250D01*
X111369500Y-103342544D01*
X111369500Y-103338650D01*
X111368998Y-103334681D01*
X111368080Y-103323024D01*
X111367730Y-103311874D01*
X111366709Y-103279373D01*
X111361120Y-103260140D01*
X111357174Y-103241083D01*
X111354664Y-103221208D01*
X111354663Y-103221207D01*
X111352701Y-103205666D01*
X111354023Y-103205499D01*
X111350499Y-103187042D01*
X111350499Y-101155743D01*
X111352763Y-101135245D01*
X111352671Y-101132334D01*
X111352672Y-101132332D01*
X111352340Y-101121787D01*
X111358347Y-101079581D01*
X111375674Y-101026256D01*
X111395460Y-100838000D01*
X111375674Y-100649744D01*
X111317179Y-100469716D01*
X111317179Y-100469715D01*
X111222533Y-100305783D01*
X111147350Y-100222284D01*
X111145432Y-100218287D01*
X117342500Y-100218287D01*
X117342747Y-100221036D01*
X117342748Y-100221048D01*
X117357925Y-100389674D01*
X117419004Y-100610989D01*
X117518619Y-100817845D01*
X117533263Y-100838000D01*
X117653575Y-101003593D01*
X117677278Y-101026255D01*
X117819523Y-101162257D01*
X117886222Y-101206284D01*
X118011137Y-101288740D01*
X118127789Y-101338599D01*
X118222253Y-101378975D01*
X118222254Y-101378975D01*
X118222256Y-101378976D01*
X118446093Y-101430066D01*
X118657299Y-101439550D01*
X118675454Y-101440366D01*
X118675454Y-101440365D01*
X118675456Y-101440366D01*
X118902973Y-101409547D01*
X119121330Y-101338599D01*
X119323510Y-101229801D01*
X119503014Y-101086652D01*
X119654072Y-100913751D01*
X119771831Y-100716656D01*
X119852505Y-100501702D01*
X119893500Y-100275797D01*
X119893500Y-100218287D01*
X133090500Y-100218287D01*
X133090747Y-100221036D01*
X133090748Y-100221048D01*
X133105925Y-100389674D01*
X133167004Y-100610989D01*
X133266619Y-100817845D01*
X133281263Y-100838000D01*
X133401575Y-101003593D01*
X133425278Y-101026255D01*
X133567523Y-101162257D01*
X133634222Y-101206284D01*
X133759137Y-101288740D01*
X133875789Y-101338599D01*
X133970253Y-101378975D01*
X133970254Y-101378975D01*
X133970256Y-101378976D01*
X134194093Y-101430066D01*
X134405299Y-101439550D01*
X134423454Y-101440366D01*
X134423454Y-101440365D01*
X134423456Y-101440366D01*
X134650973Y-101409547D01*
X134869330Y-101338599D01*
X135071510Y-101229801D01*
X135251014Y-101086652D01*
X135402072Y-100913751D01*
X135519831Y-100716656D01*
X135600505Y-100501702D01*
X135620836Y-100389670D01*
X135641500Y-100275799D01*
X135641500Y-98556489D01*
X135641500Y-98553713D01*
X135626075Y-98382330D01*
X135598445Y-98282216D01*
X135564995Y-98161010D01*
X135465380Y-97954154D01*
X135423952Y-97897135D01*
X135330425Y-97768407D01*
X135223150Y-97665841D01*
X135164476Y-97609742D01*
X134972861Y-97483259D01*
X134761746Y-97393024D01*
X134601855Y-97356530D01*
X134537907Y-97341934D01*
X134519750Y-97341118D01*
X134308545Y-97331633D01*
X134081025Y-97362453D01*
X133862671Y-97433400D01*
X133660486Y-97542201D01*
X133480987Y-97685346D01*
X133329930Y-97858245D01*
X133212167Y-98055346D01*
X133131493Y-98270300D01*
X133090500Y-98496200D01*
X133090500Y-98496202D01*
X133090500Y-98496203D01*
X133090500Y-100218287D01*
X119893500Y-100218287D01*
X119893500Y-98553713D01*
X119878075Y-98382330D01*
X119850445Y-98282216D01*
X119816995Y-98161010D01*
X119717380Y-97954154D01*
X119675952Y-97897135D01*
X119582425Y-97768407D01*
X119475150Y-97665841D01*
X119416476Y-97609742D01*
X119224861Y-97483259D01*
X119013746Y-97393024D01*
X118853855Y-97356530D01*
X118789907Y-97341934D01*
X118771750Y-97341118D01*
X118560545Y-97331633D01*
X118333025Y-97362453D01*
X118114671Y-97433400D01*
X117912486Y-97542201D01*
X117732987Y-97685346D01*
X117581930Y-97858245D01*
X117464167Y-98055346D01*
X117383493Y-98270300D01*
X117342500Y-98496200D01*
X117342500Y-98496203D01*
X117342500Y-100218287D01*
X111145432Y-100218287D01*
X111117120Y-100159293D01*
X111115500Y-100139312D01*
X111115500Y-98488687D01*
X111135185Y-98421648D01*
X111147350Y-98405714D01*
X111222533Y-98322216D01*
X111269580Y-98240729D01*
X111317179Y-98158284D01*
X111347115Y-98066151D01*
X111375674Y-97978256D01*
X111395460Y-97790000D01*
X111375674Y-97601744D01*
X111332951Y-97470256D01*
X111317179Y-97421715D01*
X111222533Y-97257783D01*
X111095870Y-97117110D01*
X110942730Y-97005848D01*
X110769802Y-96928855D01*
X110584648Y-96889500D01*
X110584646Y-96889500D01*
X110395354Y-96889500D01*
X110395352Y-96889500D01*
X110210197Y-96928855D01*
X110037269Y-97005848D01*
X109884129Y-97117110D01*
X109757466Y-97257783D01*
X109662820Y-97421715D01*
X109604326Y-97601742D01*
X109584540Y-97790000D01*
X109604326Y-97978257D01*
X109662820Y-98158284D01*
X109757464Y-98322213D01*
X109757467Y-98322216D01*
X109811594Y-98382330D01*
X109832650Y-98405714D01*
X109862880Y-98468706D01*
X109864500Y-98488687D01*
X109864500Y-100139312D01*
X109844815Y-100206351D01*
X109832650Y-100222284D01*
X109757466Y-100305783D01*
X109662820Y-100469715D01*
X109604326Y-100649742D01*
X109584540Y-100838000D01*
X109604326Y-101026257D01*
X109662820Y-101206284D01*
X109757466Y-101370216D01*
X109884129Y-101510889D01*
X110047814Y-101629812D01*
X110045167Y-101633455D01*
X110079150Y-101662320D01*
X110099494Y-101729163D01*
X110099500Y-101730384D01*
X110099500Y-103276256D01*
X110097235Y-103296766D01*
X110099439Y-103366872D01*
X110099500Y-103370767D01*
X110099500Y-103398350D01*
X110099988Y-103402216D01*
X110099989Y-103402225D01*
X110100004Y-103402343D01*
X110100918Y-103413967D01*
X110102290Y-103457626D01*
X110103195Y-103460740D01*
X110107508Y-103475585D01*
X110107879Y-103476860D01*
X110111825Y-103495916D01*
X110116299Y-103531333D01*
X110114977Y-103531499D01*
X110118500Y-103549962D01*
X110118500Y-103720852D01*
X110098815Y-103787891D01*
X110082181Y-103808533D01*
X107364533Y-106526181D01*
X107303210Y-106559666D01*
X107276852Y-106562500D01*
X102871451Y-106562500D01*
X102804412Y-106542815D01*
X102758657Y-106490011D01*
X102748713Y-106420853D01*
X102777738Y-106357297D01*
X102783770Y-106350819D01*
X102883788Y-106250801D01*
X102899887Y-106237904D01*
X102901874Y-106235787D01*
X102901877Y-106235786D01*
X102947935Y-106186738D01*
X102950550Y-106184039D01*
X102970120Y-106164471D01*
X102972585Y-106161292D01*
X102980167Y-106152416D01*
X103010062Y-106120582D01*
X103019717Y-106103018D01*
X103030394Y-106086764D01*
X103042673Y-106070936D01*
X103060018Y-106030852D01*
X103065160Y-106020356D01*
X103086197Y-105982092D01*
X103091179Y-105962684D01*
X103097481Y-105944280D01*
X103105437Y-105925896D01*
X103112269Y-105882752D01*
X103114633Y-105871338D01*
X103125500Y-105829019D01*
X103125500Y-105808982D01*
X103127027Y-105789584D01*
X103130160Y-105769804D01*
X103126050Y-105726324D01*
X103125500Y-105714655D01*
X103125500Y-104332739D01*
X103127763Y-104312238D01*
X103127492Y-104303619D01*
X103125561Y-104242143D01*
X103125500Y-104238249D01*
X103125500Y-104214544D01*
X103125500Y-104210650D01*
X103124998Y-104206681D01*
X103124080Y-104195024D01*
X103122709Y-104151372D01*
X103117119Y-104132134D01*
X103113174Y-104113082D01*
X103110664Y-104093208D01*
X103105645Y-104080531D01*
X103094578Y-104052581D01*
X103090805Y-104041560D01*
X103078617Y-103999610D01*
X103068421Y-103982369D01*
X103059863Y-103964902D01*
X103052486Y-103946268D01*
X103026798Y-103910912D01*
X103020409Y-103901184D01*
X102998170Y-103863579D01*
X102984006Y-103849415D01*
X102971369Y-103834620D01*
X102959595Y-103818414D01*
X102941238Y-103803228D01*
X102925935Y-103790568D01*
X102917305Y-103782714D01*
X102750802Y-103616211D01*
X102737906Y-103600113D01*
X102686775Y-103552098D01*
X102683978Y-103549387D01*
X102667227Y-103532636D01*
X102664471Y-103529880D01*
X102661290Y-103527412D01*
X102652422Y-103519837D01*
X102620582Y-103489938D01*
X102603024Y-103480285D01*
X102586764Y-103469604D01*
X102570936Y-103457327D01*
X102530851Y-103439980D01*
X102520361Y-103434841D01*
X102482091Y-103413802D01*
X102462691Y-103408821D01*
X102444279Y-103402517D01*
X102435480Y-103398709D01*
X102392580Y-103367881D01*
X102355870Y-103327110D01*
X102202730Y-103215848D01*
X102029802Y-103138855D01*
X101844648Y-103099500D01*
X101844646Y-103099500D01*
X101655354Y-103099500D01*
X101655352Y-103099500D01*
X101470197Y-103138855D01*
X101297272Y-103215847D01*
X101213320Y-103276842D01*
X101144129Y-103327112D01*
X101138401Y-103333472D01*
X101078916Y-103370121D01*
X101046253Y-103374500D01*
X97810452Y-103374500D01*
X97743413Y-103354815D01*
X97722771Y-103338181D01*
X91750802Y-97366211D01*
X91737906Y-97350113D01*
X91686775Y-97302098D01*
X91683978Y-97299387D01*
X91667227Y-97282636D01*
X91664471Y-97279880D01*
X91661290Y-97277412D01*
X91652422Y-97269837D01*
X91620582Y-97239938D01*
X91603024Y-97230285D01*
X91586764Y-97219604D01*
X91570936Y-97207327D01*
X91530851Y-97189980D01*
X91520361Y-97184841D01*
X91482091Y-97163802D01*
X91462691Y-97158821D01*
X91444284Y-97152519D01*
X91425897Y-97144562D01*
X91382758Y-97137729D01*
X91371324Y-97135361D01*
X91329019Y-97124500D01*
X91308984Y-97124500D01*
X91289586Y-97122973D01*
X91282162Y-97121797D01*
X91269805Y-97119840D01*
X91269804Y-97119840D01*
X91236751Y-97122964D01*
X91226325Y-97123950D01*
X91214656Y-97124500D01*
X91203747Y-97124500D01*
X91136708Y-97104815D01*
X91111599Y-97083473D01*
X91105871Y-97077112D01*
X90952730Y-96965849D01*
X90952729Y-96965848D01*
X90952727Y-96965847D01*
X90779802Y-96888855D01*
X90594648Y-96849500D01*
X90594646Y-96849500D01*
X90405354Y-96849500D01*
X90405352Y-96849500D01*
X90220197Y-96888855D01*
X90047269Y-96965848D01*
X89894129Y-97077110D01*
X89767466Y-97217783D01*
X89672820Y-97381715D01*
X89614326Y-97561742D01*
X89594540Y-97749999D01*
X89614326Y-97938257D01*
X89672820Y-98118284D01*
X89767466Y-98282216D01*
X89894129Y-98422889D01*
X90047269Y-98534151D01*
X90220197Y-98611144D01*
X90405352Y-98650500D01*
X90405354Y-98650500D01*
X90594648Y-98650500D01*
X90718084Y-98624262D01*
X90779803Y-98611144D01*
X90908794Y-98553713D01*
X90952727Y-98534153D01*
X90981053Y-98513573D01*
X91046859Y-98490093D01*
X91114913Y-98505918D01*
X91141620Y-98526210D01*
X96999197Y-104383787D01*
X97012098Y-104399889D01*
X97014212Y-104401874D01*
X97014214Y-104401877D01*
X97052665Y-104437985D01*
X97063240Y-104447916D01*
X97066036Y-104450626D01*
X97085530Y-104470120D01*
X97088615Y-104472513D01*
X97088701Y-104472580D01*
X97097573Y-104480158D01*
X97129418Y-104510062D01*
X97146974Y-104519714D01*
X97163231Y-104530392D01*
X97179064Y-104542674D01*
X97195185Y-104549649D01*
X97219156Y-104560023D01*
X97229643Y-104565160D01*
X97267908Y-104586197D01*
X97287316Y-104591180D01*
X97305710Y-104597478D01*
X97324105Y-104605438D01*
X97367254Y-104612271D01*
X97378680Y-104614638D01*
X97394222Y-104618629D01*
X97420980Y-104625500D01*
X97420981Y-104625500D01*
X97441016Y-104625500D01*
X97460413Y-104627026D01*
X97480196Y-104630160D01*
X97523674Y-104626050D01*
X97535344Y-104625500D01*
X101046253Y-104625500D01*
X101113292Y-104645185D01*
X101138400Y-104666526D01*
X101144129Y-104672888D01*
X101297270Y-104784151D01*
X101297271Y-104784151D01*
X101297272Y-104784152D01*
X101470197Y-104861144D01*
X101552836Y-104878710D01*
X101614318Y-104911902D01*
X101648094Y-104973065D01*
X101643442Y-105042780D01*
X101601837Y-105098912D01*
X101552836Y-105121290D01*
X101470197Y-105138855D01*
X101297269Y-105215848D01*
X101144129Y-105327110D01*
X101017466Y-105467783D01*
X100922820Y-105631715D01*
X100864326Y-105811742D01*
X100852328Y-105925896D01*
X100844540Y-106000000D01*
X100853658Y-106086756D01*
X100864326Y-106188257D01*
X100922820Y-106368284D01*
X100927564Y-106376500D01*
X100944037Y-106444400D01*
X100921184Y-106510427D01*
X100866263Y-106553618D01*
X100820177Y-106562500D01*
X81108740Y-106562500D01*
X81088236Y-106560236D01*
X81018144Y-106562439D01*
X81014250Y-106562500D01*
X80986650Y-106562500D01*
X80986425Y-106562528D01*
X80954560Y-106560186D01*
X80866648Y-106541500D01*
X80866646Y-106541500D01*
X80807453Y-106541500D01*
X80740414Y-106521815D01*
X80719772Y-106505181D01*
X80163819Y-105949227D01*
X80130334Y-105887904D01*
X80127500Y-105861546D01*
X80127500Y-104450452D01*
X80147185Y-104383413D01*
X80163819Y-104362771D01*
X80719772Y-103806819D01*
X80781095Y-103773334D01*
X80807453Y-103770500D01*
X80866648Y-103770500D01*
X81041570Y-103733319D01*
X81051803Y-103731144D01*
X81224730Y-103654151D01*
X81276950Y-103616211D01*
X81377870Y-103542889D01*
X81395026Y-103523836D01*
X81504533Y-103402216D01*
X81599179Y-103238284D01*
X81657674Y-103058256D01*
X81677460Y-102870000D01*
X81657674Y-102681744D01*
X81599179Y-102501716D01*
X81599179Y-102501715D01*
X81504533Y-102337783D01*
X81377870Y-102197110D01*
X81224730Y-102085848D01*
X81051802Y-102008855D01*
X80866648Y-101969500D01*
X80866646Y-101969500D01*
X80677354Y-101969500D01*
X80677352Y-101969500D01*
X80492197Y-102008855D01*
X80319269Y-102085848D01*
X80166129Y-102197110D01*
X80039466Y-102337783D01*
X79944820Y-102501715D01*
X79886326Y-102681742D01*
X79868679Y-102849649D01*
X79842094Y-102914263D01*
X79833039Y-102924368D01*
X79118208Y-103639199D01*
X79102110Y-103652096D01*
X79054096Y-103703225D01*
X79051392Y-103706016D01*
X79034628Y-103722780D01*
X79034621Y-103722787D01*
X79031880Y-103725529D01*
X79029499Y-103728597D01*
X79029490Y-103728608D01*
X79029411Y-103728711D01*
X79021842Y-103737572D01*
X78991935Y-103769420D01*
X78982285Y-103786974D01*
X78971609Y-103803228D01*
X78959326Y-103819063D01*
X78941975Y-103859158D01*
X78936838Y-103869644D01*
X78915802Y-103907907D01*
X78910821Y-103927309D01*
X78904520Y-103945711D01*
X78896561Y-103964102D01*
X78889728Y-104007242D01*
X78887360Y-104018674D01*
X78876499Y-104060977D01*
X78876500Y-104081016D01*
X78874973Y-104100414D01*
X78871840Y-104120194D01*
X70866500Y-104120194D01*
X70866500Y-98640937D01*
X71715630Y-98640937D01*
X71746443Y-98842071D01*
X71817113Y-99032886D01*
X71924745Y-99205568D01*
X71924748Y-99205571D01*
X72064941Y-99353053D01*
X72231951Y-99469295D01*
X72418942Y-99549540D01*
X72618259Y-99590500D01*
X72618261Y-99590500D01*
X73767600Y-99590500D01*
X73770742Y-99590500D01*
X73922438Y-99575074D01*
X74116588Y-99514159D01*
X74294502Y-99415409D01*
X74448895Y-99282866D01*
X74573448Y-99121958D01*
X74663060Y-98939271D01*
X74714063Y-98742285D01*
X74724369Y-98539064D01*
X74723616Y-98534151D01*
X74693556Y-98337928D01*
X74622886Y-98147113D01*
X74515254Y-97974431D01*
X74495977Y-97954152D01*
X74375059Y-97826947D01*
X74208049Y-97710705D01*
X74021058Y-97630460D01*
X73821741Y-97589500D01*
X72669258Y-97589500D01*
X72666147Y-97589816D01*
X72666134Y-97589817D01*
X72517559Y-97604926D01*
X72323412Y-97665841D01*
X72145500Y-97764589D01*
X71991104Y-97897135D01*
X71866551Y-98058042D01*
X71776940Y-98240727D01*
X71725937Y-98437716D01*
X71715630Y-98640937D01*
X70866500Y-98640937D01*
X70866500Y-80642500D01*
X70886185Y-80575461D01*
X70938989Y-80529706D01*
X70990500Y-80518500D01*
X71119901Y-80518500D01*
X77699240Y-80518500D01*
X77699380Y-80518528D01*
X77699381Y-80518524D01*
X77723998Y-80518540D01*
X77724000Y-80518541D01*
X77724001Y-80518540D01*
X77736583Y-80518549D01*
X77803610Y-80538279D01*
X77849329Y-80591113D01*
X77860500Y-80642549D01*
X77860500Y-81223546D01*
X77840815Y-81290585D01*
X77824181Y-81311227D01*
X76971208Y-82164199D01*
X76955110Y-82177096D01*
X76907096Y-82228225D01*
X76904392Y-82231016D01*
X76887628Y-82247780D01*
X76887621Y-82247787D01*
X76884880Y-82250529D01*
X76882499Y-82253597D01*
X76882490Y-82253608D01*
X76882411Y-82253711D01*
X76874842Y-82262572D01*
X76844935Y-82294420D01*
X76835285Y-82311974D01*
X76824609Y-82328228D01*
X76812326Y-82344063D01*
X76794975Y-82384158D01*
X76789838Y-82394644D01*
X76768802Y-82432907D01*
X76763821Y-82452309D01*
X76757520Y-82470711D01*
X76749561Y-82489102D01*
X76742728Y-82532242D01*
X76740360Y-82543674D01*
X76729500Y-82585977D01*
X76729500Y-82606016D01*
X76727973Y-82625414D01*
X76725553Y-82640697D01*
X76724840Y-82645196D01*
X76728950Y-82688673D01*
X76729500Y-82700343D01*
X76729500Y-86164546D01*
X76709815Y-86231585D01*
X76693181Y-86252227D01*
X75054208Y-87891199D01*
X75038110Y-87904096D01*
X74990096Y-87955225D01*
X74987392Y-87958016D01*
X74970628Y-87974780D01*
X74970621Y-87974787D01*
X74967880Y-87977529D01*
X74965499Y-87980597D01*
X74965490Y-87980608D01*
X74965411Y-87980711D01*
X74957842Y-87989572D01*
X74927935Y-88021420D01*
X74918285Y-88038974D01*
X74907609Y-88055228D01*
X74895326Y-88071063D01*
X74877975Y-88111158D01*
X74872838Y-88121644D01*
X74851802Y-88159907D01*
X74846821Y-88179309D01*
X74840520Y-88197711D01*
X74832561Y-88216102D01*
X74825728Y-88259242D01*
X74823360Y-88270674D01*
X74812499Y-88312977D01*
X74812500Y-88333016D01*
X74810973Y-88352414D01*
X74808212Y-88369849D01*
X74807840Y-88372196D01*
X74811457Y-88410460D01*
X74811950Y-88415673D01*
X74812500Y-88427343D01*
X74812500Y-88797959D01*
X74792815Y-88864998D01*
X74740011Y-88910753D01*
X74670853Y-88920697D01*
X74607297Y-88891672D01*
X74583268Y-88863550D01*
X74515254Y-88754431D01*
X74496888Y-88735110D01*
X74375059Y-88606947D01*
X74208049Y-88490705D01*
X74021058Y-88410460D01*
X73821741Y-88369500D01*
X72669258Y-88369500D01*
X72666147Y-88369816D01*
X72666134Y-88369817D01*
X72517559Y-88384926D01*
X72323412Y-88445841D01*
X72145500Y-88544589D01*
X71991104Y-88677135D01*
X71866551Y-88838042D01*
X71776940Y-89020727D01*
X71725937Y-89217716D01*
X71715630Y-89420937D01*
X71746443Y-89622071D01*
X71817113Y-89812886D01*
X71924745Y-89985568D01*
X71924748Y-89985571D01*
X72064941Y-90133053D01*
X72231951Y-90249295D01*
X72418942Y-90329540D01*
X72618259Y-90370500D01*
X72618261Y-90370500D01*
X73767600Y-90370500D01*
X73770742Y-90370500D01*
X73922438Y-90355074D01*
X74116588Y-90294159D01*
X74294502Y-90195409D01*
X74448895Y-90062866D01*
X74573448Y-89901958D01*
X74577172Y-89894367D01*
X74624368Y-89842847D01*
X74691925Y-89825022D01*
X74758395Y-89846551D01*
X74802674Y-89900599D01*
X74812500Y-89948975D01*
X74812500Y-96583312D01*
X74792815Y-96650351D01*
X74780650Y-96666284D01*
X74705466Y-96749783D01*
X74610820Y-96913715D01*
X74552326Y-97093742D01*
X74532540Y-97282000D01*
X74552326Y-97470257D01*
X74610820Y-97650284D01*
X74705466Y-97814216D01*
X74832129Y-97954889D01*
X74985269Y-98066151D01*
X75158197Y-98143144D01*
X75343352Y-98182500D01*
X75343354Y-98182500D01*
X75532648Y-98182500D01*
X75656083Y-98156262D01*
X75717803Y-98143144D01*
X75890730Y-98066151D01*
X76011708Y-97978256D01*
X76043870Y-97954889D01*
X76058847Y-97938256D01*
X76170533Y-97814216D01*
X76265179Y-97650284D01*
X76312827Y-97503637D01*
X76352263Y-97445964D01*
X76416621Y-97418765D01*
X76485468Y-97430679D01*
X76536944Y-97477923D01*
X76548688Y-97503638D01*
X76561218Y-97542201D01*
X76566732Y-97559171D01*
X76621391Y-97645300D01*
X76640692Y-97712449D01*
X76620625Y-97779375D01*
X76597467Y-97805824D01*
X76500412Y-97889144D01*
X76491104Y-97897135D01*
X76366551Y-98058042D01*
X76276940Y-98240727D01*
X76225937Y-98437716D01*
X76215630Y-98640937D01*
X76246443Y-98842071D01*
X76317113Y-99032886D01*
X76424745Y-99205568D01*
X76424748Y-99205571D01*
X76564941Y-99353053D01*
X76731951Y-99469295D01*
X76918942Y-99549540D01*
X77118259Y-99590500D01*
X77118261Y-99590500D01*
X78267600Y-99590500D01*
X78270742Y-99590500D01*
X78422438Y-99575074D01*
X78616588Y-99514159D01*
X78794502Y-99415409D01*
X78948895Y-99282866D01*
X79073448Y-99121958D01*
X79163060Y-98939271D01*
X79214063Y-98742285D01*
X79224369Y-98539064D01*
X79223616Y-98534151D01*
X79193556Y-98337928D01*
X79122886Y-98147113D01*
X79015254Y-97974431D01*
X78995977Y-97954152D01*
X78875059Y-97826947D01*
X78708049Y-97710705D01*
X78521058Y-97630460D01*
X78321741Y-97589500D01*
X78321739Y-97589500D01*
X77913079Y-97589500D01*
X77846040Y-97569815D01*
X77800285Y-97517011D01*
X77790341Y-97447853D01*
X77791267Y-97442306D01*
X77814376Y-97321170D01*
X77804056Y-97157140D01*
X77753268Y-97000829D01*
X77682616Y-96889500D01*
X77665202Y-96862059D01*
X77545393Y-96749552D01*
X77401365Y-96670371D01*
X77242179Y-96629500D01*
X77242177Y-96629500D01*
X77119075Y-96629500D01*
X77115216Y-96629987D01*
X77115208Y-96629988D01*
X76996940Y-96644928D01*
X76844129Y-96705431D01*
X76711165Y-96802034D01*
X76606399Y-96928675D01*
X76540777Y-97068130D01*
X76494422Y-97120408D01*
X76427162Y-97139326D01*
X76360351Y-97118877D01*
X76315203Y-97065554D01*
X76310647Y-97053652D01*
X76265179Y-96913715D01*
X76170533Y-96749783D01*
X76095350Y-96666284D01*
X76065120Y-96603293D01*
X76063500Y-96583312D01*
X76063500Y-95000000D01*
X86094540Y-95000000D01*
X86097764Y-95030674D01*
X86114326Y-95188257D01*
X86172820Y-95368284D01*
X86267466Y-95532216D01*
X86394129Y-95672889D01*
X86547269Y-95784151D01*
X86720197Y-95861144D01*
X86905352Y-95900500D01*
X86905354Y-95900500D01*
X87094648Y-95900500D01*
X87218083Y-95874262D01*
X87279803Y-95861144D01*
X87452730Y-95784151D01*
X87605871Y-95672888D01*
X87609907Y-95668404D01*
X87669390Y-95631756D01*
X87698159Y-95627437D01*
X87753525Y-95625697D01*
X87757874Y-95625561D01*
X87761768Y-95625500D01*
X87785448Y-95625500D01*
X87789350Y-95625500D01*
X87793313Y-95624999D01*
X87804962Y-95624080D01*
X87848627Y-95622709D01*
X87867859Y-95617120D01*
X87886918Y-95613174D01*
X87893196Y-95612381D01*
X87906792Y-95610664D01*
X87947407Y-95594582D01*
X87958444Y-95590803D01*
X88000390Y-95578618D01*
X88017629Y-95568422D01*
X88035102Y-95559862D01*
X88053732Y-95552486D01*
X88089064Y-95526814D01*
X88098830Y-95520400D01*
X88136418Y-95498171D01*
X88136417Y-95498171D01*
X88136420Y-95498170D01*
X88150585Y-95484004D01*
X88165373Y-95471373D01*
X88181587Y-95459594D01*
X88209438Y-95425926D01*
X88217279Y-95417309D01*
X89383788Y-94250801D01*
X89399885Y-94237906D01*
X89401873Y-94235787D01*
X89401877Y-94235786D01*
X89447949Y-94186723D01*
X89450534Y-94184055D01*
X89470120Y-94164471D01*
X89472585Y-94161292D01*
X89480167Y-94152416D01*
X89492902Y-94138855D01*
X89510062Y-94120582D01*
X89519712Y-94103027D01*
X89530400Y-94086757D01*
X89542671Y-94070938D01*
X89542673Y-94070936D01*
X89560026Y-94030832D01*
X89565157Y-94020362D01*
X89586197Y-93982092D01*
X89591175Y-93962699D01*
X89597481Y-93944282D01*
X89599018Y-93940728D01*
X89605438Y-93925896D01*
X89612272Y-93882745D01*
X89614635Y-93871331D01*
X89625500Y-93829019D01*
X89625500Y-93808983D01*
X89627027Y-93789584D01*
X89630160Y-93769804D01*
X89626050Y-93726324D01*
X89625500Y-93714655D01*
X89625500Y-92710000D01*
X119998540Y-92710000D01*
X120018326Y-92898257D01*
X120076820Y-93078284D01*
X120171466Y-93242216D01*
X120298129Y-93382889D01*
X120451269Y-93494151D01*
X120624197Y-93571144D01*
X120809352Y-93610500D01*
X120809354Y-93610500D01*
X120868548Y-93610500D01*
X120935587Y-93630185D01*
X120956229Y-93646819D01*
X122181197Y-94871787D01*
X122194098Y-94887889D01*
X122196212Y-94889874D01*
X122196214Y-94889877D01*
X122243561Y-94934339D01*
X122245240Y-94935916D01*
X122248036Y-94938626D01*
X122267530Y-94958120D01*
X122270615Y-94960513D01*
X122270701Y-94960580D01*
X122279573Y-94968158D01*
X122311418Y-94998062D01*
X122328974Y-95007714D01*
X122345231Y-95018392D01*
X122361064Y-95030674D01*
X122377185Y-95037649D01*
X122401156Y-95048023D01*
X122411643Y-95053160D01*
X122449908Y-95074197D01*
X122469316Y-95079180D01*
X122487710Y-95085478D01*
X122506105Y-95093438D01*
X122549254Y-95100271D01*
X122560680Y-95102638D01*
X122576222Y-95106629D01*
X122602980Y-95113500D01*
X122602981Y-95113500D01*
X122623016Y-95113500D01*
X122642413Y-95115026D01*
X122662196Y-95118160D01*
X122705674Y-95114050D01*
X122717344Y-95113500D01*
X141150561Y-95113500D01*
X141171067Y-95115764D01*
X141173970Y-95115672D01*
X141173972Y-95115673D01*
X141241177Y-95113561D01*
X141245073Y-95113500D01*
X141268753Y-95113500D01*
X141272655Y-95113500D01*
X141276618Y-95112999D01*
X141288267Y-95112080D01*
X141331932Y-95110709D01*
X141351164Y-95105120D01*
X141370223Y-95101174D01*
X141377396Y-95100268D01*
X141390097Y-95098664D01*
X141430712Y-95082582D01*
X141441749Y-95078803D01*
X141483695Y-95066618D01*
X141500934Y-95056422D01*
X141518407Y-95047862D01*
X141537037Y-95040486D01*
X141572369Y-95014814D01*
X141582135Y-95008400D01*
X141619723Y-94986171D01*
X141619722Y-94986171D01*
X141619725Y-94986170D01*
X141633890Y-94972004D01*
X141648678Y-94959373D01*
X141664892Y-94947594D01*
X141692743Y-94913926D01*
X141700584Y-94905309D01*
X142705076Y-93900819D01*
X142766400Y-93867334D01*
X142792758Y-93864500D01*
X142842648Y-93864500D01*
X143009572Y-93829019D01*
X143027803Y-93825144D01*
X143107671Y-93789584D01*
X143212636Y-93742851D01*
X143213767Y-93745392D01*
X143261416Y-93728389D01*
X143329471Y-93744211D01*
X143378167Y-93794315D01*
X143392500Y-93852186D01*
X143392500Y-95341077D01*
X143372815Y-95408116D01*
X143320011Y-95453871D01*
X143250853Y-95463815D01*
X143187297Y-95434790D01*
X143176351Y-95424050D01*
X143099870Y-95339111D01*
X142946730Y-95227848D01*
X142773802Y-95150855D01*
X142588648Y-95111500D01*
X142588646Y-95111500D01*
X142399354Y-95111500D01*
X142399352Y-95111500D01*
X142214197Y-95150855D01*
X142041269Y-95227848D01*
X141888129Y-95339110D01*
X141761466Y-95479783D01*
X141666820Y-95643715D01*
X141608326Y-95823742D01*
X141588540Y-96012000D01*
X141608326Y-96200257D01*
X141666820Y-96380284D01*
X141761464Y-96544213D01*
X141836650Y-96627714D01*
X141866880Y-96690706D01*
X141868500Y-96710687D01*
X141868500Y-103187312D01*
X141848815Y-103254351D01*
X141836650Y-103270284D01*
X141761466Y-103353783D01*
X141666820Y-103517715D01*
X141608326Y-103697742D01*
X141590896Y-103863579D01*
X141588540Y-103886000D01*
X141590843Y-103907908D01*
X141608326Y-104074257D01*
X141666820Y-104254284D01*
X141761466Y-104418216D01*
X141888129Y-104558889D01*
X142041269Y-104670151D01*
X142214197Y-104747144D01*
X142399352Y-104786500D01*
X142399354Y-104786500D01*
X142588648Y-104786500D01*
X142712083Y-104760262D01*
X142773803Y-104747144D01*
X142946730Y-104670151D01*
X143001773Y-104630160D01*
X143099870Y-104558889D01*
X143120480Y-104536000D01*
X143226533Y-104418216D01*
X143321179Y-104254284D01*
X143379674Y-104074256D01*
X143399460Y-103886000D01*
X143379674Y-103697744D01*
X143339775Y-103574949D01*
X143321179Y-103517715D01*
X143226533Y-103353783D01*
X143151350Y-103270284D01*
X143121120Y-103207293D01*
X143119500Y-103187312D01*
X143119500Y-96710687D01*
X143139185Y-96643648D01*
X143151350Y-96627714D01*
X143191330Y-96583312D01*
X143226533Y-96544216D01*
X143321179Y-96380284D01*
X143363888Y-96248839D01*
X143403324Y-96191166D01*
X143467682Y-96163967D01*
X143536529Y-96175881D01*
X143560859Y-96191616D01*
X143592059Y-96217427D01*
X143600699Y-96225289D01*
X144349038Y-96973629D01*
X144382523Y-97034952D01*
X144384678Y-97048348D01*
X144402326Y-97216257D01*
X144460820Y-97396284D01*
X144555466Y-97560216D01*
X144682129Y-97700889D01*
X144835269Y-97812151D01*
X145008197Y-97889144D01*
X145193352Y-97928500D01*
X145193354Y-97928500D01*
X145382648Y-97928500D01*
X145530208Y-97897135D01*
X145567803Y-97889144D01*
X145740730Y-97812151D01*
X145771218Y-97790000D01*
X145893870Y-97700889D01*
X145925428Y-97665841D01*
X146020533Y-97560216D01*
X146115179Y-97396284D01*
X146173674Y-97216256D01*
X146193460Y-97028000D01*
X146173674Y-96839744D01*
X146130033Y-96705431D01*
X146115179Y-96659715D01*
X146020533Y-96495783D01*
X145893870Y-96355110D01*
X145740730Y-96243848D01*
X145567802Y-96166855D01*
X145382648Y-96127500D01*
X145382646Y-96127500D01*
X145323453Y-96127500D01*
X145256414Y-96107815D01*
X145235772Y-96091181D01*
X144679819Y-95535227D01*
X144646334Y-95473904D01*
X144643500Y-95447546D01*
X144643500Y-93662687D01*
X144663185Y-93595648D01*
X144675350Y-93579714D01*
X144750533Y-93496216D01*
X144783252Y-93439546D01*
X144845179Y-93332284D01*
X144874444Y-93242216D01*
X144903674Y-93152256D01*
X144923460Y-92964000D01*
X144903674Y-92775744D01*
X144845179Y-92595716D01*
X144845179Y-92595715D01*
X144750533Y-92431783D01*
X144623870Y-92291110D01*
X144470730Y-92179848D01*
X144297802Y-92102855D01*
X144112648Y-92063500D01*
X144112646Y-92063500D01*
X143923354Y-92063500D01*
X143923352Y-92063500D01*
X143738197Y-92102855D01*
X143565269Y-92179848D01*
X143455885Y-92259321D01*
X143390079Y-92282801D01*
X143322025Y-92266976D01*
X143310115Y-92259321D01*
X143200730Y-92179848D01*
X143027802Y-92102855D01*
X142842648Y-92063500D01*
X142842646Y-92063500D01*
X142653354Y-92063500D01*
X142653352Y-92063500D01*
X142468201Y-92102854D01*
X142290436Y-92182001D01*
X142221186Y-92191285D01*
X142189564Y-92182001D01*
X142094205Y-92139544D01*
X142011803Y-92102856D01*
X142011802Y-92102855D01*
X142011798Y-92102854D01*
X141826648Y-92063500D01*
X141826646Y-92063500D01*
X141637354Y-92063500D01*
X141637352Y-92063500D01*
X141452197Y-92102855D01*
X141279269Y-92179848D01*
X141126129Y-92291110D01*
X140999466Y-92431783D01*
X140904820Y-92595715D01*
X140846326Y-92775742D01*
X140828679Y-92943650D01*
X140802094Y-93008264D01*
X140793039Y-93018369D01*
X140435228Y-93376181D01*
X140373905Y-93409666D01*
X140347547Y-93412500D01*
X124574452Y-93412500D01*
X124507413Y-93392815D01*
X124486771Y-93376181D01*
X122858960Y-91748369D01*
X122825475Y-91687046D01*
X122823323Y-91673668D01*
X122805674Y-91505744D01*
X122771478Y-91400500D01*
X122747179Y-91325715D01*
X122652533Y-91161783D01*
X122525870Y-91021110D01*
X122372730Y-90909848D01*
X122199802Y-90832855D01*
X122014648Y-90793500D01*
X122014646Y-90793500D01*
X121825354Y-90793500D01*
X121825352Y-90793500D01*
X121640197Y-90832855D01*
X121467269Y-90909848D01*
X121314129Y-91021110D01*
X121187466Y-91161783D01*
X121092820Y-91325715D01*
X121034326Y-91505742D01*
X121014071Y-91698462D01*
X120987486Y-91763076D01*
X120930189Y-91803061D01*
X120890750Y-91809500D01*
X120809352Y-91809500D01*
X120624197Y-91848855D01*
X120451269Y-91925848D01*
X120298129Y-92037110D01*
X120171466Y-92177783D01*
X120076820Y-92341715D01*
X120018326Y-92521742D01*
X119998540Y-92710000D01*
X89625500Y-92710000D01*
X89625500Y-91332740D01*
X89627763Y-91312239D01*
X89625561Y-91242144D01*
X89625500Y-91238250D01*
X89625500Y-91214544D01*
X89625500Y-91210650D01*
X89624998Y-91206681D01*
X89624080Y-91195024D01*
X89622709Y-91151373D01*
X89617120Y-91132140D01*
X89613174Y-91113082D01*
X89610664Y-91093208D01*
X89594588Y-91052606D01*
X89590804Y-91041552D01*
X89578619Y-90999613D01*
X89578618Y-90999612D01*
X89578618Y-90999610D01*
X89568417Y-90982361D01*
X89559860Y-90964895D01*
X89552486Y-90946268D01*
X89526813Y-90910932D01*
X89520402Y-90901172D01*
X89498169Y-90863578D01*
X89484006Y-90849415D01*
X89471369Y-90834620D01*
X89459595Y-90818414D01*
X89459594Y-90818413D01*
X89425935Y-90790568D01*
X89417305Y-90782714D01*
X89188960Y-90554369D01*
X89155475Y-90493046D01*
X89153323Y-90479668D01*
X89135674Y-90311744D01*
X89081776Y-90145863D01*
X89077179Y-90131715D01*
X88982533Y-89967783D01*
X88855870Y-89827110D01*
X88702730Y-89715848D01*
X88529802Y-89638855D01*
X88344648Y-89599500D01*
X88344646Y-89599500D01*
X88155354Y-89599500D01*
X88155352Y-89599500D01*
X87970197Y-89638855D01*
X87797269Y-89715848D01*
X87644129Y-89827110D01*
X87517466Y-89967783D01*
X87422820Y-90131715D01*
X87364326Y-90311742D01*
X87344540Y-90500000D01*
X87364326Y-90688257D01*
X87422820Y-90868284D01*
X87517466Y-91032216D01*
X87644129Y-91172889D01*
X87797269Y-91284151D01*
X87970197Y-91361144D01*
X88155352Y-91400500D01*
X88155354Y-91400500D01*
X88214546Y-91400500D01*
X88281585Y-91420185D01*
X88302226Y-91436818D01*
X88338180Y-91472771D01*
X88371666Y-91534093D01*
X88374500Y-91560453D01*
X88374500Y-93439546D01*
X88354815Y-93506585D01*
X88338181Y-93527227D01*
X87641619Y-94223789D01*
X87580296Y-94257274D01*
X87510604Y-94252290D01*
X87481052Y-94236426D01*
X87473728Y-94231105D01*
X87452730Y-94215849D01*
X87452729Y-94215848D01*
X87452727Y-94215847D01*
X87279802Y-94138855D01*
X87094648Y-94099500D01*
X87094646Y-94099500D01*
X86905354Y-94099500D01*
X86905352Y-94099500D01*
X86720197Y-94138855D01*
X86547269Y-94215848D01*
X86394129Y-94327110D01*
X86267466Y-94467783D01*
X86172820Y-94631715D01*
X86114326Y-94811742D01*
X86095993Y-94986171D01*
X86094540Y-95000000D01*
X76063500Y-95000000D01*
X76063500Y-89819953D01*
X76083185Y-89752914D01*
X76135989Y-89707159D01*
X76205147Y-89697215D01*
X76268703Y-89726240D01*
X76303781Y-89776887D01*
X76317113Y-89812886D01*
X76424747Y-89985571D01*
X76564940Y-90133052D01*
X76583345Y-90145863D01*
X76627123Y-90200317D01*
X76634511Y-90269795D01*
X76608055Y-90326673D01*
X76606401Y-90328671D01*
X76536421Y-90477387D01*
X76505623Y-90638833D01*
X76515943Y-90802858D01*
X76525690Y-90832855D01*
X76566732Y-90959171D01*
X76600922Y-91013045D01*
X76654797Y-91097940D01*
X76758182Y-91195024D01*
X76774607Y-91210448D01*
X76908671Y-91284151D01*
X76918634Y-91289628D01*
X77077821Y-91330500D01*
X77077823Y-91330500D01*
X77197030Y-91330500D01*
X77200925Y-91330500D01*
X77302773Y-91317633D01*
X77323059Y-91315071D01*
X77401153Y-91284151D01*
X77475871Y-91254568D01*
X77608837Y-91157963D01*
X77713600Y-91031326D01*
X77783579Y-90882613D01*
X77814376Y-90721170D01*
X77804056Y-90557140D01*
X77803156Y-90554369D01*
X77796154Y-90532817D01*
X77794159Y-90462976D01*
X77830240Y-90403143D01*
X77892941Y-90372316D01*
X77914085Y-90370500D01*
X78267600Y-90370500D01*
X78270742Y-90370500D01*
X78422438Y-90355074D01*
X78616588Y-90294159D01*
X78794502Y-90195409D01*
X78948895Y-90062866D01*
X79073448Y-89901958D01*
X79163060Y-89719271D01*
X79214063Y-89522285D01*
X79224369Y-89319064D01*
X79209153Y-89219742D01*
X79199082Y-89153999D01*
X119998540Y-89153999D01*
X120018326Y-89342257D01*
X120076820Y-89522284D01*
X120171466Y-89686216D01*
X120298129Y-89826889D01*
X120451269Y-89938151D01*
X120624197Y-90015144D01*
X120809352Y-90054500D01*
X120809354Y-90054500D01*
X120998648Y-90054500D01*
X121122084Y-90028262D01*
X121183803Y-90015144D01*
X121356730Y-89938151D01*
X121509871Y-89826888D01*
X121515598Y-89820527D01*
X121575084Y-89783879D01*
X121607747Y-89779500D01*
X129344253Y-89779500D01*
X129411292Y-89799185D01*
X129436400Y-89820526D01*
X129442129Y-89826888D01*
X129595270Y-89938151D01*
X129595271Y-89938151D01*
X129595272Y-89938152D01*
X129768197Y-90015144D01*
X129953352Y-90054500D01*
X129953354Y-90054500D01*
X130142648Y-90054500D01*
X130266083Y-90028262D01*
X130327803Y-90015144D01*
X130500730Y-89938151D01*
X130626807Y-89846551D01*
X130653870Y-89826889D01*
X130659598Y-89820528D01*
X130780533Y-89686216D01*
X130875179Y-89522284D01*
X130933674Y-89342256D01*
X130953460Y-89154000D01*
X130933674Y-88965744D01*
X130875179Y-88785716D01*
X130875179Y-88785715D01*
X130780533Y-88621783D01*
X130653870Y-88481110D01*
X130500730Y-88369848D01*
X130327802Y-88292855D01*
X130142648Y-88253500D01*
X130142646Y-88253500D01*
X129953354Y-88253500D01*
X129953352Y-88253500D01*
X129768197Y-88292855D01*
X129595272Y-88369847D01*
X129532198Y-88415673D01*
X129442129Y-88481112D01*
X129436401Y-88487472D01*
X129376916Y-88524121D01*
X129344253Y-88528500D01*
X121607747Y-88528500D01*
X121540708Y-88508815D01*
X121515599Y-88487473D01*
X121509871Y-88481112D01*
X121356730Y-88369849D01*
X121356729Y-88369848D01*
X121356727Y-88369847D01*
X121183802Y-88292855D01*
X120998648Y-88253500D01*
X120998646Y-88253500D01*
X120809354Y-88253500D01*
X120809352Y-88253500D01*
X120624197Y-88292855D01*
X120451269Y-88369848D01*
X120298129Y-88481110D01*
X120171466Y-88621783D01*
X120076820Y-88785715D01*
X120018326Y-88965742D01*
X119998540Y-89153999D01*
X79199082Y-89153999D01*
X79193556Y-89117928D01*
X79122886Y-88927113D01*
X79015254Y-88754431D01*
X78996888Y-88735110D01*
X78875059Y-88606947D01*
X78708049Y-88490705D01*
X78521058Y-88410460D01*
X78321741Y-88369500D01*
X77169258Y-88369500D01*
X77166147Y-88369816D01*
X77166134Y-88369817D01*
X77017559Y-88384926D01*
X76823412Y-88445841D01*
X76645500Y-88544589D01*
X76491104Y-88677135D01*
X76366551Y-88838042D01*
X76298828Y-88976107D01*
X76251631Y-89027626D01*
X76184073Y-89045451D01*
X76117604Y-89023921D01*
X76073325Y-88969873D01*
X76063500Y-88921498D01*
X76063500Y-88702452D01*
X76083185Y-88635413D01*
X76099819Y-88614771D01*
X76904601Y-87809989D01*
X77738789Y-86975800D01*
X77754885Y-86962906D01*
X77756873Y-86960787D01*
X77756877Y-86960786D01*
X77802949Y-86911723D01*
X77805534Y-86909055D01*
X77825120Y-86889471D01*
X77827585Y-86886292D01*
X77835167Y-86877416D01*
X77865062Y-86845582D01*
X77874717Y-86828018D01*
X77885394Y-86811764D01*
X77897673Y-86795936D01*
X77915018Y-86755852D01*
X77920160Y-86745356D01*
X77924398Y-86737648D01*
X77941197Y-86707092D01*
X77946179Y-86687684D01*
X77952481Y-86669280D01*
X77960437Y-86650896D01*
X77967269Y-86607752D01*
X77969633Y-86596338D01*
X77980500Y-86554019D01*
X77980500Y-86533982D01*
X77982027Y-86514584D01*
X77985160Y-86494804D01*
X77981050Y-86451324D01*
X77980500Y-86439655D01*
X77980500Y-83311999D01*
X78342540Y-83311999D01*
X78362326Y-83500257D01*
X78420820Y-83680284D01*
X78515466Y-83844216D01*
X78642129Y-83984889D01*
X78795269Y-84096151D01*
X78968197Y-84173144D01*
X79153352Y-84212500D01*
X79153354Y-84212500D01*
X79212548Y-84212500D01*
X79279587Y-84232185D01*
X79300229Y-84248819D01*
X79509197Y-84457787D01*
X79522098Y-84473889D01*
X79524212Y-84475874D01*
X79524214Y-84475877D01*
X79541655Y-84492255D01*
X79573240Y-84521916D01*
X79576036Y-84524626D01*
X79595530Y-84544120D01*
X79598615Y-84546513D01*
X79598701Y-84546580D01*
X79607573Y-84554158D01*
X79639418Y-84584062D01*
X79656974Y-84593714D01*
X79673231Y-84604392D01*
X79689064Y-84616674D01*
X79703824Y-84623061D01*
X79729156Y-84634023D01*
X79739643Y-84639160D01*
X79777908Y-84660197D01*
X79797316Y-84665180D01*
X79815710Y-84671478D01*
X79834105Y-84679438D01*
X79877254Y-84686271D01*
X79888680Y-84688638D01*
X79904222Y-84692629D01*
X79930980Y-84699500D01*
X79930981Y-84699500D01*
X79951016Y-84699500D01*
X79970413Y-84701026D01*
X79990196Y-84704160D01*
X80033674Y-84700050D01*
X80045344Y-84699500D01*
X82608253Y-84699500D01*
X82675292Y-84719185D01*
X82700400Y-84740526D01*
X82706129Y-84746888D01*
X82859270Y-84858151D01*
X82859271Y-84858151D01*
X82859272Y-84858152D01*
X83032197Y-84935144D01*
X83217352Y-84974500D01*
X83398531Y-84974500D01*
X83465570Y-84994185D01*
X83511325Y-85046989D01*
X83521269Y-85116147D01*
X83514713Y-85141833D01*
X83491824Y-85203200D01*
X83434039Y-85468838D01*
X83414644Y-85740000D01*
X83434039Y-86011161D01*
X83491823Y-86276796D01*
X83506128Y-86315149D01*
X83586828Y-86531513D01*
X83586830Y-86531517D01*
X83586831Y-86531519D01*
X83717109Y-86770108D01*
X83717113Y-86770113D01*
X83880029Y-86987742D01*
X84072258Y-87179971D01*
X84246299Y-87310257D01*
X84289891Y-87342890D01*
X84423022Y-87415584D01*
X84528487Y-87473172D01*
X84783199Y-87568175D01*
X84783202Y-87568175D01*
X84783203Y-87568176D01*
X84797224Y-87571226D01*
X85048840Y-87625961D01*
X85320000Y-87645355D01*
X85591160Y-87625961D01*
X85856801Y-87568175D01*
X86111513Y-87473172D01*
X86285319Y-87378266D01*
X86350108Y-87342890D01*
X86350109Y-87342889D01*
X86350113Y-87342887D01*
X86567742Y-87179971D01*
X86759971Y-86987742D01*
X86922887Y-86770113D01*
X87053172Y-86531513D01*
X87148175Y-86276801D01*
X87205961Y-86011160D01*
X87225355Y-85740000D01*
X87205961Y-85468840D01*
X87148175Y-85203199D01*
X87053172Y-84948487D01*
X87003845Y-84858151D01*
X86922890Y-84709891D01*
X86891235Y-84667605D01*
X86759971Y-84492258D01*
X86567742Y-84300029D01*
X86414486Y-84185302D01*
X86381711Y-84160767D01*
X86339840Y-84104833D01*
X86334856Y-84035141D01*
X86368341Y-83973818D01*
X86429665Y-83940334D01*
X86456022Y-83937500D01*
X87065548Y-83937500D01*
X87132587Y-83957185D01*
X87153229Y-83973819D01*
X87637197Y-84457787D01*
X87650098Y-84473889D01*
X87652212Y-84475874D01*
X87652214Y-84475877D01*
X87669655Y-84492255D01*
X87701240Y-84521916D01*
X87704036Y-84524626D01*
X87723530Y-84544120D01*
X87726615Y-84546513D01*
X87726701Y-84546580D01*
X87735573Y-84554158D01*
X87767418Y-84584062D01*
X87784974Y-84593714D01*
X87801231Y-84604392D01*
X87817064Y-84616674D01*
X87831824Y-84623061D01*
X87857156Y-84634023D01*
X87867643Y-84639160D01*
X87905908Y-84660197D01*
X87925316Y-84665180D01*
X87943710Y-84671478D01*
X87962105Y-84679438D01*
X88005254Y-84686271D01*
X88016680Y-84688638D01*
X88032222Y-84692629D01*
X88058980Y-84699500D01*
X88058981Y-84699500D01*
X88079016Y-84699500D01*
X88098413Y-84701026D01*
X88118196Y-84704160D01*
X88161674Y-84700050D01*
X88173344Y-84699500D01*
X89974253Y-84699500D01*
X90041292Y-84719185D01*
X90066400Y-84740526D01*
X90072129Y-84746888D01*
X90225270Y-84858151D01*
X90225271Y-84858151D01*
X90225272Y-84858152D01*
X90398197Y-84935144D01*
X90583352Y-84974500D01*
X90785679Y-84974500D01*
X90785679Y-84978283D01*
X90832645Y-84981860D01*
X90888385Y-85023989D01*
X90912500Y-85089565D01*
X90904959Y-85141174D01*
X90881824Y-85203200D01*
X90824039Y-85468838D01*
X90804644Y-85740000D01*
X90824039Y-86011161D01*
X90881823Y-86276796D01*
X90896128Y-86315149D01*
X90976828Y-86531513D01*
X90976830Y-86531517D01*
X90976831Y-86531519D01*
X91107109Y-86770108D01*
X91107113Y-86770113D01*
X91270029Y-86987742D01*
X91462258Y-87179971D01*
X91636299Y-87310257D01*
X91679891Y-87342890D01*
X91813022Y-87415584D01*
X91918487Y-87473172D01*
X92173199Y-87568175D01*
X92173202Y-87568175D01*
X92173203Y-87568176D01*
X92187224Y-87571226D01*
X92438840Y-87625961D01*
X92689110Y-87643860D01*
X92709999Y-87645355D01*
X92709999Y-87645354D01*
X92710000Y-87645355D01*
X92981160Y-87625961D01*
X93246801Y-87568175D01*
X93501513Y-87473172D01*
X93675319Y-87378266D01*
X93740108Y-87342890D01*
X93740109Y-87342889D01*
X93740113Y-87342887D01*
X93957742Y-87179971D01*
X94149971Y-86987742D01*
X94312887Y-86770113D01*
X94443172Y-86531513D01*
X94538175Y-86276801D01*
X94595961Y-86011160D01*
X94615355Y-85740000D01*
X94595961Y-85468840D01*
X94538175Y-85203199D01*
X94443172Y-84948487D01*
X94393845Y-84858151D01*
X94312890Y-84709891D01*
X94281235Y-84667605D01*
X94149971Y-84492258D01*
X93957742Y-84300029D01*
X93813726Y-84192219D01*
X93740108Y-84137109D01*
X93501519Y-84006831D01*
X93501517Y-84006830D01*
X93501513Y-84006828D01*
X93246801Y-83911825D01*
X93246796Y-83911823D01*
X92981161Y-83854039D01*
X92709999Y-83834644D01*
X92438838Y-83854039D01*
X92173200Y-83911824D01*
X91992090Y-83979375D01*
X91922399Y-83984359D01*
X91861076Y-83950874D01*
X91827591Y-83889551D01*
X91832575Y-83819859D01*
X91861073Y-83775515D01*
X93099770Y-82536819D01*
X93161094Y-82503334D01*
X93187452Y-82500500D01*
X104902646Y-82500500D01*
X104969685Y-82520185D01*
X104990327Y-82536819D01*
X107796181Y-85342673D01*
X107829666Y-85403996D01*
X107832500Y-85430354D01*
X107832500Y-85769256D01*
X107830235Y-85789766D01*
X107832439Y-85859872D01*
X107832500Y-85863767D01*
X107832500Y-85891350D01*
X107832988Y-85895219D01*
X107832989Y-85895225D01*
X107833004Y-85895343D01*
X107833918Y-85906967D01*
X107835290Y-85950626D01*
X107840879Y-85969860D01*
X107844825Y-85988916D01*
X107847335Y-86008792D01*
X107863414Y-86049404D01*
X107867197Y-86060451D01*
X107879382Y-86102391D01*
X107889580Y-86119635D01*
X107898136Y-86137100D01*
X107905514Y-86155732D01*
X107905515Y-86155733D01*
X107931180Y-86191059D01*
X107937593Y-86200822D01*
X107959826Y-86238416D01*
X107959829Y-86238419D01*
X107959830Y-86238420D01*
X107973995Y-86252585D01*
X107986627Y-86267375D01*
X107998406Y-86283587D01*
X108032058Y-86311426D01*
X108040699Y-86319289D01*
X109227196Y-87505787D01*
X109240096Y-87521888D01*
X109291223Y-87569900D01*
X109294020Y-87572611D01*
X109313529Y-87592120D01*
X109316709Y-87594587D01*
X109325571Y-87602155D01*
X109350920Y-87625960D01*
X109357418Y-87632062D01*
X109374970Y-87641711D01*
X109391238Y-87652397D01*
X109407064Y-87664673D01*
X109447146Y-87682017D01*
X109457633Y-87687155D01*
X109495907Y-87708197D01*
X109504410Y-87710379D01*
X109515308Y-87713178D01*
X109533713Y-87719478D01*
X109552104Y-87727437D01*
X109595250Y-87734270D01*
X109606668Y-87736635D01*
X109648981Y-87747500D01*
X109669016Y-87747500D01*
X109688415Y-87749027D01*
X109708196Y-87752160D01*
X109751674Y-87748050D01*
X109763344Y-87747500D01*
X109786253Y-87747500D01*
X109853292Y-87767185D01*
X109878400Y-87788526D01*
X109884129Y-87794888D01*
X110037270Y-87906151D01*
X110037271Y-87906151D01*
X110037272Y-87906152D01*
X110210197Y-87983144D01*
X110395352Y-88022500D01*
X110395354Y-88022500D01*
X110584648Y-88022500D01*
X110759570Y-87985319D01*
X110769803Y-87983144D01*
X110942730Y-87906151D01*
X110963310Y-87891199D01*
X111095870Y-87794889D01*
X111101598Y-87788528D01*
X111222533Y-87654216D01*
X111317179Y-87490284D01*
X111375674Y-87310256D01*
X111393321Y-87142345D01*
X111419905Y-87077732D01*
X111428952Y-87067636D01*
X114776771Y-83719819D01*
X114838095Y-83686334D01*
X114864453Y-83683500D01*
X115628253Y-83683500D01*
X115695292Y-83703185D01*
X115720400Y-83724526D01*
X115726129Y-83730888D01*
X115879270Y-83842151D01*
X115879271Y-83842151D01*
X115879272Y-83842152D01*
X116052197Y-83919144D01*
X116237352Y-83958500D01*
X116237354Y-83958500D01*
X116426648Y-83958500D01*
X116606905Y-83920185D01*
X116611803Y-83919144D01*
X116784730Y-83842151D01*
X116789820Y-83838453D01*
X116937870Y-83730889D01*
X116943598Y-83724528D01*
X117064533Y-83590216D01*
X117159179Y-83426284D01*
X117217674Y-83246256D01*
X117237460Y-83058000D01*
X117237460Y-83057999D01*
X125840540Y-83057999D01*
X125860326Y-83246257D01*
X125918820Y-83426284D01*
X126013466Y-83590216D01*
X126140129Y-83730889D01*
X126293269Y-83842151D01*
X126466197Y-83919144D01*
X126651352Y-83958500D01*
X126651354Y-83958500D01*
X126840648Y-83958500D01*
X127025800Y-83919145D01*
X127025801Y-83919144D01*
X127025803Y-83919144D01*
X127042244Y-83911824D01*
X127043601Y-83911220D01*
X127094036Y-83900500D01*
X136318981Y-83900500D01*
X140368548Y-83900500D01*
X140435587Y-83920185D01*
X140456229Y-83936819D01*
X141301038Y-84781629D01*
X141334523Y-84842952D01*
X141336678Y-84856348D01*
X141354326Y-85024257D01*
X141412820Y-85204284D01*
X141507466Y-85368216D01*
X141525305Y-85388028D01*
X141555535Y-85451020D01*
X141546909Y-85520355D01*
X141525305Y-85553972D01*
X141507466Y-85573783D01*
X141412820Y-85737715D01*
X141354326Y-85917742D01*
X141334540Y-86105999D01*
X141354326Y-86294257D01*
X141412820Y-86474284D01*
X141507464Y-86638213D01*
X141582650Y-86721714D01*
X141612880Y-86784706D01*
X141614500Y-86804687D01*
X141614500Y-87065547D01*
X141594815Y-87132586D01*
X141578181Y-87153228D01*
X140260228Y-88471181D01*
X140198905Y-88504666D01*
X140172547Y-88507500D01*
X140113352Y-88507500D01*
X139928197Y-88546855D01*
X139755269Y-88623848D01*
X139602129Y-88735110D01*
X139475466Y-88875783D01*
X139380820Y-89039715D01*
X139322326Y-89219742D01*
X139302540Y-89408000D01*
X139322326Y-89596257D01*
X139380820Y-89776284D01*
X139475466Y-89940216D01*
X139602129Y-90080889D01*
X139755269Y-90192151D01*
X139928197Y-90269144D01*
X140113352Y-90308500D01*
X140113354Y-90308500D01*
X140302648Y-90308500D01*
X140426083Y-90282262D01*
X140487803Y-90269144D01*
X140660730Y-90192151D01*
X140743912Y-90131716D01*
X140813870Y-90080889D01*
X140940533Y-89940216D01*
X141035179Y-89776284D01*
X141053704Y-89719271D01*
X141093674Y-89596256D01*
X141111321Y-89428344D01*
X141137904Y-89363734D01*
X141146951Y-89353638D01*
X142623789Y-87876800D01*
X142639885Y-87863906D01*
X142641873Y-87861787D01*
X142641877Y-87861786D01*
X142687949Y-87812723D01*
X142690534Y-87810055D01*
X142710120Y-87790471D01*
X142712585Y-87787292D01*
X142720167Y-87778416D01*
X142730714Y-87767185D01*
X142750062Y-87746582D01*
X142759712Y-87729027D01*
X142770400Y-87712757D01*
X142782673Y-87696936D01*
X142800026Y-87656832D01*
X142805157Y-87646362D01*
X142807714Y-87641711D01*
X142826197Y-87608092D01*
X142831175Y-87588699D01*
X142837481Y-87570282D01*
X142839018Y-87566728D01*
X142845438Y-87551896D01*
X142852272Y-87508745D01*
X142854635Y-87497331D01*
X142865500Y-87455019D01*
X142865500Y-87434982D01*
X142867027Y-87415584D01*
X142870160Y-87395804D01*
X142866050Y-87352324D01*
X142865500Y-87340655D01*
X142865500Y-86804687D01*
X142885185Y-86737648D01*
X142897350Y-86721714D01*
X142910516Y-86707092D01*
X142972533Y-86638216D01*
X143034135Y-86531519D01*
X143067179Y-86474284D01*
X143078431Y-86439655D01*
X143125674Y-86294256D01*
X143145460Y-86106000D01*
X143125674Y-85917744D01*
X143067179Y-85737716D01*
X143067179Y-85737715D01*
X142972535Y-85573787D01*
X142972534Y-85573786D01*
X142972533Y-85573784D01*
X142954694Y-85553972D01*
X142924465Y-85490982D01*
X142933089Y-85421647D01*
X142954694Y-85388028D01*
X142972533Y-85368216D01*
X143067179Y-85204284D01*
X143125674Y-85024256D01*
X143145460Y-84836000D01*
X143125674Y-84647744D01*
X143067179Y-84467716D01*
X143067179Y-84467715D01*
X142972533Y-84303783D01*
X142845872Y-84163112D01*
X142793164Y-84124818D01*
X142750499Y-84069488D01*
X142744520Y-83999875D01*
X142777126Y-83938080D01*
X142837965Y-83903722D01*
X142866050Y-83900500D01*
X144978951Y-83900500D01*
X144999457Y-83902764D01*
X145002360Y-83902672D01*
X145002362Y-83902673D01*
X145069567Y-83900561D01*
X145073463Y-83900500D01*
X145097143Y-83900500D01*
X145101045Y-83900500D01*
X145105008Y-83899999D01*
X145116657Y-83899080D01*
X145160322Y-83897709D01*
X145179554Y-83892120D01*
X145198613Y-83888174D01*
X145204891Y-83887381D01*
X145218487Y-83885664D01*
X145259102Y-83869582D01*
X145270139Y-83865803D01*
X145312085Y-83853618D01*
X145329324Y-83843422D01*
X145346797Y-83834862D01*
X145347348Y-83834644D01*
X145365427Y-83827486D01*
X145400759Y-83801814D01*
X145410525Y-83795400D01*
X145412317Y-83794340D01*
X145448115Y-83773170D01*
X145462280Y-83759004D01*
X145477068Y-83746373D01*
X145493282Y-83734594D01*
X145521133Y-83700926D01*
X145528974Y-83692309D01*
X146375375Y-82845909D01*
X146436694Y-82812427D01*
X146506386Y-82817411D01*
X146513490Y-82820315D01*
X146532197Y-82828644D01*
X146717352Y-82868000D01*
X146717354Y-82868000D01*
X146906648Y-82868000D01*
X147057967Y-82835836D01*
X147091803Y-82828644D01*
X147264730Y-82751651D01*
X147417871Y-82640388D01*
X147423598Y-82634027D01*
X147483084Y-82597379D01*
X147515747Y-82593000D01*
X147951048Y-82593000D01*
X148018087Y-82612685D01*
X148038729Y-82629319D01*
X148597197Y-83187787D01*
X148610098Y-83203889D01*
X148612212Y-83205874D01*
X148612214Y-83205877D01*
X148655213Y-83246256D01*
X148661240Y-83251916D01*
X148664036Y-83254626D01*
X148683530Y-83274120D01*
X148686615Y-83276513D01*
X148686701Y-83276580D01*
X148695573Y-83284158D01*
X148727418Y-83314062D01*
X148744974Y-83323714D01*
X148761231Y-83334392D01*
X148777064Y-83346674D01*
X148793185Y-83353649D01*
X148817156Y-83364023D01*
X148827643Y-83369160D01*
X148865908Y-83390197D01*
X148885316Y-83395180D01*
X148903710Y-83401478D01*
X148922105Y-83409438D01*
X148965254Y-83416271D01*
X148976680Y-83418638D01*
X148992222Y-83422629D01*
X149018980Y-83429500D01*
X149018981Y-83429500D01*
X149039016Y-83429500D01*
X149058413Y-83431026D01*
X149078196Y-83434160D01*
X149121674Y-83430050D01*
X149133344Y-83429500D01*
X152063256Y-83429500D01*
X152083762Y-83431764D01*
X152086665Y-83431672D01*
X152086667Y-83431673D01*
X152153872Y-83429561D01*
X152157768Y-83429500D01*
X152181448Y-83429500D01*
X152185350Y-83429500D01*
X152189313Y-83428999D01*
X152200962Y-83428080D01*
X152244627Y-83426709D01*
X152263859Y-83421120D01*
X152282918Y-83417174D01*
X152290091Y-83416268D01*
X152302792Y-83414664D01*
X152343407Y-83398582D01*
X152354444Y-83394803D01*
X152396390Y-83382618D01*
X152413629Y-83372422D01*
X152431102Y-83363862D01*
X152449732Y-83356486D01*
X152485064Y-83330814D01*
X152494830Y-83324400D01*
X152515798Y-83312000D01*
X152532420Y-83302170D01*
X152546585Y-83288004D01*
X152561373Y-83275373D01*
X152577587Y-83263594D01*
X152605438Y-83229926D01*
X152613279Y-83221309D01*
X153892771Y-81941819D01*
X153954095Y-81908334D01*
X153980453Y-81905500D01*
X154249253Y-81905500D01*
X154316292Y-81925185D01*
X154341400Y-81946526D01*
X154347129Y-81952888D01*
X154500270Y-82064151D01*
X154500271Y-82064151D01*
X154500272Y-82064152D01*
X154673197Y-82141144D01*
X154858352Y-82180500D01*
X154858354Y-82180500D01*
X155047648Y-82180500D01*
X155171084Y-82154262D01*
X155232803Y-82141144D01*
X155405730Y-82064151D01*
X155558871Y-81952888D01*
X155564598Y-81946527D01*
X155624084Y-81909879D01*
X155656747Y-81905500D01*
X156014253Y-81905500D01*
X156081292Y-81925185D01*
X156106400Y-81946526D01*
X156112129Y-81952888D01*
X156265270Y-82064151D01*
X156265271Y-82064151D01*
X156265272Y-82064152D01*
X156438197Y-82141144D01*
X156623352Y-82180500D01*
X156623354Y-82180500D01*
X156812648Y-82180500D01*
X156936083Y-82154262D01*
X156997803Y-82141144D01*
X157170730Y-82064151D01*
X157228877Y-82021905D01*
X157323870Y-81952889D01*
X157329598Y-81946528D01*
X157450533Y-81812216D01*
X157545179Y-81648284D01*
X157603674Y-81468256D01*
X157623460Y-81280000D01*
X157603674Y-81091744D01*
X157555427Y-80943256D01*
X157545179Y-80911715D01*
X157450533Y-80747783D01*
X157323870Y-80607110D01*
X157170730Y-80495848D01*
X156997802Y-80418855D01*
X156812648Y-80379500D01*
X156812646Y-80379500D01*
X156623354Y-80379500D01*
X156623352Y-80379500D01*
X156438197Y-80418855D01*
X156265272Y-80495847D01*
X156207331Y-80537944D01*
X156112129Y-80607112D01*
X156106401Y-80613472D01*
X156046916Y-80650121D01*
X156014253Y-80654500D01*
X155656747Y-80654500D01*
X155589708Y-80634815D01*
X155564599Y-80613473D01*
X155558871Y-80607112D01*
X155405730Y-80495849D01*
X155405729Y-80495848D01*
X155405727Y-80495847D01*
X155232802Y-80418855D01*
X155047648Y-80379500D01*
X155047646Y-80379500D01*
X154858354Y-80379500D01*
X154858352Y-80379500D01*
X154673197Y-80418855D01*
X154500272Y-80495847D01*
X154442331Y-80537944D01*
X154347129Y-80607112D01*
X154341401Y-80613472D01*
X154281916Y-80650121D01*
X154249253Y-80654500D01*
X153752740Y-80654500D01*
X153732236Y-80652236D01*
X153662144Y-80654439D01*
X153658250Y-80654500D01*
X153630650Y-80654500D01*
X153626789Y-80654987D01*
X153626778Y-80654988D01*
X153626645Y-80655005D01*
X153615029Y-80655918D01*
X153571368Y-80657290D01*
X153552129Y-80662880D01*
X153533080Y-80666825D01*
X153513208Y-80669335D01*
X153472593Y-80685415D01*
X153461549Y-80689196D01*
X153419611Y-80701382D01*
X153402364Y-80711581D01*
X153384900Y-80720136D01*
X153366267Y-80727514D01*
X153330926Y-80753189D01*
X153321168Y-80759599D01*
X153283579Y-80781829D01*
X153269410Y-80795998D01*
X153254622Y-80808628D01*
X153238413Y-80820405D01*
X153210572Y-80854058D01*
X153202711Y-80862696D01*
X151923228Y-82142181D01*
X151861905Y-82175666D01*
X151835547Y-82178500D01*
X149408452Y-82178500D01*
X149341413Y-82158815D01*
X149320771Y-82142181D01*
X149049352Y-81870762D01*
X148762302Y-81583711D01*
X148749406Y-81567613D01*
X148698275Y-81519598D01*
X148695478Y-81516887D01*
X148678727Y-81500136D01*
X148675971Y-81497380D01*
X148672790Y-81494912D01*
X148663922Y-81487337D01*
X148632082Y-81457438D01*
X148614524Y-81447785D01*
X148598264Y-81437104D01*
X148582436Y-81424827D01*
X148542351Y-81407480D01*
X148531861Y-81402341D01*
X148493591Y-81381302D01*
X148474191Y-81376321D01*
X148455784Y-81370019D01*
X148437397Y-81362062D01*
X148394258Y-81355229D01*
X148382824Y-81352861D01*
X148340519Y-81342000D01*
X148320484Y-81342000D01*
X148301086Y-81340473D01*
X148293662Y-81339297D01*
X148281305Y-81337340D01*
X148281304Y-81337340D01*
X148248251Y-81340464D01*
X148237825Y-81341450D01*
X148226156Y-81342000D01*
X147515747Y-81342000D01*
X147448708Y-81322315D01*
X147423599Y-81300973D01*
X147417871Y-81294612D01*
X147264730Y-81183349D01*
X147264729Y-81183348D01*
X147264727Y-81183347D01*
X147091802Y-81106355D01*
X146906648Y-81067000D01*
X146906646Y-81067000D01*
X146717354Y-81067000D01*
X146717352Y-81067000D01*
X146532197Y-81106355D01*
X146359269Y-81183348D01*
X146206129Y-81294611D01*
X146136724Y-81371692D01*
X146107703Y-81395447D01*
X146101571Y-81399074D01*
X146084092Y-81407638D01*
X146065461Y-81415014D01*
X146030133Y-81440681D01*
X146020375Y-81447091D01*
X145982774Y-81469329D01*
X145968605Y-81483498D01*
X145953817Y-81496128D01*
X145937608Y-81507905D01*
X145909767Y-81541558D01*
X145901906Y-81550196D01*
X144838923Y-82613181D01*
X144777600Y-82646666D01*
X144751242Y-82649500D01*
X140737984Y-82649500D01*
X140718586Y-82647973D01*
X140710333Y-82646666D01*
X140698805Y-82644840D01*
X140698804Y-82644840D01*
X140665751Y-82647964D01*
X140655325Y-82648950D01*
X140643656Y-82649500D01*
X127621552Y-82649500D01*
X127554513Y-82629815D01*
X127514165Y-82587500D01*
X127478533Y-82525783D01*
X127351870Y-82385110D01*
X127198730Y-82273848D01*
X127025802Y-82196855D01*
X126840648Y-82157500D01*
X126840646Y-82157500D01*
X126651354Y-82157500D01*
X126651352Y-82157500D01*
X126466197Y-82196855D01*
X126293269Y-82273848D01*
X126140129Y-82385110D01*
X126013466Y-82525783D01*
X125918820Y-82689715D01*
X125860326Y-82869742D01*
X125840540Y-83057999D01*
X117237460Y-83057999D01*
X117217674Y-82869744D01*
X117179303Y-82751651D01*
X117159179Y-82689715D01*
X117064533Y-82525783D01*
X116937870Y-82385110D01*
X116784730Y-82273848D01*
X116611802Y-82196855D01*
X116426648Y-82157500D01*
X116426646Y-82157500D01*
X116237354Y-82157500D01*
X116237352Y-82157500D01*
X116052197Y-82196855D01*
X115879272Y-82273847D01*
X115804423Y-82328228D01*
X115726129Y-82385112D01*
X115720401Y-82391472D01*
X115660916Y-82428121D01*
X115628253Y-82432500D01*
X114636744Y-82432500D01*
X114616237Y-82430235D01*
X114546127Y-82432439D01*
X114542232Y-82432500D01*
X114514650Y-82432500D01*
X114510805Y-82432985D01*
X114510780Y-82432987D01*
X114510653Y-82433004D01*
X114499033Y-82433918D01*
X114455369Y-82435290D01*
X114436129Y-82440880D01*
X114417081Y-82444825D01*
X114397209Y-82447335D01*
X114356599Y-82463413D01*
X114345554Y-82467194D01*
X114303610Y-82479381D01*
X114286365Y-82489579D01*
X114268904Y-82498133D01*
X114250267Y-82505512D01*
X114214931Y-82531185D01*
X114205174Y-82537595D01*
X114167580Y-82559829D01*
X114153413Y-82573996D01*
X114138624Y-82586626D01*
X114122413Y-82598404D01*
X114094572Y-82632058D01*
X114086711Y-82640697D01*
X110542228Y-86185181D01*
X110480905Y-86218666D01*
X110454547Y-86221500D01*
X110395352Y-86221500D01*
X110210197Y-86260855D01*
X110037269Y-86337848D01*
X110001996Y-86363476D01*
X109936190Y-86386956D01*
X109868136Y-86371131D01*
X109841430Y-86350839D01*
X109119819Y-85629228D01*
X109086334Y-85567905D01*
X109083500Y-85541547D01*
X109083500Y-85368212D01*
X109083500Y-85160834D01*
X109085695Y-85137614D01*
X109087227Y-85129588D01*
X109086381Y-85116147D01*
X109083745Y-85074240D01*
X109083500Y-85066454D01*
X109083500Y-85054543D01*
X109083500Y-85050650D01*
X109081516Y-85034951D01*
X109080789Y-85027266D01*
X109077304Y-84971862D01*
X109074777Y-84964086D01*
X109069688Y-84941317D01*
X109068664Y-84933208D01*
X109048233Y-84881606D01*
X109045608Y-84874315D01*
X109028467Y-84821559D01*
X109024087Y-84814657D01*
X109013495Y-84793869D01*
X109010486Y-84786268D01*
X108977870Y-84741377D01*
X108973503Y-84734949D01*
X108943786Y-84688123D01*
X108937833Y-84682533D01*
X108922396Y-84665023D01*
X108918890Y-84660197D01*
X108917594Y-84658413D01*
X108904697Y-84647744D01*
X108874861Y-84623061D01*
X108869018Y-84617910D01*
X108828581Y-84579937D01*
X108821417Y-84575999D01*
X108802116Y-84562882D01*
X108795823Y-84557676D01*
X108795822Y-84557675D01*
X108786201Y-84553148D01*
X108751320Y-84528632D01*
X105713900Y-81491211D01*
X105701004Y-81475113D01*
X105649873Y-81427098D01*
X105647076Y-81424387D01*
X105630325Y-81407636D01*
X105627569Y-81404880D01*
X105624388Y-81402412D01*
X105615520Y-81394837D01*
X105583680Y-81364938D01*
X105566122Y-81355285D01*
X105549862Y-81344604D01*
X105534034Y-81332327D01*
X105493949Y-81314980D01*
X105483459Y-81309841D01*
X105445189Y-81288802D01*
X105425789Y-81283821D01*
X105407382Y-81277519D01*
X105388995Y-81269562D01*
X105345856Y-81262729D01*
X105334422Y-81260361D01*
X105292117Y-81249500D01*
X105272082Y-81249500D01*
X105252684Y-81247973D01*
X105245260Y-81246797D01*
X105232903Y-81244840D01*
X105232902Y-81244840D01*
X105207566Y-81247235D01*
X105189423Y-81248950D01*
X105177754Y-81249500D01*
X100653606Y-81249500D01*
X100586567Y-81229815D01*
X100540812Y-81177011D01*
X100530868Y-81107853D01*
X100551196Y-81063338D01*
X100548017Y-81061503D01*
X100649179Y-80886284D01*
X100657358Y-80861112D01*
X100707674Y-80706256D01*
X100727460Y-80518000D01*
X100707674Y-80329744D01*
X100649179Y-80149716D01*
X100649179Y-80149715D01*
X100554535Y-79985786D01*
X100538108Y-79967542D01*
X100427871Y-79845112D01*
X100427867Y-79845109D01*
X100422342Y-79838973D01*
X100392112Y-79775981D01*
X100400737Y-79706646D01*
X100422342Y-79673027D01*
X100427867Y-79666890D01*
X100427871Y-79666888D01*
X100554533Y-79526216D01*
X100649179Y-79362284D01*
X100707674Y-79182256D01*
X100727460Y-78994000D01*
X100707674Y-78805744D01*
X100649179Y-78625716D01*
X100649179Y-78625715D01*
X100554533Y-78461783D01*
X100427870Y-78321110D01*
X100274730Y-78209848D01*
X100101802Y-78132855D01*
X99916648Y-78093500D01*
X99916646Y-78093500D01*
X99857452Y-78093500D01*
X99790413Y-78073815D01*
X99769771Y-78057181D01*
X97150591Y-75438000D01*
X108314540Y-75438000D01*
X108334326Y-75626257D01*
X108392820Y-75806284D01*
X108487464Y-75970213D01*
X108562650Y-76053714D01*
X108592880Y-76116706D01*
X108594500Y-76136687D01*
X108594500Y-80943256D01*
X108592235Y-80963766D01*
X108594439Y-81033872D01*
X108594500Y-81037767D01*
X108594500Y-81065350D01*
X108594988Y-81069219D01*
X108594989Y-81069225D01*
X108595004Y-81069343D01*
X108595918Y-81080967D01*
X108597290Y-81124626D01*
X108602879Y-81143860D01*
X108606825Y-81162916D01*
X108609335Y-81182792D01*
X108625414Y-81223404D01*
X108629197Y-81234451D01*
X108641382Y-81276391D01*
X108651580Y-81293635D01*
X108660136Y-81311100D01*
X108667514Y-81329732D01*
X108675318Y-81340473D01*
X108693180Y-81365059D01*
X108699593Y-81374822D01*
X108721826Y-81412416D01*
X108721829Y-81412419D01*
X108721830Y-81412420D01*
X108735995Y-81426585D01*
X108748627Y-81441375D01*
X108760406Y-81457587D01*
X108780669Y-81474350D01*
X108819777Y-81532250D01*
X108824950Y-81556932D01*
X108842326Y-81722257D01*
X108900820Y-81902284D01*
X108995466Y-82066216D01*
X109122129Y-82206889D01*
X109275269Y-82318151D01*
X109448197Y-82395144D01*
X109633352Y-82434500D01*
X109633354Y-82434500D01*
X109822648Y-82434500D01*
X109952438Y-82406912D01*
X110007803Y-82395144D01*
X110180730Y-82318151D01*
X110241708Y-82273848D01*
X110333870Y-82206889D01*
X110460533Y-82066216D01*
X110555179Y-81902284D01*
X110586998Y-81804356D01*
X110613674Y-81722256D01*
X110620679Y-81655599D01*
X110647263Y-81590986D01*
X110704561Y-81551001D01*
X110774380Y-81548341D01*
X110834553Y-81583850D01*
X110865977Y-81646255D01*
X110867318Y-81655586D01*
X110873027Y-81709895D01*
X110874326Y-81722257D01*
X110932820Y-81902284D01*
X111027466Y-82066216D01*
X111154129Y-82206889D01*
X111307269Y-82318151D01*
X111480197Y-82395144D01*
X111665352Y-82434500D01*
X111665354Y-82434500D01*
X111854648Y-82434500D01*
X111984438Y-82406912D01*
X112039803Y-82395144D01*
X112212730Y-82318151D01*
X112273708Y-82273848D01*
X112365870Y-82206889D01*
X112492533Y-82066216D01*
X112587179Y-81902284D01*
X112618998Y-81804356D01*
X112645674Y-81722256D01*
X112665460Y-81534000D01*
X112645674Y-81345744D01*
X112612888Y-81244840D01*
X112587179Y-81165715D01*
X112492535Y-81001786D01*
X112458301Y-80963766D01*
X112417347Y-80918282D01*
X112387119Y-80855293D01*
X112385499Y-80835324D01*
X112385499Y-70948743D01*
X112387763Y-70928245D01*
X112387671Y-70925333D01*
X112387672Y-70925332D01*
X112385561Y-70858143D01*
X112385500Y-70854249D01*
X112385500Y-70830544D01*
X112385500Y-70826650D01*
X112384998Y-70822681D01*
X112384080Y-70811024D01*
X112382709Y-70767372D01*
X112377119Y-70748134D01*
X112373174Y-70729082D01*
X112370664Y-70709208D01*
X112358206Y-70677744D01*
X112354578Y-70668581D01*
X112350805Y-70657560D01*
X112338617Y-70615610D01*
X112328421Y-70598369D01*
X112319863Y-70580902D01*
X112312486Y-70562268D01*
X112286798Y-70526912D01*
X112280409Y-70517184D01*
X112258170Y-70479579D01*
X112244006Y-70465415D01*
X112231369Y-70450620D01*
X112219595Y-70434414D01*
X112219594Y-70434413D01*
X112185935Y-70406568D01*
X112177305Y-70398714D01*
X111372878Y-69594287D01*
X117342500Y-69594287D01*
X117342747Y-69597036D01*
X117342748Y-69597048D01*
X117357925Y-69765674D01*
X117419004Y-69986989D01*
X117518619Y-70193845D01*
X117571495Y-70266621D01*
X117653575Y-70379593D01*
X117710912Y-70434413D01*
X117819523Y-70538257D01*
X117915330Y-70601498D01*
X118011137Y-70664740D01*
X118112841Y-70708210D01*
X118222253Y-70754975D01*
X118222254Y-70754975D01*
X118222256Y-70754976D01*
X118446093Y-70806066D01*
X118657299Y-70815550D01*
X118675454Y-70816366D01*
X118675454Y-70816365D01*
X118675456Y-70816366D01*
X118902973Y-70785547D01*
X119121330Y-70714599D01*
X119323510Y-70605801D01*
X119503014Y-70462652D01*
X119654072Y-70289751D01*
X119771831Y-70092656D01*
X119852505Y-69877702D01*
X119893500Y-69651797D01*
X119893500Y-69594287D01*
X133090500Y-69594287D01*
X133090747Y-69597036D01*
X133090748Y-69597048D01*
X133105925Y-69765674D01*
X133167004Y-69986989D01*
X133266619Y-70193845D01*
X133319495Y-70266621D01*
X133401575Y-70379593D01*
X133458912Y-70434413D01*
X133567523Y-70538257D01*
X133663330Y-70601498D01*
X133759137Y-70664740D01*
X133860841Y-70708210D01*
X133970253Y-70754975D01*
X133970254Y-70754975D01*
X133970256Y-70754976D01*
X134194093Y-70806066D01*
X134405299Y-70815550D01*
X134423454Y-70816366D01*
X134423454Y-70816365D01*
X134423456Y-70816366D01*
X134650973Y-70785547D01*
X134869330Y-70714599D01*
X135071510Y-70605801D01*
X135251014Y-70462652D01*
X135402072Y-70289751D01*
X135519831Y-70092656D01*
X135600505Y-69877702D01*
X135617463Y-69784257D01*
X135641500Y-69651799D01*
X135641500Y-69594287D01*
X148838500Y-69594287D01*
X148838747Y-69597036D01*
X148838748Y-69597048D01*
X148853925Y-69765674D01*
X148915004Y-69986989D01*
X149014619Y-70193845D01*
X149067495Y-70266621D01*
X149149575Y-70379593D01*
X149206912Y-70434413D01*
X149315523Y-70538257D01*
X149411330Y-70601498D01*
X149507137Y-70664740D01*
X149608841Y-70708210D01*
X149718253Y-70754975D01*
X149718254Y-70754975D01*
X149718256Y-70754976D01*
X149942093Y-70806066D01*
X150153299Y-70815550D01*
X150171454Y-70816366D01*
X150171454Y-70816365D01*
X150171456Y-70816366D01*
X150398973Y-70785547D01*
X150617330Y-70714599D01*
X150819510Y-70605801D01*
X150999014Y-70462652D01*
X151150072Y-70289751D01*
X151267831Y-70092656D01*
X151348505Y-69877702D01*
X151365463Y-69784257D01*
X151389500Y-69651799D01*
X151389500Y-69594287D01*
X164586500Y-69594287D01*
X164586747Y-69597036D01*
X164586748Y-69597048D01*
X164601925Y-69765674D01*
X164663004Y-69986989D01*
X164762619Y-70193845D01*
X164815495Y-70266621D01*
X164897575Y-70379593D01*
X164954912Y-70434413D01*
X165063523Y-70538257D01*
X165159330Y-70601498D01*
X165255137Y-70664740D01*
X165356841Y-70708210D01*
X165466253Y-70754975D01*
X165466254Y-70754975D01*
X165466256Y-70754976D01*
X165690093Y-70806066D01*
X165901299Y-70815550D01*
X165919454Y-70816366D01*
X165919454Y-70816365D01*
X165919456Y-70816366D01*
X166146973Y-70785547D01*
X166365330Y-70714599D01*
X166567510Y-70605801D01*
X166747014Y-70462652D01*
X166898072Y-70289751D01*
X167015831Y-70092656D01*
X167096505Y-69877702D01*
X167113463Y-69784257D01*
X167137500Y-69651799D01*
X167137500Y-67932489D01*
X167137500Y-67929713D01*
X167122075Y-67758330D01*
X167093036Y-67653110D01*
X167060995Y-67537010D01*
X166961380Y-67330154D01*
X166926128Y-67281636D01*
X166826425Y-67144407D01*
X166739550Y-67061346D01*
X166660476Y-66985742D01*
X166468861Y-66859259D01*
X166257746Y-66769024D01*
X166123805Y-66738453D01*
X166033907Y-66717934D01*
X166015750Y-66717118D01*
X165804545Y-66707633D01*
X165577025Y-66738453D01*
X165358671Y-66809400D01*
X165156486Y-66918201D01*
X164976987Y-67061346D01*
X164825930Y-67234245D01*
X164708167Y-67431346D01*
X164627493Y-67646300D01*
X164586500Y-67872200D01*
X164586500Y-67872202D01*
X164586500Y-67872203D01*
X164586500Y-69594287D01*
X151389500Y-69594287D01*
X151389500Y-67932489D01*
X151389500Y-67929713D01*
X151374075Y-67758330D01*
X151345036Y-67653110D01*
X151312995Y-67537010D01*
X151213380Y-67330154D01*
X151178128Y-67281636D01*
X151078425Y-67144407D01*
X150991550Y-67061346D01*
X150912476Y-66985742D01*
X150720861Y-66859259D01*
X150509746Y-66769024D01*
X150375805Y-66738453D01*
X150285907Y-66717934D01*
X150267750Y-66717118D01*
X150056545Y-66707633D01*
X149829025Y-66738453D01*
X149610671Y-66809400D01*
X149408486Y-66918201D01*
X149228987Y-67061346D01*
X149077930Y-67234245D01*
X148960167Y-67431346D01*
X148879493Y-67646300D01*
X148838500Y-67872200D01*
X148838500Y-67872202D01*
X148838500Y-67872203D01*
X148838500Y-69594287D01*
X135641500Y-69594287D01*
X135641500Y-67932489D01*
X135641500Y-67929713D01*
X135626075Y-67758330D01*
X135597036Y-67653110D01*
X135564995Y-67537010D01*
X135465380Y-67330154D01*
X135430128Y-67281636D01*
X135330425Y-67144407D01*
X135243550Y-67061346D01*
X135164476Y-66985742D01*
X134972861Y-66859259D01*
X134761746Y-66769024D01*
X134627805Y-66738453D01*
X134537907Y-66717934D01*
X134519750Y-66717118D01*
X134308545Y-66707633D01*
X134081025Y-66738453D01*
X133862671Y-66809400D01*
X133660486Y-66918201D01*
X133480987Y-67061346D01*
X133329930Y-67234245D01*
X133212167Y-67431346D01*
X133131493Y-67646300D01*
X133090500Y-67872200D01*
X133090500Y-67872203D01*
X133090500Y-69594287D01*
X119893500Y-69594287D01*
X119893500Y-67929713D01*
X119878075Y-67758330D01*
X119849036Y-67653110D01*
X119816995Y-67537010D01*
X119717380Y-67330154D01*
X119682128Y-67281636D01*
X119582425Y-67144407D01*
X119495550Y-67061346D01*
X119416476Y-66985742D01*
X119224861Y-66859259D01*
X119013746Y-66769024D01*
X118879805Y-66738453D01*
X118789907Y-66717934D01*
X118771750Y-66717118D01*
X118560545Y-66707633D01*
X118333025Y-66738453D01*
X118114671Y-66809400D01*
X117912486Y-66918201D01*
X117732987Y-67061346D01*
X117581930Y-67234245D01*
X117464167Y-67431346D01*
X117383493Y-67646300D01*
X117342500Y-67872200D01*
X117342500Y-67872203D01*
X117342500Y-69594287D01*
X111372878Y-69594287D01*
X110158960Y-68380369D01*
X110125475Y-68319046D01*
X110123323Y-68305668D01*
X110105674Y-68137744D01*
X110047179Y-67957716D01*
X110047179Y-67957715D01*
X109952533Y-67793783D01*
X109825870Y-67653110D01*
X109672730Y-67541848D01*
X109499802Y-67464855D01*
X109314648Y-67425500D01*
X109314646Y-67425500D01*
X109125354Y-67425500D01*
X109125352Y-67425500D01*
X108940197Y-67464855D01*
X108767269Y-67541848D01*
X108614129Y-67653110D01*
X108487466Y-67793783D01*
X108392820Y-67957715D01*
X108334326Y-68137742D01*
X108314540Y-68326000D01*
X108334326Y-68514257D01*
X108392820Y-68694284D01*
X108487466Y-68858216D01*
X108614129Y-68998889D01*
X108767269Y-69110151D01*
X108940197Y-69187144D01*
X109125352Y-69226500D01*
X109125354Y-69226500D01*
X109184548Y-69226500D01*
X109251587Y-69246185D01*
X109272228Y-69262818D01*
X111098181Y-71088772D01*
X111131665Y-71150093D01*
X111134499Y-71176451D01*
X111134499Y-80835312D01*
X111114814Y-80902351D01*
X111102650Y-80918284D01*
X111027464Y-81001786D01*
X110932820Y-81165715D01*
X110874326Y-81345742D01*
X110874325Y-81345744D01*
X110874326Y-81345744D01*
X110867320Y-81412400D01*
X110840736Y-81477013D01*
X110783439Y-81516998D01*
X110713620Y-81519658D01*
X110653446Y-81484149D01*
X110622023Y-81421744D01*
X110620681Y-81412413D01*
X110613674Y-81345744D01*
X110580888Y-81244840D01*
X110555179Y-81165715D01*
X110460533Y-81001783D01*
X110333870Y-80861110D01*
X110180732Y-80749849D01*
X110082822Y-80706257D01*
X110007803Y-80672856D01*
X109959765Y-80662645D01*
X109943718Y-80659234D01*
X109882236Y-80626041D01*
X109848460Y-80564878D01*
X109845500Y-80537944D01*
X109845500Y-76136687D01*
X109865185Y-76069648D01*
X109877350Y-76053714D01*
X109911599Y-76015677D01*
X109952533Y-75970216D01*
X110047179Y-75806284D01*
X110105674Y-75626256D01*
X110125460Y-75438000D01*
X110105674Y-75249744D01*
X110069747Y-75139172D01*
X110047179Y-75069715D01*
X109952533Y-74905783D01*
X109825870Y-74765110D01*
X109672730Y-74653848D01*
X109499802Y-74576855D01*
X109314648Y-74537500D01*
X109314646Y-74537500D01*
X109125354Y-74537500D01*
X109125352Y-74537500D01*
X108940197Y-74576855D01*
X108767269Y-74653848D01*
X108614129Y-74765110D01*
X108487466Y-74905783D01*
X108392820Y-75069715D01*
X108334326Y-75249742D01*
X108314540Y-75438000D01*
X97150591Y-75438000D01*
X95118591Y-73406000D01*
X101980644Y-73406000D01*
X102000039Y-73677161D01*
X102057823Y-73942796D01*
X102057825Y-73942801D01*
X102152828Y-74197513D01*
X102152830Y-74197517D01*
X102152831Y-74197519D01*
X102283109Y-74436108D01*
X102283113Y-74436113D01*
X102446029Y-74653742D01*
X102638258Y-74845971D01*
X102806158Y-74971660D01*
X102855891Y-75008890D01*
X102967287Y-75069716D01*
X103094487Y-75139172D01*
X103349199Y-75234175D01*
X103349202Y-75234175D01*
X103349203Y-75234176D01*
X103398852Y-75244976D01*
X103614840Y-75291961D01*
X103865110Y-75309860D01*
X103885999Y-75311355D01*
X103885999Y-75311354D01*
X103886000Y-75311355D01*
X104157160Y-75291961D01*
X104422801Y-75234175D01*
X104677513Y-75139172D01*
X104851319Y-75044266D01*
X104916108Y-75008890D01*
X104916109Y-75008889D01*
X104916113Y-75008887D01*
X105133742Y-74845971D01*
X105325971Y-74653742D01*
X105488887Y-74436113D01*
X105619172Y-74197513D01*
X105714175Y-73942801D01*
X105771961Y-73677160D01*
X105791355Y-73406000D01*
X105771961Y-73134840D01*
X105714175Y-72869199D01*
X105619172Y-72614487D01*
X105576275Y-72535927D01*
X105488890Y-72375891D01*
X105384821Y-72236872D01*
X105325971Y-72158258D01*
X105133742Y-71966029D01*
X104916113Y-71803113D01*
X104916114Y-71803113D01*
X104916108Y-71803109D01*
X104677519Y-71672831D01*
X104677517Y-71672830D01*
X104677513Y-71672828D01*
X104422801Y-71577825D01*
X104422796Y-71577823D01*
X104157161Y-71520039D01*
X103886000Y-71500644D01*
X103614838Y-71520039D01*
X103349203Y-71577823D01*
X103204956Y-71631624D01*
X103094487Y-71672828D01*
X103094484Y-71672829D01*
X103094480Y-71672831D01*
X102855891Y-71803109D01*
X102638255Y-71966031D01*
X102446031Y-72158255D01*
X102283109Y-72375891D01*
X102152831Y-72614480D01*
X102152829Y-72614484D01*
X102152828Y-72614487D01*
X102122673Y-72695335D01*
X102057823Y-72869203D01*
X102000039Y-73134838D01*
X101980644Y-73406000D01*
X95118591Y-73406000D01*
X91362960Y-69650369D01*
X91329475Y-69589046D01*
X91327323Y-69575668D01*
X91309674Y-69407744D01*
X91251179Y-69227716D01*
X91251179Y-69227715D01*
X91156533Y-69063783D01*
X91029870Y-68923110D01*
X90876730Y-68811848D01*
X90703802Y-68734855D01*
X90518648Y-68695500D01*
X90518646Y-68695500D01*
X90329354Y-68695500D01*
X90329352Y-68695500D01*
X90144197Y-68734855D01*
X89971269Y-68811848D01*
X89818129Y-68923110D01*
X89691466Y-69063783D01*
X89596820Y-69227715D01*
X89538326Y-69407742D01*
X89518540Y-69595999D01*
X89538326Y-69784257D01*
X89596820Y-69964284D01*
X89691466Y-70128216D01*
X89709305Y-70148028D01*
X89739535Y-70211020D01*
X89730909Y-70280355D01*
X89709305Y-70313972D01*
X89691466Y-70333783D01*
X89596820Y-70497715D01*
X89538326Y-70677742D01*
X89518540Y-70866000D01*
X89538326Y-71054257D01*
X89596820Y-71234284D01*
X89691466Y-71398216D01*
X89818129Y-71538889D01*
X89971269Y-71650151D01*
X90144197Y-71727144D01*
X90329352Y-71766500D01*
X90329354Y-71766500D01*
X90388548Y-71766500D01*
X90455587Y-71786185D01*
X90476229Y-71802819D01*
X94558071Y-75884662D01*
X94591556Y-75945985D01*
X94586572Y-76015677D01*
X94544700Y-76071610D01*
X94496173Y-76093633D01*
X94462196Y-76100855D01*
X94289269Y-76177848D01*
X94136129Y-76289110D01*
X94009466Y-76429783D01*
X93914820Y-76593715D01*
X93856326Y-76773742D01*
X93836540Y-76962000D01*
X93856326Y-77150257D01*
X93914820Y-77330284D01*
X94009466Y-77494216D01*
X94027305Y-77514028D01*
X94057535Y-77577020D01*
X94048909Y-77646355D01*
X94027305Y-77679972D01*
X94009466Y-77699783D01*
X93914820Y-77863715D01*
X93856326Y-78043742D01*
X93836540Y-78231999D01*
X93856326Y-78420257D01*
X93914820Y-78600284D01*
X94009466Y-78764216D01*
X94136129Y-78904889D01*
X94289269Y-79016151D01*
X94462197Y-79093144D01*
X94647352Y-79132500D01*
X94647354Y-79132500D01*
X94836648Y-79132500D01*
X95021800Y-79093145D01*
X95021801Y-79093144D01*
X95021803Y-79093144D01*
X95085621Y-79064729D01*
X95154870Y-79055444D01*
X95218147Y-79085072D01*
X95223738Y-79090328D01*
X96851038Y-80717629D01*
X96884523Y-80778952D01*
X96886678Y-80792348D01*
X96904326Y-80960257D01*
X96945567Y-81087182D01*
X96947562Y-81157023D01*
X96911482Y-81216856D01*
X96848781Y-81247684D01*
X96827636Y-81249500D01*
X92959744Y-81249500D01*
X92939236Y-81247235D01*
X92869113Y-81249439D01*
X92865219Y-81249500D01*
X92837650Y-81249500D01*
X92833794Y-81249986D01*
X92833791Y-81249987D01*
X92833735Y-81249994D01*
X92833662Y-81250003D01*
X92822043Y-81250917D01*
X92778372Y-81252289D01*
X92759128Y-81257880D01*
X92740084Y-81261824D01*
X92720208Y-81264335D01*
X92679600Y-81280413D01*
X92668554Y-81284194D01*
X92626610Y-81296382D01*
X92626607Y-81296383D01*
X92609365Y-81306579D01*
X92591904Y-81315133D01*
X92573267Y-81322512D01*
X92537931Y-81348185D01*
X92528174Y-81354595D01*
X92490580Y-81376829D01*
X92476413Y-81390996D01*
X92461624Y-81403626D01*
X92445413Y-81415404D01*
X92417572Y-81449058D01*
X92409711Y-81457697D01*
X90730228Y-83137181D01*
X90668905Y-83170666D01*
X90642547Y-83173500D01*
X90583352Y-83173500D01*
X90398197Y-83212855D01*
X90225272Y-83289847D01*
X90177714Y-83324400D01*
X90080300Y-83395176D01*
X90072128Y-83401113D01*
X90071212Y-83402130D01*
X90066401Y-83407472D01*
X90006916Y-83444121D01*
X89974253Y-83448500D01*
X89890632Y-83448500D01*
X89823593Y-83428815D01*
X89777838Y-83376011D01*
X89767894Y-83306853D01*
X89772701Y-83286182D01*
X89775843Y-83276513D01*
X89785674Y-83246256D01*
X89805460Y-83058000D01*
X89785674Y-82869744D01*
X89747303Y-82751651D01*
X89727179Y-82689715D01*
X89632533Y-82525783D01*
X89557350Y-82442284D01*
X89527120Y-82379293D01*
X89525500Y-82359312D01*
X89525500Y-78930687D01*
X89545185Y-78863648D01*
X89557350Y-78847714D01*
X89632533Y-78764216D01*
X89727179Y-78600284D01*
X89785674Y-78420256D01*
X89805460Y-78232000D01*
X89785674Y-78043744D01*
X89727179Y-77863716D01*
X89727179Y-77863715D01*
X89632533Y-77699783D01*
X89505870Y-77559110D01*
X89352730Y-77447848D01*
X89179802Y-77370855D01*
X88994648Y-77331500D01*
X88994646Y-77331500D01*
X88805354Y-77331500D01*
X88805352Y-77331500D01*
X88620197Y-77370855D01*
X88447269Y-77447848D01*
X88294129Y-77559110D01*
X88167466Y-77699783D01*
X88072820Y-77863715D01*
X88014326Y-78043742D01*
X87994540Y-78232000D01*
X88014326Y-78420257D01*
X88072820Y-78600284D01*
X88167464Y-78764213D01*
X88242650Y-78847714D01*
X88272880Y-78910706D01*
X88274500Y-78930687D01*
X88274500Y-82359312D01*
X88254815Y-82426351D01*
X88242650Y-82442284D01*
X88167466Y-82525783D01*
X88072821Y-82689714D01*
X88028991Y-82824609D01*
X87989553Y-82882284D01*
X87925195Y-82909482D01*
X87856348Y-82897567D01*
X87826178Y-82876683D01*
X87812777Y-82864099D01*
X87809978Y-82861387D01*
X87793227Y-82844636D01*
X87790471Y-82841880D01*
X87787290Y-82839412D01*
X87778422Y-82831837D01*
X87746582Y-82801938D01*
X87729024Y-82792285D01*
X87712764Y-82781604D01*
X87696936Y-82769327D01*
X87656851Y-82751980D01*
X87646361Y-82746841D01*
X87608091Y-82725802D01*
X87588691Y-82720821D01*
X87570284Y-82714519D01*
X87551897Y-82706562D01*
X87508758Y-82699729D01*
X87497324Y-82697361D01*
X87455019Y-82686500D01*
X87434984Y-82686500D01*
X87415586Y-82684973D01*
X87408162Y-82683797D01*
X87395805Y-82681840D01*
X87395804Y-82681840D01*
X87370468Y-82684235D01*
X87352325Y-82685950D01*
X87340656Y-82686500D01*
X84156744Y-82686500D01*
X84136236Y-82684235D01*
X84066113Y-82686439D01*
X84062219Y-82686500D01*
X84034650Y-82686500D01*
X84030794Y-82686986D01*
X84030791Y-82686987D01*
X84030735Y-82686994D01*
X84030662Y-82687003D01*
X84019043Y-82687917D01*
X83975372Y-82689289D01*
X83956128Y-82694880D01*
X83937084Y-82698824D01*
X83917208Y-82701335D01*
X83876600Y-82717413D01*
X83865554Y-82721194D01*
X83823610Y-82733382D01*
X83823607Y-82733383D01*
X83806365Y-82743579D01*
X83788904Y-82752133D01*
X83770267Y-82759512D01*
X83734931Y-82785185D01*
X83725174Y-82791595D01*
X83687580Y-82813829D01*
X83673413Y-82827996D01*
X83658624Y-82840626D01*
X83642413Y-82852404D01*
X83614572Y-82886058D01*
X83606711Y-82894697D01*
X83364227Y-83137182D01*
X83302907Y-83170666D01*
X83276548Y-83173500D01*
X83217352Y-83173500D01*
X83032197Y-83212855D01*
X82859272Y-83289847D01*
X82811714Y-83324400D01*
X82714300Y-83395176D01*
X82706128Y-83401113D01*
X82705212Y-83402130D01*
X82700401Y-83407472D01*
X82640916Y-83444121D01*
X82608253Y-83448500D01*
X80320453Y-83448500D01*
X80253414Y-83428815D01*
X80232771Y-83412180D01*
X80186959Y-83366367D01*
X80153475Y-83305044D01*
X80151322Y-83291665D01*
X80133674Y-83123744D01*
X80103332Y-83030363D01*
X80075179Y-82943715D01*
X79980533Y-82779783D01*
X79853870Y-82639110D01*
X79700730Y-82527848D01*
X79527802Y-82450855D01*
X79342648Y-82411500D01*
X79342646Y-82411500D01*
X79153354Y-82411500D01*
X79153352Y-82411500D01*
X78968197Y-82450855D01*
X78795269Y-82527848D01*
X78642129Y-82639110D01*
X78515466Y-82779783D01*
X78420820Y-82943715D01*
X78362326Y-83123742D01*
X78342540Y-83311999D01*
X77980500Y-83311999D01*
X77980500Y-82975451D01*
X78000185Y-82908412D01*
X78016815Y-82887774D01*
X78869786Y-82034802D01*
X78885886Y-82021905D01*
X78887874Y-82019787D01*
X78887877Y-82019786D01*
X78933964Y-81970707D01*
X78936549Y-81968039D01*
X78956120Y-81948470D01*
X78958565Y-81945316D01*
X78966154Y-81936429D01*
X78996062Y-81904582D01*
X79005713Y-81887026D01*
X79016393Y-81870767D01*
X79028674Y-81854936D01*
X79046018Y-81814851D01*
X79051160Y-81804356D01*
X79072197Y-81766092D01*
X79077178Y-81746688D01*
X79083480Y-81728283D01*
X79091438Y-81709895D01*
X79098270Y-81666748D01*
X79100639Y-81655316D01*
X79111500Y-81613020D01*
X79111500Y-81592983D01*
X79113027Y-81573584D01*
X79116160Y-81553804D01*
X79112050Y-81510324D01*
X79111500Y-81498655D01*
X79111500Y-78422687D01*
X79131185Y-78355648D01*
X79143350Y-78339714D01*
X79218533Y-78256216D01*
X79247501Y-78206043D01*
X79313179Y-78092284D01*
X79328951Y-78043742D01*
X79371674Y-77912256D01*
X79391460Y-77724000D01*
X79371674Y-77535744D01*
X79341332Y-77442363D01*
X79313179Y-77355715D01*
X79218533Y-77191783D01*
X79091870Y-77051110D01*
X78938730Y-76939848D01*
X78765802Y-76862855D01*
X78580648Y-76823500D01*
X78580646Y-76823500D01*
X78391354Y-76823500D01*
X78391352Y-76823500D01*
X78206197Y-76862855D01*
X78033269Y-76939848D01*
X77921385Y-77021137D01*
X77855579Y-77044617D01*
X77787525Y-77028791D01*
X77738830Y-76978686D01*
X77724500Y-76920819D01*
X77724500Y-73468000D01*
X84334354Y-73468000D01*
X84354860Y-73636872D01*
X84415182Y-73795930D01*
X84511815Y-73935927D01*
X84511816Y-73935928D01*
X84511817Y-73935929D01*
X84639148Y-74048734D01*
X84789775Y-74127790D01*
X84953763Y-74168209D01*
X85014143Y-74203364D01*
X85045932Y-74265583D01*
X85047184Y-74273657D01*
X85054860Y-74336872D01*
X85115182Y-74495930D01*
X85211815Y-74635927D01*
X85211816Y-74635928D01*
X85211817Y-74635929D01*
X85339148Y-74748734D01*
X85489775Y-74827790D01*
X85654944Y-74868500D01*
X85654945Y-74868500D01*
X85816544Y-74868500D01*
X85883583Y-74888185D01*
X85889585Y-74892868D01*
X85894417Y-74895524D01*
X85894418Y-74895525D01*
X86032907Y-74971659D01*
X86032908Y-74971660D01*
X86185980Y-75010963D01*
X86185981Y-75010963D01*
X86650455Y-75010963D01*
X86654350Y-75010963D01*
X86771792Y-74996127D01*
X86918732Y-74937949D01*
X86981723Y-74892182D01*
X87047531Y-74868702D01*
X87054610Y-74868500D01*
X87225055Y-74868500D01*
X87225056Y-74868500D01*
X87390225Y-74827790D01*
X87540852Y-74748734D01*
X87668183Y-74635929D01*
X87764818Y-74495930D01*
X87825140Y-74336872D01*
X87832815Y-74273657D01*
X87860437Y-74209481D01*
X87918370Y-74170424D01*
X87926211Y-74168215D01*
X88090225Y-74127790D01*
X88240852Y-74048734D01*
X88368183Y-73935929D01*
X88464818Y-73795930D01*
X88525140Y-73636872D01*
X88545645Y-73468000D01*
X88525140Y-73299128D01*
X88464818Y-73140070D01*
X88368183Y-73000071D01*
X88240852Y-72887266D01*
X88240850Y-72887265D01*
X88240849Y-72887264D01*
X88230604Y-72881887D01*
X88222807Y-72877795D01*
X88172596Y-72829212D01*
X88156621Y-72761193D01*
X88179956Y-72695335D01*
X88222807Y-72658204D01*
X88240852Y-72648734D01*
X88368183Y-72535929D01*
X88464818Y-72395930D01*
X88525140Y-72236872D01*
X88545645Y-72068000D01*
X88525140Y-71899128D01*
X88464818Y-71740070D01*
X88368183Y-71600071D01*
X88240852Y-71487266D01*
X88226588Y-71479780D01*
X88090224Y-71408209D01*
X87954914Y-71374859D01*
X87926235Y-71367790D01*
X87865856Y-71332635D01*
X87834067Y-71270416D01*
X87832816Y-71262349D01*
X87825140Y-71199128D01*
X87764818Y-71040070D01*
X87668183Y-70900071D01*
X87540852Y-70787266D01*
X87526588Y-70779780D01*
X87390224Y-70708209D01*
X87265765Y-70677533D01*
X87225056Y-70667500D01*
X87054944Y-70667500D01*
X87022284Y-70675549D01*
X86889775Y-70708209D01*
X86739149Y-70787265D01*
X86611815Y-70900072D01*
X86542050Y-71001145D01*
X86487767Y-71045136D01*
X86418318Y-71052795D01*
X86355753Y-71021691D01*
X86337950Y-71001145D01*
X86268184Y-70900072D01*
X86268183Y-70900071D01*
X86140852Y-70787266D01*
X86126588Y-70779780D01*
X85990224Y-70708209D01*
X85865764Y-70677533D01*
X85825056Y-70667500D01*
X85654944Y-70667500D01*
X85622284Y-70675549D01*
X85489775Y-70708209D01*
X85339149Y-70787265D01*
X85211815Y-70900072D01*
X85115182Y-71040069D01*
X85054860Y-71199127D01*
X85047184Y-71262342D01*
X85019561Y-71326519D01*
X84961627Y-71365575D01*
X84953763Y-71367791D01*
X84789775Y-71408209D01*
X84639149Y-71487265D01*
X84511815Y-71600072D01*
X84415182Y-71740069D01*
X84354860Y-71899127D01*
X84334354Y-72068000D01*
X84354860Y-72236872D01*
X84415182Y-72395930D01*
X84511815Y-72535927D01*
X84511816Y-72535928D01*
X84511817Y-72535929D01*
X84639148Y-72648734D01*
X84657192Y-72658204D01*
X84707404Y-72706790D01*
X84723378Y-72774809D01*
X84700042Y-72840666D01*
X84657192Y-72877795D01*
X84649879Y-72881633D01*
X84639149Y-72887265D01*
X84511815Y-73000072D01*
X84415182Y-73140069D01*
X84354860Y-73299127D01*
X84334354Y-73468000D01*
X77724500Y-73468000D01*
X77724500Y-68326000D01*
X101980644Y-68326000D01*
X102000039Y-68597161D01*
X102057823Y-68862796D01*
X102057825Y-68862801D01*
X102152828Y-69117513D01*
X102152830Y-69117517D01*
X102152831Y-69117519D01*
X102283109Y-69356108D01*
X102283113Y-69356113D01*
X102446029Y-69573742D01*
X102638258Y-69765971D01*
X102854281Y-69927685D01*
X102855891Y-69928890D01*
X103051802Y-70035864D01*
X103094487Y-70059172D01*
X103349199Y-70154175D01*
X103349202Y-70154175D01*
X103349203Y-70154176D01*
X103398852Y-70164976D01*
X103614840Y-70211961D01*
X103865110Y-70229860D01*
X103885999Y-70231355D01*
X103885999Y-70231354D01*
X103886000Y-70231355D01*
X104157160Y-70211961D01*
X104422801Y-70154175D01*
X104677513Y-70059172D01*
X104916113Y-69928887D01*
X105133742Y-69765971D01*
X105325971Y-69573742D01*
X105488887Y-69356113D01*
X105619172Y-69117513D01*
X105714175Y-68862801D01*
X105771961Y-68597160D01*
X105791355Y-68326000D01*
X105771961Y-68054840D01*
X105724976Y-67838852D01*
X105714176Y-67789203D01*
X105702661Y-67758330D01*
X105619172Y-67534487D01*
X105559661Y-67425500D01*
X105488890Y-67295891D01*
X105383527Y-67155144D01*
X105325971Y-67078258D01*
X105133742Y-66886029D01*
X104916113Y-66723113D01*
X104916114Y-66723113D01*
X104916108Y-66723109D01*
X104677519Y-66592831D01*
X104677517Y-66592830D01*
X104677513Y-66592828D01*
X104422801Y-66497825D01*
X104422796Y-66497823D01*
X104157161Y-66440039D01*
X103886000Y-66420644D01*
X103614838Y-66440039D01*
X103349203Y-66497823D01*
X103204956Y-66551624D01*
X103094487Y-66592828D01*
X103094484Y-66592829D01*
X103094480Y-66592831D01*
X102855891Y-66723109D01*
X102638255Y-66886031D01*
X102446031Y-67078255D01*
X102283109Y-67295891D01*
X102152831Y-67534480D01*
X102152829Y-67534484D01*
X102152828Y-67534487D01*
X102150082Y-67541849D01*
X102057823Y-67789203D01*
X102000039Y-68054838D01*
X101980644Y-68326000D01*
X77724500Y-68326000D01*
X77724500Y-66293999D01*
X97138540Y-66293999D01*
X97158326Y-66482257D01*
X97216820Y-66662284D01*
X97311466Y-66826216D01*
X97438129Y-66966889D01*
X97591269Y-67078151D01*
X97764197Y-67155144D01*
X97949352Y-67194500D01*
X97949354Y-67194500D01*
X98138648Y-67194500D01*
X98262084Y-67168262D01*
X98323803Y-67155144D01*
X98496730Y-67078151D01*
X98519860Y-67061346D01*
X98649870Y-66966889D01*
X98776533Y-66826216D01*
X98871179Y-66662284D01*
X98893746Y-66592831D01*
X98929674Y-66482256D01*
X98949460Y-66294000D01*
X98949460Y-66293999D01*
X98949929Y-66289538D01*
X98976514Y-66224924D01*
X99033811Y-66184939D01*
X99073250Y-66178500D01*
X99154648Y-66178500D01*
X99278084Y-66152262D01*
X99339803Y-66139144D01*
X99512730Y-66062151D01*
X99665871Y-65950888D01*
X99792533Y-65810216D01*
X99887179Y-65646284D01*
X99945674Y-65466256D01*
X99965460Y-65278000D01*
X99945674Y-65089744D01*
X99887179Y-64909716D01*
X99887179Y-64909715D01*
X99792533Y-64745783D01*
X99665870Y-64605110D01*
X99537714Y-64512000D01*
X116036970Y-64512000D01*
X116044383Y-64573050D01*
X116114010Y-64813426D01*
X116221291Y-65039520D01*
X116363456Y-65245479D01*
X116536815Y-65425965D01*
X116736884Y-65576308D01*
X116958472Y-65692607D01*
X117195856Y-65771857D01*
X117442870Y-65812000D01*
X118368000Y-65812000D01*
X118368000Y-64912000D01*
X118868000Y-64912000D01*
X118868000Y-65812000D01*
X119727985Y-65812000D01*
X119732945Y-65811800D01*
X119917445Y-65796905D01*
X120160435Y-65737013D01*
X120390664Y-65638922D01*
X120602179Y-65505167D01*
X120789500Y-65339216D01*
X120947774Y-65145365D01*
X121072903Y-64928635D01*
X121161647Y-64694639D01*
X121198933Y-64512000D01*
X131784970Y-64512000D01*
X131792383Y-64573050D01*
X131862010Y-64813426D01*
X131969291Y-65039520D01*
X132111456Y-65245479D01*
X132284815Y-65425965D01*
X132484884Y-65576308D01*
X132706472Y-65692607D01*
X132943856Y-65771857D01*
X133190870Y-65812000D01*
X134115999Y-65812000D01*
X134116000Y-64912000D01*
X134616000Y-64912000D01*
X134616000Y-65812000D01*
X135475985Y-65812000D01*
X135480945Y-65811800D01*
X135665445Y-65796905D01*
X135908435Y-65737013D01*
X136138664Y-65638922D01*
X136350179Y-65505167D01*
X136537500Y-65339216D01*
X136695774Y-65145365D01*
X136820903Y-64928635D01*
X136909647Y-64694639D01*
X136946933Y-64512000D01*
X147532970Y-64512000D01*
X147540383Y-64573050D01*
X147610010Y-64813426D01*
X147717291Y-65039520D01*
X147859456Y-65245479D01*
X148032815Y-65425965D01*
X148232884Y-65576308D01*
X148454472Y-65692607D01*
X148691856Y-65771857D01*
X148938870Y-65812000D01*
X149864000Y-65812000D01*
X149864000Y-64912000D01*
X150364000Y-64912000D01*
X150364000Y-65812000D01*
X151223985Y-65812000D01*
X151228945Y-65811800D01*
X151413445Y-65796905D01*
X151656435Y-65737013D01*
X151886664Y-65638922D01*
X152098179Y-65505167D01*
X152285500Y-65339216D01*
X152443774Y-65145365D01*
X152568903Y-64928635D01*
X152657647Y-64694639D01*
X152694933Y-64512000D01*
X163280970Y-64512000D01*
X163288383Y-64573050D01*
X163358010Y-64813426D01*
X163465291Y-65039520D01*
X163607456Y-65245479D01*
X163780815Y-65425965D01*
X163980884Y-65576308D01*
X164202472Y-65692607D01*
X164439856Y-65771857D01*
X164686870Y-65812000D01*
X165612000Y-65812000D01*
X165612000Y-64912000D01*
X166112000Y-64912000D01*
X166112000Y-65812000D01*
X166971985Y-65812000D01*
X166976945Y-65811800D01*
X167161445Y-65796905D01*
X167404435Y-65737013D01*
X167634664Y-65638922D01*
X167846179Y-65505167D01*
X168033500Y-65339216D01*
X168191774Y-65145365D01*
X168316903Y-64928635D01*
X168405647Y-64694639D01*
X168442933Y-64512000D01*
X167512728Y-64512000D01*
X167535100Y-64464457D01*
X167565873Y-64303138D01*
X167555561Y-64139234D01*
X167514220Y-64012000D01*
X168443030Y-64012000D01*
X168435616Y-63950949D01*
X168365989Y-63710573D01*
X168258708Y-63484479D01*
X168116543Y-63278520D01*
X167943184Y-63098034D01*
X167743115Y-62947691D01*
X167521527Y-62831392D01*
X167284143Y-62752142D01*
X167037130Y-62712000D01*
X166112000Y-62712000D01*
X166112000Y-63612000D01*
X165612000Y-63612000D01*
X165612000Y-62712000D01*
X164752015Y-62712000D01*
X164747054Y-62712199D01*
X164562554Y-62727094D01*
X164319564Y-62786986D01*
X164089335Y-62885077D01*
X163877820Y-63018832D01*
X163690499Y-63184783D01*
X163532225Y-63378634D01*
X163407096Y-63595364D01*
X163318352Y-63829360D01*
X163281067Y-64012000D01*
X164211272Y-64012000D01*
X164188900Y-64059543D01*
X164158127Y-64220862D01*
X164168439Y-64384766D01*
X164209780Y-64512000D01*
X163280970Y-64512000D01*
X152694933Y-64512000D01*
X151764728Y-64512000D01*
X151787100Y-64464457D01*
X151817873Y-64303138D01*
X151807561Y-64139234D01*
X151766220Y-64012000D01*
X152695030Y-64012000D01*
X152687616Y-63950949D01*
X152617989Y-63710573D01*
X152510708Y-63484479D01*
X152368543Y-63278520D01*
X152195184Y-63098034D01*
X151995115Y-62947691D01*
X151773527Y-62831392D01*
X151536143Y-62752142D01*
X151289130Y-62712000D01*
X150364000Y-62712000D01*
X150364000Y-63612000D01*
X149864000Y-63612000D01*
X149864000Y-62712000D01*
X149004015Y-62712000D01*
X148999054Y-62712199D01*
X148814554Y-62727094D01*
X148571564Y-62786986D01*
X148341335Y-62885077D01*
X148129820Y-63018832D01*
X147942499Y-63184783D01*
X147784225Y-63378634D01*
X147659096Y-63595364D01*
X147570352Y-63829360D01*
X147533067Y-64012000D01*
X148463272Y-64012000D01*
X148440900Y-64059543D01*
X148410127Y-64220862D01*
X148420439Y-64384766D01*
X148461780Y-64512000D01*
X147532970Y-64512000D01*
X136946933Y-64512000D01*
X136016728Y-64512000D01*
X136039100Y-64464457D01*
X136069873Y-64303138D01*
X136059561Y-64139234D01*
X136018220Y-64012000D01*
X136947030Y-64012000D01*
X136939616Y-63950949D01*
X136869989Y-63710573D01*
X136762708Y-63484479D01*
X136620543Y-63278520D01*
X136447184Y-63098034D01*
X136247115Y-62947691D01*
X136025527Y-62831392D01*
X135788143Y-62752142D01*
X135541130Y-62712000D01*
X134616000Y-62712000D01*
X134616000Y-63612000D01*
X134115999Y-63612000D01*
X134116000Y-62712000D01*
X133256015Y-62712000D01*
X133251054Y-62712199D01*
X133066554Y-62727094D01*
X132823564Y-62786986D01*
X132593335Y-62885077D01*
X132381820Y-63018832D01*
X132194499Y-63184783D01*
X132036225Y-63378634D01*
X131911096Y-63595364D01*
X131822352Y-63829360D01*
X131785067Y-64012000D01*
X132715272Y-64012000D01*
X132692900Y-64059543D01*
X132662127Y-64220862D01*
X132672439Y-64384766D01*
X132713780Y-64512000D01*
X131784970Y-64512000D01*
X121198933Y-64512000D01*
X120268728Y-64512000D01*
X120291100Y-64464457D01*
X120321873Y-64303138D01*
X120311561Y-64139234D01*
X120270220Y-64012000D01*
X121199030Y-64012000D01*
X121191616Y-63950949D01*
X121121989Y-63710573D01*
X121014708Y-63484479D01*
X120872543Y-63278520D01*
X120699184Y-63098034D01*
X120499115Y-62947691D01*
X120277527Y-62831392D01*
X120040143Y-62752142D01*
X119793130Y-62712000D01*
X118868000Y-62712000D01*
X118868000Y-63612000D01*
X118368000Y-63612000D01*
X118368000Y-62712000D01*
X117508015Y-62712000D01*
X117503054Y-62712199D01*
X117318554Y-62727094D01*
X117075564Y-62786986D01*
X116845335Y-62885077D01*
X116633820Y-63018832D01*
X116446499Y-63184783D01*
X116288225Y-63378634D01*
X116163096Y-63595364D01*
X116074352Y-63829360D01*
X116037067Y-64012000D01*
X116967272Y-64012000D01*
X116944900Y-64059543D01*
X116914127Y-64220862D01*
X116924439Y-64384766D01*
X116965780Y-64512000D01*
X116036970Y-64512000D01*
X99537714Y-64512000D01*
X99512730Y-64493848D01*
X99339802Y-64416855D01*
X99154648Y-64377500D01*
X99154646Y-64377500D01*
X98965354Y-64377500D01*
X98965352Y-64377500D01*
X98780197Y-64416855D01*
X98607269Y-64493848D01*
X98454129Y-64605110D01*
X98327466Y-64745783D01*
X98232820Y-64909715D01*
X98174326Y-65089742D01*
X98154071Y-65282462D01*
X98127486Y-65347076D01*
X98070189Y-65387061D01*
X98030750Y-65393500D01*
X97949352Y-65393500D01*
X97764197Y-65432855D01*
X97591269Y-65509848D01*
X97438129Y-65621110D01*
X97311466Y-65761783D01*
X97216820Y-65925715D01*
X97158326Y-66105742D01*
X97138540Y-66293999D01*
X77724500Y-66293999D01*
X77724500Y-62000759D01*
X77724528Y-62000616D01*
X77724524Y-62000616D01*
X77724539Y-61976002D01*
X77724541Y-61976000D01*
X77724462Y-61975808D01*
X77724384Y-61975618D01*
X77724383Y-61975617D01*
X77724099Y-61975500D01*
X77724000Y-61975459D01*
X77699446Y-61975459D01*
X77699240Y-61975500D01*
X70990500Y-61975500D01*
X70923461Y-61955815D01*
X70907928Y-61937889D01*
X113467416Y-61937889D01*
X113467459Y-61962000D01*
X113467501Y-61962101D01*
X113467616Y-61962382D01*
X113467618Y-61962384D01*
X113467808Y-61962462D01*
X113468000Y-61962541D01*
X113468002Y-61962539D01*
X113492616Y-61962524D01*
X113492616Y-61962528D01*
X113492760Y-61962500D01*
X115243240Y-61962500D01*
X115243383Y-61962528D01*
X115243384Y-61962524D01*
X115267997Y-61962539D01*
X115268000Y-61962541D01*
X115268383Y-61962383D01*
X115268500Y-61962099D01*
X115268541Y-61962000D01*
X115268540Y-61961997D01*
X115268583Y-61937889D01*
X121967416Y-61937889D01*
X121967459Y-61962000D01*
X121967501Y-61962101D01*
X121967616Y-61962382D01*
X121967618Y-61962384D01*
X121967808Y-61962462D01*
X121968000Y-61962541D01*
X121968002Y-61962539D01*
X121992616Y-61962524D01*
X121992616Y-61962528D01*
X121992760Y-61962500D01*
X123743240Y-61962500D01*
X123743383Y-61962528D01*
X123743384Y-61962524D01*
X123767997Y-61962539D01*
X123768000Y-61962541D01*
X123768383Y-61962383D01*
X123768500Y-61962099D01*
X123768541Y-61962000D01*
X123768540Y-61961997D01*
X123768583Y-61937889D01*
X129215416Y-61937889D01*
X129215459Y-61962000D01*
X129215501Y-61962101D01*
X129215616Y-61962382D01*
X129215618Y-61962384D01*
X129215808Y-61962462D01*
X129216000Y-61962541D01*
X129216002Y-61962539D01*
X129240616Y-61962524D01*
X129240616Y-61962528D01*
X129240760Y-61962500D01*
X130991240Y-61962500D01*
X130991383Y-61962528D01*
X130991384Y-61962524D01*
X131015997Y-61962539D01*
X131016000Y-61962541D01*
X131016383Y-61962383D01*
X131016500Y-61962099D01*
X131016541Y-61962000D01*
X131016540Y-61961997D01*
X131016583Y-61937889D01*
X137715416Y-61937889D01*
X137715459Y-61962000D01*
X137715501Y-61962101D01*
X137715616Y-61962382D01*
X137715618Y-61962384D01*
X137715808Y-61962462D01*
X137716000Y-61962541D01*
X137716002Y-61962539D01*
X137740616Y-61962524D01*
X137740616Y-61962528D01*
X137740760Y-61962500D01*
X139491240Y-61962500D01*
X139491383Y-61962528D01*
X139491384Y-61962524D01*
X139515997Y-61962539D01*
X139516000Y-61962541D01*
X139516383Y-61962383D01*
X139516500Y-61962099D01*
X139516541Y-61962000D01*
X139516540Y-61961997D01*
X139516583Y-61937889D01*
X144963416Y-61937889D01*
X144963459Y-61962000D01*
X144963501Y-61962101D01*
X144963616Y-61962382D01*
X144963618Y-61962384D01*
X144963808Y-61962462D01*
X144964000Y-61962541D01*
X144964002Y-61962539D01*
X144988616Y-61962524D01*
X144988616Y-61962528D01*
X144988760Y-61962500D01*
X146739240Y-61962500D01*
X146739383Y-61962528D01*
X146739384Y-61962524D01*
X146763997Y-61962539D01*
X146764000Y-61962541D01*
X146764383Y-61962383D01*
X146764500Y-61962099D01*
X146764541Y-61962000D01*
X146764540Y-61961997D01*
X146764583Y-61937889D01*
X153463416Y-61937889D01*
X153463459Y-61962000D01*
X153463501Y-61962101D01*
X153463616Y-61962382D01*
X153463618Y-61962384D01*
X153463808Y-61962462D01*
X153464000Y-61962541D01*
X153464002Y-61962539D01*
X153488616Y-61962524D01*
X153488616Y-61962528D01*
X153488760Y-61962500D01*
X155239240Y-61962500D01*
X155239383Y-61962528D01*
X155239384Y-61962524D01*
X155263997Y-61962539D01*
X155264000Y-61962541D01*
X155264383Y-61962383D01*
X155264500Y-61962099D01*
X155264541Y-61962000D01*
X155264540Y-61961997D01*
X155264583Y-61937889D01*
X160711416Y-61937889D01*
X160711459Y-61962000D01*
X160711501Y-61962101D01*
X160711616Y-61962382D01*
X160711618Y-61962384D01*
X160711808Y-61962462D01*
X160712000Y-61962541D01*
X160712002Y-61962539D01*
X160736616Y-61962524D01*
X160736616Y-61962528D01*
X160736760Y-61962500D01*
X162487240Y-61962500D01*
X162487383Y-61962528D01*
X162487384Y-61962524D01*
X162511997Y-61962539D01*
X162512000Y-61962541D01*
X162512383Y-61962383D01*
X162512500Y-61962099D01*
X162512541Y-61962000D01*
X162512540Y-61961997D01*
X162512583Y-61937889D01*
X169211416Y-61937889D01*
X169211459Y-61962000D01*
X169211501Y-61962101D01*
X169211616Y-61962382D01*
X169211618Y-61962384D01*
X169211808Y-61962462D01*
X169212000Y-61962541D01*
X169212002Y-61962539D01*
X169236616Y-61962524D01*
X169236616Y-61962528D01*
X169236760Y-61962500D01*
X170987240Y-61962500D01*
X170987383Y-61962528D01*
X170987384Y-61962524D01*
X171011997Y-61962539D01*
X171012000Y-61962541D01*
X171012383Y-61962383D01*
X171012500Y-61962099D01*
X171012541Y-61962000D01*
X171012540Y-61961997D01*
X171012583Y-61937889D01*
X171012500Y-61937467D01*
X171012500Y-60286759D01*
X171012528Y-60286616D01*
X171012524Y-60286616D01*
X171012539Y-60262002D01*
X171012541Y-60262000D01*
X171012462Y-60261808D01*
X171012384Y-60261618D01*
X171012383Y-60261617D01*
X171012379Y-60261615D01*
X171012097Y-60261499D01*
X171012000Y-60261459D01*
X170987446Y-60261459D01*
X170987240Y-60261500D01*
X169236760Y-60261500D01*
X169236554Y-60261459D01*
X169211999Y-60261459D01*
X169211900Y-60261500D01*
X169211618Y-60261615D01*
X169211615Y-60261618D01*
X169211459Y-60261999D01*
X169211476Y-60286616D01*
X169211471Y-60286616D01*
X169211500Y-60286759D01*
X169211500Y-61937467D01*
X169211416Y-61937889D01*
X162512583Y-61937889D01*
X162512500Y-61937467D01*
X162512500Y-60286759D01*
X162512528Y-60286616D01*
X162512524Y-60286616D01*
X162512539Y-60262002D01*
X162512541Y-60262000D01*
X162512462Y-60261808D01*
X162512384Y-60261618D01*
X162512383Y-60261617D01*
X162512379Y-60261615D01*
X162512097Y-60261499D01*
X162512000Y-60261459D01*
X162487446Y-60261459D01*
X162487240Y-60261500D01*
X160736760Y-60261500D01*
X160736554Y-60261459D01*
X160711999Y-60261459D01*
X160711900Y-60261500D01*
X160711618Y-60261615D01*
X160711615Y-60261618D01*
X160711459Y-60261999D01*
X160711476Y-60286616D01*
X160711471Y-60286616D01*
X160711500Y-60286759D01*
X160711500Y-61937467D01*
X160711416Y-61937889D01*
X155264583Y-61937889D01*
X155264500Y-61937467D01*
X155264500Y-60286759D01*
X155264528Y-60286616D01*
X155264524Y-60286616D01*
X155264539Y-60262002D01*
X155264541Y-60262000D01*
X155264462Y-60261808D01*
X155264384Y-60261618D01*
X155264383Y-60261617D01*
X155264379Y-60261615D01*
X155264097Y-60261499D01*
X155264000Y-60261459D01*
X155239446Y-60261459D01*
X155239240Y-60261500D01*
X153488760Y-60261500D01*
X153488554Y-60261459D01*
X153463999Y-60261459D01*
X153463900Y-60261500D01*
X153463618Y-60261615D01*
X153463615Y-60261618D01*
X153463459Y-60261999D01*
X153463476Y-60286616D01*
X153463471Y-60286616D01*
X153463500Y-60286759D01*
X153463500Y-61937467D01*
X153463416Y-61937889D01*
X146764583Y-61937889D01*
X146764500Y-61937467D01*
X146764500Y-60286759D01*
X146764528Y-60286616D01*
X146764524Y-60286616D01*
X146764539Y-60262002D01*
X146764541Y-60262000D01*
X146764462Y-60261808D01*
X146764384Y-60261618D01*
X146764383Y-60261617D01*
X146764379Y-60261615D01*
X146764097Y-60261499D01*
X146764000Y-60261459D01*
X146739446Y-60261459D01*
X146739240Y-60261500D01*
X144988760Y-60261500D01*
X144988554Y-60261459D01*
X144963999Y-60261459D01*
X144963900Y-60261500D01*
X144963618Y-60261615D01*
X144963615Y-60261618D01*
X144963459Y-60261999D01*
X144963476Y-60286616D01*
X144963471Y-60286616D01*
X144963499Y-60286759D01*
X144963500Y-61937467D01*
X144963416Y-61937889D01*
X139516583Y-61937889D01*
X139516500Y-61937467D01*
X139516500Y-60286759D01*
X139516528Y-60286616D01*
X139516524Y-60286616D01*
X139516539Y-60262002D01*
X139516541Y-60262000D01*
X139516462Y-60261808D01*
X139516384Y-60261618D01*
X139516383Y-60261617D01*
X139516379Y-60261615D01*
X139516097Y-60261499D01*
X139516000Y-60261459D01*
X139491446Y-60261459D01*
X139491240Y-60261500D01*
X137740760Y-60261500D01*
X137740554Y-60261459D01*
X137715999Y-60261459D01*
X137715900Y-60261500D01*
X137715618Y-60261615D01*
X137715615Y-60261618D01*
X137715459Y-60261999D01*
X137715476Y-60286616D01*
X137715471Y-60286616D01*
X137715500Y-60286759D01*
X137715500Y-61937467D01*
X137715416Y-61937889D01*
X131016583Y-61937889D01*
X131016500Y-61937467D01*
X131016500Y-60286759D01*
X131016528Y-60286616D01*
X131016524Y-60286616D01*
X131016539Y-60262002D01*
X131016541Y-60262000D01*
X131016462Y-60261808D01*
X131016384Y-60261618D01*
X131016383Y-60261617D01*
X131016379Y-60261615D01*
X131016097Y-60261499D01*
X131016000Y-60261459D01*
X130991446Y-60261459D01*
X130991240Y-60261500D01*
X129240760Y-60261500D01*
X129240554Y-60261459D01*
X129215999Y-60261459D01*
X129215900Y-60261500D01*
X129215618Y-60261615D01*
X129215615Y-60261618D01*
X129215459Y-60261999D01*
X129215476Y-60286616D01*
X129215471Y-60286616D01*
X129215500Y-60286759D01*
X129215500Y-61937467D01*
X129215416Y-61937889D01*
X123768583Y-61937889D01*
X123768500Y-61937467D01*
X123768500Y-60286759D01*
X123768528Y-60286616D01*
X123768524Y-60286616D01*
X123768539Y-60262002D01*
X123768541Y-60262000D01*
X123768462Y-60261808D01*
X123768384Y-60261618D01*
X123768383Y-60261617D01*
X123768379Y-60261615D01*
X123768097Y-60261499D01*
X123768000Y-60261459D01*
X123743446Y-60261459D01*
X123743240Y-60261500D01*
X121992760Y-60261500D01*
X121992554Y-60261459D01*
X121967999Y-60261459D01*
X121967900Y-60261500D01*
X121967618Y-60261615D01*
X121967615Y-60261618D01*
X121967459Y-60261999D01*
X121967476Y-60286616D01*
X121967471Y-60286616D01*
X121967500Y-60286759D01*
X121967500Y-61937467D01*
X121967416Y-61937889D01*
X115268583Y-61937889D01*
X115268500Y-61937467D01*
X115268500Y-60286759D01*
X115268528Y-60286616D01*
X115268524Y-60286616D01*
X115268539Y-60262002D01*
X115268541Y-60262000D01*
X115268462Y-60261808D01*
X115268384Y-60261618D01*
X115268383Y-60261617D01*
X115268379Y-60261615D01*
X115268097Y-60261499D01*
X115268000Y-60261459D01*
X115243446Y-60261459D01*
X115243240Y-60261500D01*
X113492760Y-60261500D01*
X113492554Y-60261459D01*
X113467999Y-60261459D01*
X113467900Y-60261500D01*
X113467618Y-60261615D01*
X113467615Y-60261618D01*
X113467459Y-60261999D01*
X113467476Y-60286616D01*
X113467471Y-60286616D01*
X113467500Y-60286759D01*
X113467500Y-61937467D01*
X113467416Y-61937889D01*
X70907928Y-61937889D01*
X70877706Y-61903011D01*
X70866500Y-61851500D01*
X70866500Y-59560500D01*
X70886185Y-59493461D01*
X70938989Y-59447706D01*
X70990500Y-59436500D01*
X171833500Y-59436500D01*
X171900539Y-59456185D01*
G37*
G04 #@! TD.AperFunction*
G04 #@! TD*
M02*
